<svg xmlns="http://www.w3.org/2000/svg" xmlns:xlink="http://www.w3.org/1999/xlink" viewBox="0 0 371.68 322"><defs><style>.cls-1{fill:none;}.cls-2{clip-path:url(#clip-path);}.cls-3{fill:#ffaa8a;}.cls-4{fill:#fecdb2;}.cls-5{fill:#fefefe;}.cls-6{fill:#feba3f;}.cls-7{fill:#334a52;}.cls-8{fill:#d14121;}.cls-9{fill:#feab8b;}.cls-10{fill:#fe7e59;}.cls-11{fill:#f9a788;}.cls-12{fill:#8b84da;}.cls-13{fill:#020101;}.cls-14{fill:#feb94b;}.cls-15{fill:#1c1a12;}.cls-16{fill:#f7682f;}.cls-17{fill:#8f85de;}.cls-18{fill:#feb02a;}.cls-19{fill:#8e84dd;}.cls-20{fill:#ff7f55;}</style><clipPath id="clip-path" transform="translate(-5.32 -15)"><polyline class="cls-1" points="0 0 379 0 379 360 0 363"/></clipPath></defs><title>imgBanner1_2</title><g id="Capa_2" data-name="Capa 2"><g id="Capa_1-2" data-name="Capa 1"><g class="cls-2"><path class="cls-3" d="M237.88,19.05c2.27-.14,4.48-.71,6.75-.86a9,9,0,0,1,2.44.15c.8.17.92.68.29,1.23a7.16,7.16,0,0,1-2.6,1.34c-1.58.54-3.19,1-4.77,1.66,1.41-.1,2.82-.14,4.23-.3a19.87,19.87,0,0,1,5.5.08c.54.08,1.21.13,1.3.78s-.63.81-1.12,1a65.86,65.86,0,0,1-9.47,2.26,2.82,2.82,0,0,0-1.17.4c2.67.14,5.28-.13,7.86.31.75.13,1.89,0,2,.86s-1.1.93-1.78,1.13a77,77,0,0,1-11,2c-1.42.21-2.85.39-4.49.61a3.6,3.6,0,0,0,2.23.56,31.49,31.49,0,0,1,6,.25c.53.11,1.18.14,1.29.81s-.52.94-1,1.17a21.65,21.65,0,0,1-6.33,1.69c-3.61.58-7.29,1.26-10.78-.17-2.13-.88-3.63-.13-5.23.95a.31.31,0,0,0-.07.09,6.41,6.41,0,0,0-.87.31q-8.24,4.26-16.46,8.55a23.8,23.8,0,0,0-3.85,2.23c-.35.17-1,.5-1.89.94-4.32,2.19-7.41,4.14-11.19,6.42a18,18,0,0,1-2,0c-.34,0-3.86-.26-3.93-1s3.94-2,3.93-2h0s0-.55.07-.56.21.24.31.72c0,.27.42.49.1.89-2.38.55-3.2.34-3.43-.06-.34-.61.54-2,.43-2s-.13.07-.18.17.12.43.29.57A12.2,12.2,0,0,0,181,53.61c.69.43,1.57,1,2.76,1.91.51,2.59.52,2.62.52,2.62.24,1.28.79,4,2.13,10.3a53.76,53.76,0,0,1-17.8,5.07c-1.66-6.27-2.84-12.61-2.31-19.13a15.43,15.43,0,0,1,6.85-12A96.92,96.92,0,0,1,191,33,197,197,0,0,1,215,24.63c.91-.26,1.21-1.16,2-1.54q2.7-1.31,5.47-2.46a99.81,99.81,0,0,1,16.8-5.27c.48-.1,1,.06,1.44-.36h2.36c0,1-.75,1.45-1.43,1.87-1.23.76-2.51,1.43-3.77,2.14l-.51.12a.17.17,0,0,0,.07.09C237.51,19.29,237.71,19.22,237.88,19.05Zm-5,8.8c.75-5.87.54-7.76,0-7.91-.27-.07-.82.23-1,0s.15-.66.1-.69-.16.12-.19.29.21.48.36.72a12,12,0,0,1,2,5.58c.12,1.19.2,2.87,0,2.9s-.45-.79-.3-.89,1.11.68,1,1-.91.21-1,0,1.06-.73,1-1S234.31,27.63,232.84,27.85Zm-5.1.65c2-.77,2.84-.89,3.27-.81l.84.16h0c-.93-.11-1,0-1,0-.09.19,1,.67,1,1-.1.48-3,.28-4.91,0-.41,0-1.58-.36-3.92-1-1.12-.3-1.88-.51-2-1s.66-1.17.7-1.14-.09.13-.08.3.38.47.6.61A11.05,11.05,0,0,0,227.74,28.5Z" transform="translate(-5.32 -15)"/><path class="cls-4" d="M336,315.5c1.32,3.75,13.82,2.1,14.73,2,.24.08.77.23,1,0s0-1-.71-1.86l-14.68-2.38A2.86,2.86,0,0,0,336,315.5Z" transform="translate(-5.32 -15)"/><path class="cls-5" d="M77.4,296.89a8.82,8.82,0,0,0-1.54-2.72c-.34-.48-.62-.46-.91.12-.67,1.36-.53,1.77,1,2.63a5.61,5.61,0,0,0,2,1.31A2.45,2.45,0,0,0,77.4,296.89Zm4.85,1.58a15,15,0,0,0,4.14-3.23,1.09,1.09,0,0,0,0-1.66c-.59-.51-1.1-.19-1.52.28A13.44,13.44,0,0,0,82.25,298.47Z" transform="translate(-5.32 -15)"/><path class="cls-6" d="M244.84,194.29a48.6,48.6,0,0,1,6.49,3.55c8.95,5.17,17.77,10.55,26.3,16.39a33.26,33.26,0,0,1,9,8.55,13.25,13.25,0,0,1,2.62,7.72,50.22,50.22,0,0,1-1.43,11.7,192.56,192.56,0,0,1-9.51,26.32q-5.79,13.61-12.44,26.8c-.25.51-.38,1.18-1.2,1.06a92.64,92.64,0,0,0-9.66-1.6c-.55-.09-.54-.44-.46-.88,1.13-6.52,2-13.08,2.68-19.66.37-3.57.64-7.15.75-10.73.25-8,.6-15.92,2.62-23.68.59-2.29.56-2.27-1.62-3.21-11-4.78-22-9.32-32.78-14.64-5.52-2.73-10.82-5.9-16-9.17a2.71,2.71,0,0,0-1.41-.51,73.14,73.14,0,0,1-18.3-2.81,2.32,2.32,0,0,0-2.41.59q-19.2,16.65-38.44,33.27Q134.82,256.18,120,269c-4.64,4-16.35,11.31-28.64,24.78l-.88,1a11.46,11.46,0,0,0-1.33-1.12,10.08,10.08,0,0,0-1.19-.76h0a.35.35,0,0,0-.34-.26l-.76-.68-8.28-6.62c3.5-5.24,7-10.47,10.49-15.72,2.7-4.07,5.23-8.26,8-12.25,3.42-4.86,7.83-8.82,12.23-12.77s9.12-7.72,13.78-11.46c1.81-1.45,3-3.55,4.37-5.4,7.4-9.68,13.73-20.07,20-30.52,6.56-10.95,15.07-20.16,26.08-26.82a2.36,2.36,0,0,1,.4-.24,6.65,6.65,0,0,0,4.39-4.53c8,3.63,16.52,5.42,25.22,6.44,3,.35,5.9.61,8.87.78a86.33,86.33,0,0,0,10.67,0,11.37,11.37,0,0,1,.55,1,26.31,26.31,0,0,1,1.5,7.84,2.63,2.63,0,0,0,1.78,2.64c-.71.44-1.64.44-2.36,1.16,1.15.57,2.21,1.15,3.32,1.62.88.37,1,.83.68,1.73a13.2,13.2,0,0,0-1.21,5.84c.11,1.24,1.11,1.7,2.08.93a6.51,6.51,0,0,0,1.72-2.07c.68-1.26,1.41-2.48,2.11-3.71a7.89,7.89,0,0,1-1,3.5,8.26,8.26,0,0,0-1.11,3.34c0,.75-.11,1.58.81,1.88s1.37-.27,1.88-.85c1-1.14,1.59-2.53,2.49-3.72l.08.07a3.57,3.57,0,0,1,0,.47,17.24,17.24,0,0,0-.67,3.33c0,.57,0,1.27.61,1.55s1-.3,1.39-.65a13.71,13.71,0,0,0,2.59-3.35c0,.83-.11,1.6-.17,2.38s-.19,1.66.75,2,1.79-.53,2.15-.83C244.7,197.61,244.83,195.07,244.84,194.29ZM82.54,286.4c.62-.12.78-.67,1-1.08,3.16-5.21,6.43-10.35,10-15.3,2.7-3.77,5.47-7.47,8.42-11,2.38-2.88,4.87-5.65,7.38-8.41a120.56,120.56,0,0,1,12-11.32,51.21,51.21,0,0,0,7.39-6.88c4.31-5.36,8.37-10.89,12.24-16.57a247.23,247.23,0,0,0,13.73-22,38.76,38.76,0,0,1,5.58-7.86A78.34,78.34,0,0,1,174.46,174c.52-.34,1.73-.57,1.22-1.38s-1.37.08-2,.46a82,82,0,0,0-10.58,8.2,41.68,41.68,0,0,0-8.38,10c-3,5.15-5.89,10.3-9.12,15.28-5,7.72-10.19,15.31-15.87,22.54a38.34,38.34,0,0,1-5.16,5.78c-3.25,2.78-6.64,5.39-9.72,8.35a171.42,171.42,0,0,0-14.22,15.41,230.45,230.45,0,0,0-16.14,22.75c-.8,1.27-1.54,2.56-2.28,3.86C82,285.67,82,286.13,82.54,286.4Zm1.75,2.36c.61-.3.85-.95,1.18-1.51,3.65-6.16,7.63-12.11,11.86-17.87A193.84,193.84,0,0,1,110,253.92a110.72,110.72,0,0,1,13.12-12.51,59.17,59.17,0,0,0,10.34-10.7c3.09-4.06,6.09-8.2,9-12.42a253.67,253.67,0,0,0,13.71-21.88,39.54,39.54,0,0,1,5.77-8.15A74.38,74.38,0,0,1,176.76,176c.37-.24,1-.45.59-1.05s-.82-.3-1.23,0c-.19.14-.4.26-.6.39a87.2,87.2,0,0,0-10.08,7.7,41.72,41.72,0,0,0-8.81,10.22c-3.73,6.52-7.55,13-11.7,19.25-4.37,6.57-8.86,13.07-13.77,19.26a38.29,38.29,0,0,1-5.84,6.29c-2.81,2.26-5.62,4.53-8.23,7a164.66,164.66,0,0,0-14.49,15.5,228.35,228.35,0,0,0-16.18,22.74c-.88,1.39-1.73,2.81-2.57,4.23-.15.26-.4.53-.17.86A.71.71,0,0,0,84.29,288.76Zm174.92,3.42c0,.54,0,1,.4,1.06s.62-.28.74-.61a9.11,9.11,0,0,0,.3-1.14,230.62,230.62,0,0,0,5-23.25,80.26,80.26,0,0,0,1.07-11.36c0-1.64-.14-3.27,0-4.93a53.64,53.64,0,0,1,1.52-8.92,56.4,56.4,0,0,1,3.29-9.21c.42-.94.13-1.36-.81-1.6-1.25-.31-2.48-.69-3.71-1.08A207.49,207.49,0,0,1,243.71,222q-12.74-5.87-24.87-12.87-1.87-1.1-3.78-2.16c-.33-.18-.72-.46-1,.08s0,.74.41,1c.13.08.25.19.38.27,5.5,3.28,11.12,6.32,16.8,9.27,5.12,2.65,10.34,5.1,15.62,7.41a176.91,176.91,0,0,0,22.11,8.23c.78.23.87.48.55,1.22-3,6.9-4.83,14-4.58,21.63a80.21,80.21,0,0,1-1.77,17.08c-1.07,5.84-2.43,11.61-3.92,17.35C259.5,291.06,259.33,291.71,259.21,292.18Zm-2.73-.19a.56.56,0,0,0,.53.61c.65.06.68-.5.8-1,1.65-6.59,3.06-13.23,4.17-19.93a86.72,86.72,0,0,0,1.45-15c0-1-.25-2-.18-3a51.68,51.68,0,0,1,1.29-9.43,44,44,0,0,1,2.73-7.91c.73-1.55.63-1.74-1-2.23-1.27-.4-2.55-.74-3.82-1.15a210.16,210.16,0,0,1-26.65-10.85c-7.64-3.68-15.11-7.67-22.38-12.05-.52-.31-1.22-1.12-1.7-.31s.58,1.07,1.08,1.37c3.33,2,6.73,3.88,10.13,5.75a259.24,259.24,0,0,0,24,11.61,172.81,172.81,0,0,0,18.34,6.62c.62.18,1,.31.61,1.17A45.54,45.54,0,0,0,262,254.44c0,1.19.3,2.37.2,3.53-.26,3.13-.42,6.26-.86,9.38-.74,5.17-1.7,10.29-2.78,15.39C258,285.74,257.23,288.72,256.48,292Z" transform="translate(-5.32 -15)"/><path class="cls-7" d="M224,101.38a38.85,38.85,0,0,1,12.26,6.77,7.49,7.49,0,0,1,2.57,6c-.08,1.06-.1,2.12-.23,3.17-.42,3.38-.91,6.75-1,10.16a89.51,89.51,0,0,0,.66,12.57,13.68,13.68,0,0,1-1.39,7.54,30.68,30.68,0,0,1-9,8.07,2.34,2.34,0,0,0-.53-.21,24.35,24.35,0,0,1-9.87-3.18,29.22,29.22,0,0,0-18.63-3.7c-.41.05-.86.09-.83.62s.44.46.87.39a28.15,28.15,0,0,1,11.15.66c2.93.7,5.49,2.27,8.19,3.52a25.42,25.42,0,0,0,9.19,2.63q-.54,3.69-1.06,7.37l-2.47-1.2c-.75-.32-1.5-.67-2.27-1-5.61-2.09-11.49-2.91-17.4-3.51-5.44-.55-10.93-.64-16.4-.72-2.42,0-4.85.14-7.27.22-1.53,0-3.05.46-4.58.16a83.32,83.32,0,0,0,3.72-16c.25-2.19.48-4.39.58-6.59a157.23,157.23,0,0,0-.23-18.8,49.19,49.19,0,0,1-.2-10.15,19.81,19.81,0,0,1,1.84-6.79,11.19,11.19,0,0,1,5.06-5.3,11.72,11.72,0,0,1,3.93-1c4.79-.62,8.67.6,8.84,0,0,0,0-.13-.12-.26l5,.26a16.6,16.6,0,0,0,7.35,9.42c3.52,2.13,7.15,2.6,10.75,0C223,102.24,223.34,101.61,224,101.38Zm3.4,15.56c.31-1.34-.77-1.31-1.5-1.52-3.71-1.07-7.47-1.94-11.24-2.76a50.09,50.09,0,0,0-6.33-1.07c-.52,0-.88,0-.93.72-.19,2.23-.45,4.44-.69,6.66,0,.53,0,.88.7,1,1.08.11,2.15.36,3.23.54,5.25.89,10.49,1.9,15.7,3.08.8.18.84-.12.86-.74A34.67,34.67,0,0,1,227.39,116.94Zm-43.31,6.34c0,1.53-.13,3-.18,4.43-.1,3.46-.36,6.9-.74,10.34a69.19,69.19,0,0,1-3.35,15.27c-.15.41-.32.81-.43,1.22,0,.22,0,.5.24.59s.44-.12.53-.34c.32-.76.66-1.51.92-2.3,2.51-7.55,3.36-15.38,3.72-23.29.05-1,0-2,.13-3.06a51.47,51.47,0,0,0-.14-8.14c0-.21-.1-.4-.32-.43a.45.45,0,0,0-.53.37,3.09,3.09,0,0,0-.05,1.17A22.71,22.71,0,0,1,184.08,123.28Zm35.28-12.6a9.39,9.39,0,0,0,6.88-3.23c.3-.32.71-.71.36-1.11s-.73.12-1,.38-.71.73-1.09,1.07a7.69,7.69,0,0,1-4.58,1.9c-3.91.38-7.14-1.24-10.12-3.6a45.22,45.22,0,0,1-3.42-3.22c-.26-.25-.54-.75-1-.37s.1.61.28.89a13.76,13.76,0,0,0,3.24,3.22C211.81,108.86,214.89,110.68,219.36,110.68Z" transform="translate(-5.32 -15)"/><path class="cls-4" d="M350.87,315.59c5.1.82,10.21,1.66,14.74,4.37,1.79,1.06,1.74,2.54,0,3.67a27.2,27.2,0,0,1-8.58,3.11c-5.36,1.29-10.8,2.1-16.25,2.89-4.94.72-9.91,1.24-14.87,1.81-3.84.45-7.71.67-11.56,1q-8.06.72-16.13,1.21l-11.59.71c-4.73.27-9.45.5-14.18.72-3.79.17-7.59.31-11.38.47-4.73.2-9.47.31-14.2.48-6.42.22-12.85.28-19.27.49-5.14.18-10.27.05-15.4.2-16.6.46-33.19.21-49.79.13-5.25,0-10.51.06-15.75-.22-3.61-.19-7.22,0-10.82-.2-5.44-.24-10.88-.34-16.32-.5-4.19-.12-8.37-.33-12.56-.46-5.12-.16-10.24-.44-15.36-.69-4.17-.22-8.35-.45-12.53-.72-4.56-.29-9.12-.59-13.68-.94s-9.35-.71-14-1.2-9.47-1-14.2-1.57c-6.32-.77-12.61-1.68-18.85-2.92a51.05,51.05,0,0,1-9.91-2.86,6.32,6.32,0,0,1-2.61-1.77,1.46,1.46,0,0,1,.08-2.2c1.79-1.76,4.13-2.39,6.41-3.05A128.16,128.16,0,0,1,30.88,314c5-.68,10-1.32,15-1.86,3.84-.42,7.71-.67,11.56-1,3.42-.3,6.84-.61,10.27-.9a2.84,2.84,0,0,1,.58.05,4.81,4.81,0,0,1-.31,1.8c-5.27.41-10.55.73-15.82,1.24-7.79.76-15.58,1.56-23.29,3a35.8,35.8,0,0,0-8.91,2.5c-.69.34-1.49.71-1.48,1.66s.79,1.21,1.45,1.55a26.49,26.49,0,0,0,7,2.12,252.7,252.7,0,0,0,28.87,3.74c7.57.68,15.16,1.17,22.74,1.66,6.11.39,12.22.67,18.32.95s12.15.5,18.22.71q8,.29,16,.47c8.47.18,16.94.42,25.41.46,22.38.12,44.75.3,67.12-.14,3.6-.08,7.21-.09,10.82-.18,6.86-.17,13.73-.31,20.59-.52,4.23-.13,8.46-.3,12.69-.45,7.18-.25,14.34-.59,21.51-1q7.68-.4,15.37-.92c8.36-.56,16.72-1.24,25.05-2.16a181.35,181.35,0,0,0,19.27-2.92,23,23,0,0,0,5.47-1.77c.72-.36,1.62-.74,1.62-1.7s-.89-1.23-1.58-1.59a16.21,16.21,0,0,0-3.53-1.29Z" transform="translate(-5.32 -15)"/><path class="cls-8" d="M260,300.7a2.7,2.7,0,0,0,1.52,3.61,8.62,8.62,0,0,0,4.08.92c.91,0,1.21.29.7,1.18a8.13,8.13,0,0,0-.89,3.53c0,.46.06.91.64.93s.72-.38.73-.86a7,7,0,0,1,1.14-3.79c.3-.49.57-1,1.28-.59a.75.75,0,0,0,.85-.26c.33-.34.55-.08.84.14-.3.42-.77.34-1.14.47s-.89.3-.75.87.6.55,1,.45c.65-.14,1.3-.28,1.94-.48a.89.89,0,0,1,1.15.36c-.36.12-.64.23-.93.31s-.77.27-.68.78.59.57,1,.48c.65-.13,1.29-.31,1.94-.47.41-.11.83-.28,1.16.21-.29.39-.78.27-1.15.45a.66.66,0,0,0-.44.84.57.57,0,0,0,.74.41,11.9,11.9,0,0,0,2.82-.77c.38,0,.77.05.94.48a14,14,0,0,0-1.45.38.58.58,0,0,0-.38.76c.09.34.37.59.68.49,1-.33,2.25-.18,3.09-1.09.48.37,1.18-.11,1.61.44-.61.14-1.23.26-1.83.42-.42.1-.76.34-.62.83a.67.67,0,0,0,.92.49,11.31,11.31,0,0,0,2.8-.84c1.67.43,3.05,1.49,4.6,2.19.26.22.53.43.77.67,1.14,1.09,2.44,2.07,2.6,3.83H263.75c-2.15,0-4.31,0-6.47,0-.7,0-.9-.17-.66-.88a7.76,7.76,0,0,0,.47-2.53,12,12,0,0,0-5-9.92,5.2,5.2,0,0,0,.08-1.17c-.37-2.12.69-3.62,2.08-5,.13.37.48.48.78.65A8.73,8.73,0,0,0,260,300.7Z" transform="translate(-5.32 -15)"/><path class="cls-9" d="M223.14,172.87a86.33,86.33,0,0,1-10.67,0c-3-.17-5.92-.43-8.87-.78-8.7-1-17.19-2.81-25.22-6.44l.3-.94a3.83,3.83,0,0,0,.58-.07,80.44,80.44,0,0,1,16.2-2,113.73,113.73,0,0,1,14.65.46c2.55.26,5.11.53,7.66.84,2,.24,3.93.54,5.9.81,0,.58,0,1.17,0,1.75Q223.39,169.65,223.14,172.87Zm-17.39-6c.08.38-.24,1.08.42,1.24s1-.52,1.14-1a9,9,0,0,0,.53-2,.88.88,0,0,0-.54-1.06c-.47-.15-.69.21-.92.55A3.58,3.58,0,0,0,205.75,166.87Z" transform="translate(-5.32 -15)"/><path class="cls-4" d="M90.79,308.79c4.38-.18,8.76-.3,13.14-.54,4.06-.23,8.13-.33,12.19-.49,5.09-.2,10.18-.28,15.26-.5,3.41-.14,6.82,0,10.22-.21,4.59-.32,9.17-.1,13.75-.21,19.81-.5,39.61-.21,59.42-.14,4.58,0,9.17-.06,13.75.21,3.6.22,7.21,0,10.81.23,4.1.26,8.21.16,12.31.4a5,5,0,0,1-.42,1.93c-1.88-.07-3.76-.17-5.64-.21q-11.18-.25-22.35-.47c-7.18-.13-14.35-.11-21.53-.19q-16.3-.18-32.6.06c-11,.17-22,.22-32.94.49-8.19.21-16.38.42-24.57.71-6.39.22-12.77.45-19.15.79Z" transform="translate(-5.32 -15)"/><path class="cls-8" d="M90.79,308.79l1.65,1.86c.47,1.11.94,2.22,1.42,3.32a15.55,15.55,0,0,1,.55,3.52c-.22.29-.54.27-.86.27H70.26c-.62,0-1,0-.52-.82,2.18-3.88,1.4-7.71-.33-11.5A22.22,22.22,0,0,1,71,300.16a5.13,5.13,0,0,1,1-1.46c1.24-1.29,1.74-1.34,3.18-.33l1.65,1.14-1.2.81a6.16,6.16,0,0,0-2.16,2.29c-.23.45-.32.95.2,1.26s.87-.07,1.12-.5a6.12,6.12,0,0,1,3-2.5,1.19,1.19,0,0,1,1.41.06,1.56,1.56,0,0,0,1.47.19,3.87,3.87,0,0,1,3.82,1.21,5.38,5.38,0,0,1,1.76,2.38c.29.9,1.29,1.44,2,2.07S90,308.12,90.79,308.79Zm-8.15.52a21.06,21.06,0,0,0-4,.48c-.45.1-.83.37-.75.89a.77.77,0,0,0,1,.67,14.3,14.3,0,0,1,6-.17c.46.08.9,0,1-.57a.75.75,0,0,0-.71-.9C84.3,309.55,83.34,309.42,82.64,309.31Zm-.56-2.07a12.22,12.22,0,0,1,2.33.21c.57.16,1.06,0,1.18-.6s-.32-.83-.83-.93a14.94,14.94,0,0,0-6.28.09c-.51.12-1.06.32-.91,1s.73.64,1.24.53A14.8,14.8,0,0,1,82.08,307.24Zm1.34-2.19c.5.08.9-.05,1-.56s-.2-.86-.74-1a15.25,15.25,0,0,0-6.52.1.8.8,0,0,0-.71,1c.14.55.6.61,1,.51A12.88,12.88,0,0,1,83.42,305.05Z" transform="translate(-5.32 -15)"/><path class="cls-10" d="M223.67,164.67c-2-.27-3.93-.57-5.9-.81-2.55-.31-5.11-.58-7.66-.84a113.73,113.73,0,0,0-14.65-.46,80.44,80.44,0,0,0-16.2,2,3.83,3.83,0,0,1-.58.07c0-1,.76-1.8.45-2.81.36-.19.42-.51.51-.87.27-1.15.6-2.28.91-3.41,2.42-.08,4.85-.25,7.27-.22,5.47.08,11,.17,16.4.72,5.91.6,11.79,1.42,17.4,3.51.77.29,1.52.64,2.27,1C223.77,163.25,224.11,164,223.67,164.67Z" transform="translate(-5.32 -15)"/><path class="cls-6" d="M252.08,305.14a12,12,0,0,1,5,9.92,7.76,7.76,0,0,1-.47,2.53c-.24.71,0,.89.66.88,2.16,0,4.32,0,6.47,0h27.54c.49,1.74.07,2.34-1.66,2.34H252.7c-1.93,0-2.22-.33-2.16-2.38,1.32,0,2.65,0,4,0a1,1,0,0,0,1.17-.86,9.37,9.37,0,0,0,.21-5.09,10.13,10.13,0,0,0-4-6.15A2,2,0,0,1,252.08,305.14Z" transform="translate(-5.32 -15)"/><path class="cls-6" d="M69.41,305.44c1.73,3.79,2.51,7.62.33,11.5-.46.84-.1.82.52.82H93.55c.32,0,.64,0,.86-.27.29.39.17.83.17,1.26,0,1.83,0,1.83-1.76,1.83H70.48c-3,0-3.19-.18-2.91-3.33.46,0,.66-.35.88-.68,1.82-2.83,1.42-5.79.48-8.77A6.58,6.58,0,0,1,69.41,305.44Z" transform="translate(-5.32 -15)"/><path class="cls-11" d="M78.61,285.32l8.28,6.62c-1.66-.45-2.79.28-3.77,1.58a30.91,30.91,0,0,0-2,3.42l-1.84,0c-1-1.55-1.59-3.33-3.09-4.51-.4-.32-.15-.72,0-1.08Z" transform="translate(-5.32 -15)"/><path class="cls-8" d="M251.94,306.37a10.13,10.13,0,0,1,4,6.15,9.37,9.37,0,0,1-.21,5.09,1,1,0,0,1-1.17.86c-1.33-.05-2.66,0-4,0a32,32,0,0,1,.21-5.18l.12-.27,0-.41a23.1,23.1,0,0,0,.33-3.11,5,5,0,0,0,.42-1.93Z" transform="translate(-5.32 -15)"/><path class="cls-9" d="M260,300.7a8.73,8.73,0,0,1-4.93-1.06c-.3-.17-.65-.28-.78-.65,0-1.45.63-2.79.8-4.21a92.64,92.64,0,0,1,9.66,1.6c-.15.92-.32,1.84-.47,2.77-.07.49-.32.69-.8.53A3.2,3.2,0,0,0,260,300.7Z" transform="translate(-5.32 -15)"/><path class="cls-12" d="M180.55,157.58c-.31,1.13-.64,2.26-.91,3.41-.09.36-.15.68-.51.87a5.17,5.17,0,0,1-2.75-1.46,2,2,0,0,1-.41-2.66C177.5,158,179,157.54,180.55,157.58Z" transform="translate(-5.32 -15)"/><path class="cls-11" d="M88,292.87a9,9,0,0,1,2.25,1.69c-1.38,2.09-3.15,3.86-4.69,5.83-.26.33-.56.42-.85,0a1.67,1.67,0,0,0-.53-1.25c.77-.59,1.55-1.15,2.29-1.78C87.85,296.19,88.65,294.78,88,292.87Z" transform="translate(-5.32 -15)"/><path class="cls-8" d="M68.93,307.8c.94,3,1.34,5.94-.48,8.77-.22.33-.42.67-.88.68,0-.69.07-1.39.11-2.08.1-1,.19-2.07.29-3.11a4.81,4.81,0,0,0,.31-1.8C68.5,309.44,68.71,308.62,68.93,307.8Z" transform="translate(-5.32 -15)"/><path class="cls-11" d="M82.25,298.47a13.44,13.44,0,0,1,2.57-4.61c.42-.47.93-.79,1.52-.28a1.09,1.09,0,0,1,0,1.66A15,15,0,0,1,82.25,298.47Z" transform="translate(-5.32 -15)"/><path class="cls-11" d="M75.94,296.92c-1.52-.86-1.66-1.27-1-2.63.29-.58.57-.6.91-.12a8.82,8.82,0,0,1,1.54,2.72Z" transform="translate(-5.32 -15)"/><path class="cls-6" d="M79.27,296.9l1.84,0c-.21.55-.17,1.46-.87,1.47S79.46,297.51,79.27,296.9Z" transform="translate(-5.32 -15)"/><path class="cls-6" d="M75.94,296.92l1.46,0a2.45,2.45,0,0,1,.55,1.34A5.61,5.61,0,0,1,75.94,296.92Z" transform="translate(-5.32 -15)"/><path class="cls-6" d="M84.16,299.15a1.67,1.67,0,0,1,.53,1.25l-1.34-.65C83.51,299.33,83.88,299.3,84.16,299.15Z" transform="translate(-5.32 -15)"/><path class="cls-11" d="M87.65,292.62a.35.35,0,0,1,.34.26Z" transform="translate(-5.32 -15)"/><path class="cls-9" d="M236.83,147.58a13.68,13.68,0,0,0,1.39-7.54,89.51,89.51,0,0,1-.66-12.57c.12-3.41.61-6.78,1-10.16.13-1,.15-2.11.23-3.17,5.24,10.8,10.43,21.63,15.34,32.6,1.22,2.73,2.43,5.47,3.43,8.29,1.3,3.72.41,7.23-1.11,10.64-2.53,5.71-6.26,10.63-10,15.53-2.26,2.93-4.58,5.8-7.07,8.54-.53.58-.34.82.24,1.11,1.12.57,2.22,1.18,3.33,1.77a4.49,4.49,0,0,1,1.67,1.45l.23.23h0c.36,2-.55,3.43-1.81,4.74-.56.59-1.24,1.18-2.15.83s-.8-1.25-.75-2,.17-1.55.17-2.38a13.71,13.71,0,0,1-2.59,3.35c-.41.35-.79.92-1.39.65s-.61-1-.61-1.55a17.24,17.24,0,0,1,.67-3.33,3.57,3.57,0,0,0,0-.47c.13-.09.23-.27.1-.33s-.14.16-.18.26c-.9,1.19-1.51,2.58-2.49,3.72-.51.58-1,1.14-1.88.85s-.82-1.13-.81-1.88a8.26,8.26,0,0,1,1.11-3.34,7.89,7.89,0,0,0,1-3.5c-.7,1.23-1.43,2.45-2.11,3.71a6.51,6.51,0,0,1-1.72,2.07c-1,.77-2,.31-2.08-.93a13.2,13.2,0,0,1,1.21-5.84c.34-.9.2-1.36-.68-1.73-1.11-.47-2.17-1-3.32-1.62.72-.72,1.65-.72,2.36-1.16a2,2,0,0,0,2-1c2.26-3.21,4.53-6.42,6.64-9.73,2.82-4.44,5.65-8.88,7.36-13.92a2,2,0,0,0,.35,0,22.82,22.82,0,0,1,6.65-1.2c.25,0,.49-.08.44-.4s-.33-.28-.56-.3a15,15,0,0,0-4.31.49c.55-.8,1.3-1,1.84-1.51.27-.23.9-.31.57-.83s-.68,0-1,.2c-.44.25-.82.61-1.26.86-1.06.6-1.64,1.82-2.85,2.23Z" transform="translate(-5.32 -15)"/><path class="cls-13" d="M185.76,79.33c-2.15-5-1.67-9.06,0-9.89,1.37-.67,3.81.75,5.89,3A22.21,22.21,0,0,0,195.4,71c.44-.22.85-.46,1.41-.78a8.15,8.15,0,0,0,4.08-5.76,31,31,0,0,0,.37-6.23,43.93,43.93,0,0,1,.43-8.95c.51-1.13,3.78-8.18,11.56-10.46,4.82-1.41,10.89-.87,14.53,2.27a13,13,0,0,1,3.59,5.14,10.59,10.59,0,0,1,.54,2.87,16.32,16.32,0,0,0-6.19,0c-5.37,1-9.67,3.52-12,8.73-.15.33-.58.76-.13,1s.59-.35.79-.61c2.43-3.05,5-5.8,9-6.93A19.52,19.52,0,0,1,232,51l3.41,1.26c-7.33.57-11.83,4.93-15.59,10.35-.65.94-1.22,1.92-1.83,2.88a9.05,9.05,0,0,0-2.58-.48,1,1,0,0,0-1,.11,6.07,6.07,0,0,0-4.49,2.7,10.12,10.12,0,0,0-1.12,10.08A16.77,16.77,0,0,1,205,80.34a26,26,0,0,1-9.43,2.11,13,13,0,0,1-6.87-1.15A12.14,12.14,0,0,1,185.76,79.33Z" transform="translate(-5.32 -15)"/><path class="cls-9" d="M237,80.94a6.5,6.5,0,0,0,2.67,5.91,28.9,28.9,0,0,1-3,5c-.52.75-1.4,1.24-1.64,2.2a31.73,31.73,0,0,1-3.4.8,13.12,13.12,0,0,1-5.8-1.22,33.26,33.26,0,0,1-9.79-9,.91.91,0,0,0,0,.85,21.19,21.19,0,0,0,3.32,6.33A54,54,0,0,0,224,96.9l-1.71,3.56c-.65,1.15-1.16,2.44-2.76,2.55a10.94,10.94,0,0,1-3.38-.06c-4.51-1.12-7.38-4.32-9.91-8-.36-.51,0-.79.24-1.13a33.13,33.13,0,0,0,4.47-5.74,19.48,19.48,0,0,0,2.84-5.65c.33-.2.11-.9.74-.83,1.88.47,3-.73,4.12-1.91a13.9,13.9,0,0,0,3-5.94,9.12,9.12,0,0,0,2.55-3.66l1.13.82a.87.87,0,0,1,.25,1.31,6,6,0,0,0,2.65,8,5.9,5.9,0,0,0,7.85-2.8c.48-.9.51-.9,1.27-.23-.5.12-.65.48-.71,1-.1.78-.31,1.54-.38,2.32s-.38.93-.94.33a3.81,3.81,0,0,0-.48-.5.5.5,0,0,0-.43,0,.36.36,0,0,0-.14.51,3.15,3.15,0,0,0,.5.64c.48.46,1,1,1.7.89S236.66,81.37,237,80.94Zm-4,2.74a2.62,2.62,0,0,0-2.29,2.67c0,1.12.63,1.79,1.6,1.77a2.68,2.68,0,0,0,2.34-2.64A1.77,1.77,0,0,0,233,83.68Z" transform="translate(-5.32 -15)"/><path class="cls-13" d="M224.57,69.44a11.35,11.35,0,0,0-2.31-1,10.76,10.76,0,0,0-3.08-2.41c3-5.5,6.82-10.2,13.1-12.15a12,12,0,0,1,4.66-.35,3.36,3.36,0,0,1,1.56.46c5,3.2,8.85,7.26,10.16,13.3a15.41,15.41,0,0,1,.19,7.24,8.66,8.66,0,0,1-.62,1.52c-.14.28-.49.69-.67.59-.82-.49-1.87.24-2.61-.55.13-.58.28-1.15.37-1.73a4,4,0,0,0,.12-1.71c-.95,1.19-1.67,1.31-2.83.47a9.39,9.39,0,0,1-2.42-2.86c-.47-.78-.89-1.58-1.43-2.55,0,2.25-.49,2.78-2,2.35a5.07,5.07,0,0,1-1.64-.9,15.3,15.3,0,0,1-2.61-2.54c-.94-1.17-1.86-2.37-2.84-3.62,0,.88,0,1.65,0,2.42-.06.94-.06,2-1.09,2.44s-1.8-.43-2.48-1.15a.82.82,0,0,0-.21-.11Z" transform="translate(-5.32 -15)"/><path class="cls-14" d="M219.18,66.08a10.76,10.76,0,0,1,3.08,2.41v.72l-.66,4.59a13.9,13.9,0,0,1-3,5.94c-1.08,1.18-2.24,2.38-4.12,1.91l-1.65-.38a7.56,7.56,0,0,1-3.1-2.32c.11-.16.21-.33.33-.48A20.77,20.77,0,0,0,215.44,65a9.05,9.05,0,0,1,2.58.48c0,.31-.43.64.17.93S218.93,66.42,219.18,66.08Z" transform="translate(-5.32 -15)"/><path class="cls-4" d="M336.48,313.26c0,.54,0,1.09,0,1.64-5.4-.67-10.8-1.25-16.23-1.73q-10.82-1-21.67-1.61c-3.36-.2-6.72-.46-10.08-.64-1.81-.09-3.63-.06-5.44-.08l-1,0c-.43-.55-1.13-.07-1.61-.44-.32-1.37-1.22-.62-1.94-.54-.17-.43-.56-.45-.94-.48,0-.58.34-.7.86-.69,4.22.07,8.44.35,12.65.68,1.52.13,3,.12,4.57.25,4.05.34,8.12.47,12.17.78q8.06.63,16.1,1.42C328.11,312.27,332.29,312.79,336.48,313.26Z" transform="translate(-5.32 -15)"/><path class="cls-11" d="M224.57,69.44l1.27-2.79a.82.82,0,0,1,.21.11c.68.72,1.37,1.6,2.48,1.15s1-1.5,1.09-2.44c0-.77,0-1.54,0-2.42,1,1.25,1.9,2.45,2.84,3.62a15.3,15.3,0,0,0,2.61,2.54,5.07,5.07,0,0,0,1.64.9c1.55.43,2.05-.1,2-2.35.54,1,1,1.77,1.43,2.55a9.39,9.39,0,0,0,2.42,2.86c1.16.84,1.88.72,2.83-.47a4,4,0,0,1-.12,1.71c-.09.58-.24,1.15-.37,1.73-.34-.14-.77,0-1-.3A6.61,6.61,0,0,0,242,73.93c-.53-.38-1.15-.48-1.56.11a1.06,1.06,0,0,0,.3,1.55c.19.14.37.29.55.44-.21.08-.49.1-.64.25-1.27,1.21-2.43.51-3.63-.14a.65.65,0,0,1-.43-.72,8.49,8.49,0,0,0-.52-3.08c.73-1,.63-1.52-.4-2a3.68,3.68,0,0,0-1.76-.45c-2.49-1.21-4.89-1.26-7.11.65a.58.58,0,0,1-.91,0C225.47,70.19,225,69.82,224.57,69.44Z" transform="translate(-5.32 -15)"/><path class="cls-9" d="M225.77,76.05a5.06,5.06,0,0,1,3.76-6.14,3.39,3.39,0,0,1,2.18,0c-.57.43-1.29.72-1.47,1.72a3.59,3.59,0,0,1,2.67-.09l2.07.72,0,0c.07.07.14.13.2.2A5,5,0,0,1,230.22,80c.23-.54.65-1,.07-1.66A6.42,6.42,0,0,0,225.77,76.05Zm4.46.2c0,.48.09.89.66.91s1.66-1.27,1.66-2.19c0-.45-.11-.87-.7-.88S230.22,75.27,230.23,76.25Z" transform="translate(-5.32 -15)"/><path class="cls-8" d="M232,51a19.52,19.52,0,0,0-8.7.28c-3.92,1.13-6.54,3.88-9,6.93-.2.26-.28.93-.79.61s0-.7.13-1c2.35-5.21,6.65-7.73,12-8.73a16.32,16.32,0,0,1,6.19,0A3.36,3.36,0,0,1,232,51Z" transform="translate(-5.32 -15)"/><path class="cls-13" d="M224,96.9a54,54,0,0,1-4.64-5.16A21.19,21.19,0,0,1,216,85.41a.91.91,0,0,1,0-.85,33.26,33.26,0,0,0,9.79,9C225.15,94.7,224.85,96,224,96.9Z" transform="translate(-5.32 -15)"/><path class="cls-12" d="M206.43,93.87c-.23.34-.6.62-.24,1.13,2.53,3.63,5.4,6.83,9.91,8a10.94,10.94,0,0,0,3.38.06c1.6-.11,2.11-1.4,2.76-2.55.56.36,1.28.4,1.75.92-.65.23-1,.86-1.54,1.24-3.6,2.56-7.23,2.09-10.75,0a16.6,16.6,0,0,1-7.35-9.42C205.12,93.16,205.72,93.69,206.43,93.87Z" transform="translate(-5.32 -15)"/><path class="cls-11" d="M243.28,81.6c.11.78-1,.44-1,1.08l-.94,1.44a4.06,4.06,0,0,0-3.15-.47c-1.33-2.42.19-5.93,3-6.83.36-.11.75-.16,1.13-.24.15.17.28.36.44.53.95,1,1.53,2,.61,3.39A1,1,0,0,0,243.28,81.6Zm-2.67-2.1c0-.47-.08-.87-.68-.87s-1.66,1.22-1.65,2.15c0,.47.15.88.69.91C239.66,81.72,240.6,80.44,240.61,79.5Z" transform="translate(-5.32 -15)"/><path class="cls-14" d="M235,94c.24-1,1.12-1.45,1.64-2.2a28.9,28.9,0,0,0,3-5l1.67.65a9.89,9.89,0,0,1-1.52,2.73c-.81,1.32-2.11,2.26-2.79,3.68A5.88,5.88,0,0,1,235,94Z" transform="translate(-5.32 -15)"/><path class="cls-8" d="M266.91,303.89c-1.75-.12-3.46-.06-5-1-.42-.26-.91-.6-.72-1.2a1.2,1.2,0,0,1,1.24-.73A6.33,6.33,0,0,1,266.91,303.89Z" transform="translate(-5.32 -15)"/><path class="cls-10" d="M225.77,76.05a6.42,6.42,0,0,1,4.52,2.31c.58.62.16,1.12-.07,1.66A4.69,4.69,0,0,1,225.77,76.05Z" transform="translate(-5.32 -15)"/><path class="cls-8" d="M237,93.91c.68-1.42,2-2.36,2.79-3.68a9.89,9.89,0,0,0,1.52-2.73l1.15.19a21.24,21.24,0,0,1-2.13,3.5c-.37.51-1,.91-.93,1.69h0a.4.4,0,0,0-.46.26h0l-.25.18A3.18,3.18,0,0,1,237,93.91Z" transform="translate(-5.32 -15)"/><path class="cls-15" d="M243.28,81.6a1,1,0,0,1,0-1.1c.92-1.34.34-2.39-.61-3.39-.16-.17-.29-.36-.44-.53a5.13,5.13,0,0,1,2.93.53c.46.17.57.45.3.9A22.83,22.83,0,0,1,243.28,81.6Z" transform="translate(-5.32 -15)"/><path class="cls-14" d="M239.43,92.88c-.09-.78.56-1.18.93-1.69a21.24,21.24,0,0,0,2.13-3.5h1.36A9.56,9.56,0,0,1,239.43,92.88Z" transform="translate(-5.32 -15)"/><path class="cls-15" d="M237,80.94c-.34.43.1,1.29-.58,1.41s-1.22-.43-1.7-.89a3.15,3.15,0,0,1-.5-.64.36.36,0,0,1,.14-.51.5.5,0,0,1,.43,0,3.81,3.81,0,0,1,.48.5c.56.6.85.55.94-.33s.28-1.54.38-2.32c.06-.47.21-.83.71-1h0c.37.41,0,.91.18,1.36v0c-.28.22-.17.52-.17.79Z" transform="translate(-5.32 -15)"/><path class="cls-14" d="M241.32,84.12l.94-1.44,1.22.67c-.5,1.15-1,2.3-1.51,3.46a2.69,2.69,0,0,1-1.59-.58C240.43,85.41,241.26,84.94,241.32,84.12Z" transform="translate(-5.32 -15)"/><path class="cls-13" d="M221.6,73.8l.66-4.59a5.22,5.22,0,0,1,1.89.93A9.12,9.12,0,0,1,221.6,73.8Z" transform="translate(-5.32 -15)"/><path class="cls-13" d="M241.3,76c-.18-.15-.36-.3-.55-.44a1.06,1.06,0,0,1-.3-1.55c.41-.59,1-.49,1.56-.11a6.61,6.61,0,0,1,1.89,1.91A9.11,9.11,0,0,0,241.3,76Z" transform="translate(-5.32 -15)"/><path class="cls-13" d="M235,72.27l-2.07-.72a3.59,3.59,0,0,0-2.67.09c.18-1,.9-1.29,1.47-1.72A4.05,4.05,0,0,1,235,72.27Z" transform="translate(-5.32 -15)"/><path class="cls-10" d="M241.32,84.12c-.06.82-.89,1.29-.94,2.11a3.86,3.86,0,0,1-2.21-2.58A4.06,4.06,0,0,1,241.32,84.12Z" transform="translate(-5.32 -15)"/><path class="cls-8" d="M242,86.81c.5-1.16,1-2.31,1.51-3.46a.84.84,0,0,1,.72.47,13.66,13.66,0,0,1-1.24,3.1A1.41,1.41,0,0,1,242,86.81Z" transform="translate(-5.32 -15)"/><path class="cls-15" d="M233.92,69.94a3.68,3.68,0,0,1,1.76.45c1,.43,1.13,1,.4,2A10.74,10.74,0,0,0,233.92,69.94Z" transform="translate(-5.32 -15)"/><path class="cls-14" d="M243,86.92a13.66,13.66,0,0,0,1.24-3.1,4.16,4.16,0,0,1,.16,1.82C244.36,86.58,244,87.1,243,86.92Z" transform="translate(-5.32 -15)"/><path class="cls-9" d="M237.48,78.61c-.13-.45.19-1-.18-1.36.57-.15.84.23.87.67S238.05,78.72,237.48,78.61Z" transform="translate(-5.32 -15)"/><path class="cls-9" d="M237.32,79.43c0-.27-.11-.57.17-.79C237.69,79,237.54,79.2,237.32,79.43Z" transform="translate(-5.32 -15)"/><path class="cls-16" d="M239,93.14a.4.4,0,0,1,.46-.26A.47.47,0,0,1,239,93.14Z" transform="translate(-5.32 -15)"/><path class="cls-16" d="M238.73,93.31l.25-.18Z" transform="translate(-5.32 -15)"/><path class="cls-17" d="M244.85,194.3l-.23-.23Z" transform="translate(-5.32 -15)"/><path class="cls-13" d="M235.13,72.45c-.06-.07-.13-.13-.2-.2C235.1,72.21,235.1,72.34,235.13,72.45Z" transform="translate(-5.32 -15)"/><path class="cls-8" d="M82.54,286.4c-.58-.27-.54-.73-.28-1.17.74-1.3,1.48-2.59,2.28-3.86a230.45,230.45,0,0,1,16.14-22.75,171.42,171.42,0,0,1,14.22-15.41c3.08-3,6.47-5.57,9.72-8.35a38.34,38.34,0,0,0,5.16-5.78c5.68-7.23,10.87-14.82,15.87-22.54,3.23-5,6.17-10.13,9.12-15.28a41.68,41.68,0,0,1,8.38-10,82,82,0,0,1,10.58-8.2c.58-.38,1.35-1.39,2-.46s-.7,1-1.22,1.38a78.34,78.34,0,0,0-14.21,11.93,38.76,38.76,0,0,0-5.58,7.86,247.23,247.23,0,0,1-13.73,22c-3.87,5.68-7.93,11.21-12.24,16.57a51.21,51.21,0,0,1-7.39,6.88,120.56,120.56,0,0,0-12,11.32c-2.51,2.76-5,5.53-7.38,8.41-3,3.57-5.72,7.27-8.42,11-3.56,5-6.83,10.09-10,15.3C83.32,285.73,83.16,286.28,82.54,286.4Z" transform="translate(-5.32 -15)"/><path class="cls-8" d="M84.29,288.76a.71.71,0,0,1-.61-.39c-.23-.33,0-.6.17-.86.84-1.42,1.69-2.84,2.57-4.23a228.35,228.35,0,0,1,16.18-22.74A164.66,164.66,0,0,1,117.09,245c2.61-2.48,5.42-4.75,8.23-7a38.29,38.29,0,0,0,5.84-6.29c4.91-6.19,9.4-12.69,13.77-19.26,4.15-6.26,8-12.73,11.7-19.25A41.72,41.72,0,0,1,165.44,183a87.2,87.2,0,0,1,10.08-7.7c.2-.13.41-.25.6-.39.41-.3.89-.51,1.23,0s-.22.81-.59,1.05a74.38,74.38,0,0,0-14.83,12.29,39.54,39.54,0,0,0-5.77,8.15,253.67,253.67,0,0,1-13.71,21.88c-2.87,4.22-5.87,8.36-9,12.42a59.17,59.17,0,0,1-10.34,10.7A110.72,110.72,0,0,0,110,253.92a193.84,193.84,0,0,0-12.7,15.46c-4.23,5.76-8.21,11.71-11.86,17.87C85.14,287.81,84.9,288.46,84.29,288.76Z" transform="translate(-5.32 -15)"/><path class="cls-8" d="M259.21,292.18c.12-.47.29-1.12.46-1.76,1.49-5.74,2.85-11.51,3.92-17.35A80.21,80.21,0,0,0,265.36,256c-.25-7.58,1.61-14.73,4.58-21.63.32-.74.23-1-.55-1.22a176.91,176.91,0,0,1-22.11-8.23c-5.28-2.31-10.5-4.76-15.62-7.41-5.68-2.95-11.3-6-16.8-9.27-.13-.08-.25-.19-.38-.27-.38-.22-.63-.51-.41-1s.66-.26,1-.08q1.91,1.07,3.78,2.16,12.14,7,24.87,12.87A207.49,207.49,0,0,0,267,231.14c1.23.39,2.46.77,3.71,1.08.94.24,1.23.66.81,1.6a56.4,56.4,0,0,0-3.29,9.21,53.64,53.64,0,0,0-1.52,8.92c-.12,1.66,0,3.29,0,4.93a80.26,80.26,0,0,1-1.07,11.36,230.62,230.62,0,0,1-5,23.25,9.11,9.11,0,0,1-.3,1.14c-.12.33-.32.7-.74.61S259.21,292.72,259.21,292.18Z" transform="translate(-5.32 -15)"/><path class="cls-8" d="M256.48,292c.75-3.27,1.47-6.25,2.11-9.25,1.08-5.1,2-10.22,2.78-15.39.44-3.12.6-6.25.86-9.38.1-1.16-.21-2.34-.2-3.53A45.54,45.54,0,0,1,266,236.25c.38-.86,0-1-.61-1.17A172.81,172.81,0,0,1,247,228.46a259.24,259.24,0,0,1-24-11.61c-3.4-1.87-6.8-3.76-10.13-5.75-.5-.3-1.57-.55-1.08-1.37s1.18,0,1.7.31c7.27,4.38,14.74,8.37,22.38,12.05a210.16,210.16,0,0,0,26.65,10.85c1.27.41,2.55.75,3.82,1.15,1.59.49,1.69.68,1,2.23a44,44,0,0,0-2.73,7.91,51.68,51.68,0,0,0-1.29,9.43c-.07,1,.17,2,.18,3a86.72,86.72,0,0,1-1.45,15c-1.11,6.7-2.52,13.34-4.17,19.93-.12.46-.15,1-.8,1A.56.56,0,0,1,256.48,292Z" transform="translate(-5.32 -15)"/><path class="cls-12" d="M227.39,116.88a34.64,34.64,0,0,0-.17,5.86c0,.62-.05.91-.86.74-5.21-1.15-10.45-2.12-15.72-3-1.07-.18-2.14-.41-3.22-.52-.68-.06-.76-.41-.71-.94.22-2.22.47-4.44.64-6.66.06-.69.41-.77.93-.73a48.68,48.68,0,0,1,6.34,1c3.77.79,7.54,1.64,11.26,2.68C226.61,115.57,227.69,115.53,227.39,116.88Z" transform="translate(-5.32 -15)"/><path class="cls-12" d="M184.08,123.28a22.71,22.71,0,0,0-.2-4.17,3.09,3.09,0,0,1,.05-1.17.45.45,0,0,1,.53-.37c.22,0,.31.22.32.43a51.47,51.47,0,0,1,.14,8.14c-.12,1-.08,2-.13,3.06-.36,7.91-1.21,15.74-3.72,23.29-.26.79-.6,1.54-.92,2.3-.09.22-.23.44-.53.34s-.29-.37-.24-.59c.11-.41.28-.81.43-1.22a69.19,69.19,0,0,0,3.35-15.27c.38-3.44.64-6.88.74-10.34C184,126.26,184.05,124.81,184.08,123.28Z" transform="translate(-5.32 -15)"/><path class="cls-12" d="M227.88,155.65l-.46.73a25.42,25.42,0,0,1-9.19-2.63c-2.7-1.25-5.26-2.82-8.19-3.52a28.15,28.15,0,0,0-11.15-.66c-.43.07-.83.18-.87-.39s.42-.57.83-.62a29.22,29.22,0,0,1,18.63,3.7,24.35,24.35,0,0,0,9.87,3.18A2.34,2.34,0,0,1,227.88,155.65Z" transform="translate(-5.32 -15)"/><path class="cls-12" d="M219.36,110.68c-4.47,0-7.55-1.82-10.42-4.07a13.76,13.76,0,0,1-3.24-3.22c-.18-.28-.64-.55-.28-.89s.69.12,1,.37a45.22,45.22,0,0,0,3.42,3.22c3,2.36,6.21,4,10.12,3.6a7.69,7.69,0,0,0,4.58-1.9c.38-.34.71-.74,1.09-1.07s.57-.88,1-.38-.06.79-.36,1.11A9.39,9.39,0,0,1,219.36,110.68Z" transform="translate(-5.32 -15)"/><path class="cls-12" d="M226.36,163.75a2.81,2.81,0,0,1-2.7,2.67c0-.58,0-1.17,0-1.75.44-.67.1-1.42.22-2.12Z" transform="translate(-5.32 -15)"/><path class="cls-7" d="M288.48,310.92c4.86-.42,8.53.55,10.08.64q10.85.63,21.67,1.61c.69.06,5.25.54,14.37,1.5l1.86.23c1.75.25,3,.52,3.48.6,3.67.65,7.31,1.32,10.89,2a16.21,16.21,0,0,1,3.53,1.29c.69.36,1.57.69,1.58,1.59s-.9,1.34-1.62,1.7a23,23,0,0,1-5.47,1.77,181.35,181.35,0,0,1-19.27,2.92c-8.33.92-16.69,1.6-25.05,2.16q-7.68.51-15.37.92c-7.17.39-14.33.73-21.51,1-4.23.15-8.46.32-12.69.45-6.86.21-13.73.35-20.59.52-3.61.09-7.22.1-10.82.18-22.37.44-44.74.26-67.12.14-8.47,0-16.94-.28-25.41-.46q-8-.18-16-.47c-6.07-.21-12.14-.43-18.22-.71s-12.21-.56-18.32-.95c-7.58-.49-15.17-1-22.74-1.66a252.7,252.7,0,0,1-28.87-3.74A26.49,26.49,0,0,1,19.92,322c-.66-.34-1.44-.65-1.45-1.55s.79-1.32,1.48-1.66a35.8,35.8,0,0,1,8.91-2.5c7.71-1.46,15.5-2.26,23.29-3,5.27-.51,10.55-.83,15.82-1.24-.1,1-.19,2.07-.29,3.11a20.34,20.34,0,0,0-2.59,0c-4.37.55-8.77.78-13.11,1.61a26,26,0,0,0-4,1,1.23,1.23,0,0,0-.89.86c-.08.5.45.59.8.72a10.92,10.92,0,0,0,1.68.53c6.26,1.45,12.65,1.8,19,2.35,4.59.41,9.19.7,13.79.94,3.24.16,6.48.33,9.72.46,3.87.16,7.73.34,11.6.48,4.93.19,9.86.23,14.79.49,3.2.17,6.41,0,9.63.21,3.86.28,7.75,0,11.63.23,5.83.27,11.68.21,17.52.23,21.66.05,43.32.31,65-.17,4-.09,8.06,0,12.1-.18,4.89-.23,9.8,0,14.69-.29,2.11-.11,4.23-.12,6.34-.18,5.51-.13,11-.36,16.55-.53,3.16-.09,6.32-.35,9.48-.43,5.16-.14,10.31-.54,15.46-.77,2.54-.12,5.08-.24,7.6-.51,4.35-.45,8.71-.73,13-1.38a42.36,42.36,0,0,0,6.41-1.31c.47-.15,1.2-.27,1.17-1s-.68-.68-1.14-.84a31.85,31.85,0,0,0-5.72-1.23c-4.13-.63-8.28-1-12.44-1.34-2.45-.2-4.91-.35-7.36-.53-3.5-.25-7-.45-10.52-.64-1.55-.7-2.93-1.76-4.6-2.19A33.26,33.26,0,0,1,288.48,310.92Z" transform="translate(-5.32 -15)"/><path class="cls-12" d="M287.92,314c3.51.19,7,.39,10.52.64,2.45.18,4.91.33,7.36.53,4.16.33,8.31.71,12.44,1.34a32,32,0,0,1,5.72,1.23c.46.16,1.12.21,1.14.84s-.7.82-1.17,1a42.36,42.36,0,0,1-6.41,1.31c-4.32.65-8.68.93-13,1.38-2.52.27-5.06.39-7.6.51-5.15.23-10.3.63-15.46.77-3.16.08-6.32.34-9.48.43-5.52.17-11,.4-16.55.53-2.11.06-4.23.07-6.34.18-4.89.25-9.8.06-14.69.29-4,.2-8.07.09-12.1.18-21.66.48-43.32.22-65,.17-5.84,0-11.69,0-17.52-.23-3.88-.19-7.77,0-11.63-.23-3.22-.23-6.43,0-9.63-.21-4.93-.26-9.86-.3-14.79-.49-3.87-.14-7.73-.32-11.6-.48-3.24-.13-6.48-.3-9.72-.46-4.6-.24-9.2-.53-13.79-.94-6.37-.55-12.76-.9-19-2.35a10.92,10.92,0,0,1-1.68-.53c-.35-.13-.88-.22-.8-.72a1.23,1.23,0,0,1,.89-.86,26,26,0,0,1,4-1c4.34-.83,8.74-1.06,13.11-1.61a20.34,20.34,0,0,1,2.59,0c0,.69-.08,1.39-.11,2.08-.28,3.15-.13,3.33,2.91,3.33H92.82c1.77,0,1.78,0,1.76-1.83,0-.43.12-.87-.17-1.26a15.55,15.55,0,0,0-.55-3.52c.06-.48.42-.45.78-.49,3.23-.35,6.48-.27,9.72-.41,5-.22,9.93-.26,14.89-.51,3.24-.17,6.49,0,9.74-.21,4-.29,8.06,0,12.1-.23,5.55-.31,11.12-.2,16.68-.22,19.53,0,39-.32,58.58.13,7.09.16,14.18,0,21.27.26,4.34.15,8.69.18,13,.26l.23,0c0,.14,0,.28,0,.41s-.09.18-.13.27a32,32,0,0,0-.21,5.18c-.06,2.05.23,2.38,2.16,2.38h36.93c1.73,0,2.15-.6,1.66-2.34-.16-1.76-1.46-2.74-2.6-3.83C288.45,314.4,288.18,314.19,287.92,314Z" transform="translate(-5.32 -15)"/><path class="cls-10" d="M205.75,166.87a3.58,3.58,0,0,1,.63-2.31c.23-.34.45-.7.92-.55a.88.88,0,0,1,.54,1.06,9,9,0,0,1-.53,2c-.19.48-.49,1.14-1.14,1S205.83,167.25,205.75,166.87Z" transform="translate(-5.32 -15)"/><path class="cls-7" d="M250.89,312.58l-.23,0c-4.35-.08-8.7-.11-13-.26-7.09-.26-14.18-.1-21.27-.26-19.53-.45-39-.18-58.58-.13-5.56,0-11.13-.09-16.68.22-4,.22-8.08-.06-12.1.23-3.25.23-6.5,0-9.74.21-5,.25-9.93.29-14.89.51-3.24.14-6.49.06-9.72.41-.36,0-.72,0-.78.49-.48-1.1-1-2.21-1.42-3.32,6.38-.34,12.76-.57,19.15-.79,8.19-.29,16.38-.5,24.57-.71,11-.27,22-.32,32.94-.49s21.73-.18,32.6-.06c7.18.08,14.35.06,21.53.19q11.18.21,22.35.47c1.88,0,3.76.14,5.64.21A23.1,23.1,0,0,1,250.89,312.58Z" transform="translate(-5.32 -15)"/><path class="cls-16" d="M250.75,313.26c0-.09.08-.18.13-.27C250.83,313.08,250.79,313.17,250.75,313.26Z" transform="translate(-5.32 -15)"/><path class="cls-10" d="M243,159.69c0-.15-.07-.3-.1-.45,1.21-.41,1.79-1.63,2.85-2.23.44-.25.82-.61,1.26-.86.29-.17.63-.73,1-.2s-.3.6-.57.83c-.54.48-1.29.71-1.84,1.51a15,15,0,0,1,4.31-.49c.23,0,.51,0,.56.3s-.19.41-.44.4a22.82,22.82,0,0,0-6.65,1.2A2,2,0,0,1,243,159.69Z" transform="translate(-5.32 -15)"/><path class="cls-17" d="M236.34,194c0-.1,0-.34.18-.26s0,.24-.1.33Z" transform="translate(-5.32 -15)"/><path class="cls-14" d="M209,78a.37.37,0,0,1-.18,0A10.13,10.13,0,0,1,210,67.82a6.07,6.07,0,0,1,4.49-2.7,15.55,15.55,0,0,1-1.21,6.18A17.32,17.32,0,0,1,209,78Z" transform="translate(-5.32 -15)"/><path class="cls-8" d="M209,78a17.32,17.32,0,0,0,4.22-6.65,15.55,15.55,0,0,0,1.21-6.18,1,1,0,0,1,1-.11,20.77,20.77,0,0,1-5.38,13.46c-.12.15-.22.32-.33.48A1.39,1.39,0,0,1,209,78Z" transform="translate(-5.32 -15)"/><path class="cls-5" d="M233,83.68a1.77,1.77,0,0,1,1.65,1.8,2.68,2.68,0,0,1-2.34,2.64c-1,0-1.57-.65-1.6-1.77A2.62,2.62,0,0,1,233,83.68Z" transform="translate(-5.32 -15)"/><path class="cls-15" d="M213.74,82.48a4,4,0,0,1-.91-1.21l1.65.38C213.85,81.58,214.07,82.28,213.74,82.48Z" transform="translate(-5.32 -15)"/><path class="cls-13" d="M230.23,76.25c0-1,.88-2.17,1.62-2.16s.69.43.7.88c0,.92-1,2.21-1.66,2.19S230.21,76.73,230.23,76.25Z" transform="translate(-5.32 -15)"/><path class="cls-13" d="M240.61,79.5c0,.94-1,2.22-1.64,2.19-.54,0-.69-.44-.69-.91,0-.93.95-2.16,1.65-2.15S240.61,79,240.61,79.5Z" transform="translate(-5.32 -15)"/><path class="cls-15" d="M372.38,309.18c1,0,2.07,0,3.1-.05a2.13,2.13,0,0,1,1.44.44l.08,7.29a1.15,1.15,0,0,1-1.14.76c-1.12,0-2.25,0-3.37,0C372.45,314.82,372.42,312,372.38,309.18Z" transform="translate(-5.32 -15)"/><path class="cls-15" d="M328.07,315.64l.33-5.77,31.67,1.82-.33,5.78Z" transform="translate(-5.32 -15)"/><path class="cls-8" d="M367.45,324.79a2.2,2.2,0,0,1-.29-1.23q-.42-10.72-.83-21.44c1.64-1.32,3.54-.89,5.35-.71.74.07.86.9.88,1.61q.17,4,.35,8c.08,1.93.15,3.85.23,5.78l.21,6.34c0,1.64-.35,2.07-2,2.16q-1.17.06-2.34.09A1.59,1.59,0,0,1,367.45,324.79Z" transform="translate(-5.32 -15)"/><path class="cls-15" d="M316.05,310.09c0,2.57.07,5.13.11,7.7-1.61,0-3.22,0-4.83.08-1,.05-1.43-.43-1.42-1.71s0-2.83-.07-4.24.42-1.78,1.38-1.77C312.83,310.17,314.44,310.12,316.05,310.09Z" transform="translate(-5.32 -15)"/><path class="cls-18" d="M359.73,311.19c0-3.58-.05-7.17-.06-10.76,0-1.78.62-2.43,2.37-2.46,1.18,0,2.35,0,3.53,0a1.91,1.91,0,0,1,2.11,2.12c0,.63,0,1.26,0,1.89q.09,10.73.18,21.45a2.33,2.33,0,0,0,.26,1.25c-.45.6-.16,1.28-.2,1.92a2,2,0,0,1-1.94,2.08c-1.36.07-2.74.08-4.11,0a1.93,1.93,0,0,1-2-2.15q-.07-4.79-.13-9.57C359.76,315.05,359.74,313.12,359.73,311.19Z" transform="translate(-5.32 -15)"/><path class="cls-8" d="M321.12,303.05q-.18,11.25-.38,22.5c-1,1.07-2.23.9-3.47.87-2.42-.06-2.86-.49-2.84-2.89l.05-1.65,0-4.24c0-1.93.07-3.86.1-5.79l.18-7.44c.05-1.73.51-2.18,2.19-2.16.67,0,1.34.07,2,0A2.68,2.68,0,0,1,321.12,303.05Z" transform="translate(-5.32 -15)"/><path class="cls-18" d="M328.4,323.39c0,.64,0,1.29,0,1.93,0,.39,0,.79,0,1.18a2.16,2.16,0,0,1-2.32,2.32c-1.3.05-2.6,0-3.89,0a1.94,1.94,0,0,1-2.08-2.23v-2l.15-22.5c0-.63,0-1.27,0-1.9,0-1.47.73-2.12,2.28-2.13,1.21,0,2.43,0,3.65,0,1.64,0,2.35.72,2.36,2.33,0,3.55,0,7.1,0,10.65,0,1.92,0,3.85,0,5.77Z" transform="translate(-5.32 -15)"/><path class="cls-3" d="M194.82,89.32c.28,1.6,1.13,3,1.49,4.59,1.21,5.29-3.22,10.92-8.62,11.06a9.64,9.64,0,0,1-9.21-6.24,7.94,7.94,0,0,0-1.38-2.85,25,25,0,0,0-1.6-4.39c-1.43-3.78-2.85-7.56-4-11.43l2.11,0c5.88.1,11.06-1.95,15.87-5.18.61,1.28.8,2.72,1.52,4a14.08,14.08,0,0,0,1,3.24A68.4,68.4,0,0,0,194.82,89.32Z" transform="translate(-5.32 -15)"/><path class="cls-19" d="M189,76c-4.81,3.23-10,5.28-15.88,5.18l-2.1,0a17.14,17.14,0,0,1-2.78-7.75,2.15,2.15,0,0,1,.18-1.27,53.76,53.76,0,0,0,17.8-5.07c.81.73.74,1.93,1.46,2.71A34.14,34.14,0,0,1,189,76Z" transform="translate(-5.32 -15)"/><path class="cls-20" d="M184,55.73c-.08.16-.17.31-.25.46-1.35-.55-2-1.91-3.22-2.66a13,13,0,0,1-1.61-1.36c-.17-.15-.43-.33-.29-.57s.5-.15.71,0c.83.63,1.64,1.28,2.47,1.92.32-.4-.05-.62-.11-.9s-.58-.66-.12-.9.65.3.81.64c.34.71.67,1.42.94,2.15A3.92,3.92,0,0,0,184,55.73Z" transform="translate(-5.32 -15)"/><path class="cls-20" d="M234.94,27.18a8.42,8.42,0,0,1-.14,1.52c-.09.37,0,1-.64.95s-.48-.69-.4-1.07a9.47,9.47,0,0,0,0-2.91,12,12,0,0,0-2-5.58c-.22-.33-.6-.65-.17-1s.78.16,1,.45A13.74,13.74,0,0,1,234.94,27.18Z" transform="translate(-5.32 -15)"/><path class="cls-20" d="M227.38,28.83A11.12,11.12,0,0,1,221.9,27c-.28-.19-.79-.45-.51-.91s.73-.17,1.08.07a8.13,8.13,0,0,0,7.79,1c.33-.12.62-.22.79.16s-.12.56-.4.72A10.52,10.52,0,0,1,227.38,28.83Z" transform="translate(-5.32 -15)"/></g></g></g></svg>