<svg xmlns="http://www.w3.org/2000/svg" xmlns:xlink="http://www.w3.org/1999/xlink" viewBox="0 0 360.74 300.75"><defs><style>.cls-1{fill:none;}.cls-2{clip-path:url(#clip-path);}.cls-3{fill:#fecdb2;}.cls-4{fill:#fefefe;}.cls-5{fill:#1c1a12;}.cls-6{fill:#feba3f;}.cls-7{fill:#334a52;}.cls-8{fill:#d14121;}.cls-9{fill:#feab8b;}.cls-10{fill:#fe7e59;}.cls-11{fill:#f9a788;}.cls-12{fill:#8b84da;}.cls-13{fill:#020101;}.cls-14{fill:#feb94b;}.cls-15{fill:#f7682f;}.cls-16{fill:#8f85de;}.cls-17{fill:#feb02a;}</style><clipPath id="clip-path" transform="translate(-9.26 -43)"><polyline class="cls-1" points="0 0 379 0 379 360 0 363"/></clipPath></defs><title>imgBanner2_2</title><g id="Capa_2" data-name="Capa 2"><g id="Capa_1-2" data-name="Capa 1"><g class="cls-2"><path class="cls-3" d="M339.15,322.13c1.32,3.77,13.79,2.11,14.7,2,.24.09.77.24,1,0s0-1-.72-1.87l-14.64-2.39A2.9,2.9,0,0,0,339.15,322.13Z" transform="translate(-9.26 -43)"/><path class="cls-4" d="M81.17,303.4a8.92,8.92,0,0,0-1.54-2.74c-.34-.48-.62-.46-.91.12-.66,1.37-.53,1.79,1,2.65a5.5,5.5,0,0,0,2,1.32A2.37,2.37,0,0,0,81.17,303.4ZM86,305a14.72,14.72,0,0,0,4.12-3.25,1.1,1.1,0,0,0,0-1.67c-.59-.51-1.11-.19-1.52.28A13.41,13.41,0,0,0,86,305Z" transform="translate(-9.26 -43)"/><path class="cls-5" d="M301.58,128.66c.6.84,1.19,1.7,1.83,2.53a2.18,2.18,0,0,1,.46,1.44L298,136.94a1.15,1.15,0,0,1-1.28-.5c-.62-.95-1.3-1.85-2-2.77Z" transform="translate(-9.26 -43)"/><path class="cls-6" d="M248.21,200.17a48.44,48.44,0,0,1,6.46,3.58c8.93,5.19,17.73,10.61,26.24,16.48a33.11,33.11,0,0,1,9,8.61,13.29,13.29,0,0,1,2.61,7.77,50.93,50.93,0,0,1-1.42,11.77,195,195,0,0,1-9.49,26.48c-3.84,9.12-8,18.1-12.41,27-.25.51-.38,1.19-1.19,1.06a95.47,95.47,0,0,0-9.64-1.61c-.55-.09-.54-.43-.46-.88,1.13-6.56,2-13.16,2.67-19.78.37-3.59.64-7.19.75-10.8.25-8,.6-16,2.61-23.82.6-2.31.56-2.28-1.61-3.23-10.95-4.81-22-9.38-32.7-14.73-5.51-2.75-10.8-5.93-16-9.22a2.58,2.58,0,0,0-1.4-.52A72.46,72.46,0,0,1,194,215.47a2.28,2.28,0,0,0-2.4.58q-19.16,16.77-38.35,33.48l-29.52,25.81c-4.63,4-16.32,11.37-28.58,24.93l-.87,1a12.38,12.38,0,0,0-1.33-1.13,11.77,11.77,0,0,0-1.19-.77h0a.35.35,0,0,0-.34-.25l-.75-.69-8.26-6.66q5.24-7.9,10.46-15.82c2.69-4.1,5.22-8.31,8-12.32,3.42-4.89,7.81-8.88,12.2-12.85s9.09-7.77,13.75-11.53c1.8-1.46,3-3.58,4.36-5.43,7.38-9.74,13.69-20.2,19.94-30.71,6.55-11,15-20.29,26-27a2.82,2.82,0,0,1,.4-.24,6.66,6.66,0,0,0,4.38-4.56c8,3.66,16.49,5.45,25.16,6.49q4.41.52,8.85.78a86,86,0,0,0,10.65,0c.18.35.39.68.54,1a26.56,26.56,0,0,1,1.5,7.88,2.65,2.65,0,0,0,1.78,2.66c-.72.44-1.64.45-2.36,1.17,1.15.57,2.21,1.16,3.31,1.63.88.37,1,.83.68,1.74a13.48,13.48,0,0,0-1.21,5.88c.11,1.24,1.11,1.7,2.08.93a6.47,6.47,0,0,0,1.72-2.09c.67-1.26,1.4-2.48,2.1-3.72a8,8,0,0,1-1,3.52,8.44,8.44,0,0,0-1.1,3.35c0,.76-.11,1.59.81,1.9s1.37-.27,1.87-.86c1-1.14,1.59-2.54,2.48-3.74l.08.07a3.59,3.59,0,0,1,0,.47,18.43,18.43,0,0,0-.68,3.35c0,.58,0,1.28.61,1.56s1-.3,1.39-.65a13.59,13.59,0,0,0,2.58-3.38c0,.84-.1,1.62-.16,2.4s-.19,1.67.74,2,1.79-.53,2.15-.83C248.07,203.52,248.19,201,248.21,200.17ZM86.29,292.84c.62-.11.78-.67,1-1.08,3.16-5.24,6.42-10.41,10-15.4,2.7-3.78,5.47-7.51,8.41-11.1,2.37-2.9,4.85-5.68,7.36-8.46A118.67,118.67,0,0,1,125,245.41a50.85,50.85,0,0,0,7.37-6.93c4.3-5.39,8.35-11,12.21-16.67a247.6,247.6,0,0,0,13.7-22.13,39,39,0,0,1,5.57-7.91,78.13,78.13,0,0,1,14.18-12c.51-.35,1.72-.57,1.21-1.39s-1.37.08-2,.46a83,83,0,0,0-10.55,8.25,41.89,41.89,0,0,0-8.36,10c-2.94,5.18-5.88,10.37-9.1,15.38-5,7.77-10.16,15.4-15.83,22.68a39,39,0,0,1-5.15,5.81c-3.24,2.79-6.62,5.42-9.7,8.4a173.57,173.57,0,0,0-14.18,15.5,230.92,230.92,0,0,0-16.1,22.9c-.8,1.27-1.54,2.57-2.28,3.88C85.76,292.11,85.71,292.58,86.29,292.84ZM88,295.22c.61-.3.84-1,1.18-1.52,3.64-6.2,7.6-12.18,11.83-18a193.06,193.06,0,0,1,12.67-15.55,110.24,110.24,0,0,1,13.08-12.59,58.8,58.8,0,0,0,10.32-10.77c3.08-4.09,6.07-8.24,8.94-12.49,4.84-7.16,9.57-14.39,13.68-22a40.23,40.23,0,0,1,5.75-8.21,75.06,75.06,0,0,1,14.79-12.36c.38-.24,1-.45.59-1.06s-.81-.3-1.23,0c-.18.14-.39.25-.59.38A88.28,88.28,0,0,0,169,188.82a41.88,41.88,0,0,0-8.78,10.28c-3.72,6.57-7.53,13.07-11.68,19.37-4.35,6.62-8.84,13.15-13.73,19.38a38.5,38.5,0,0,1-5.83,6.33c-2.8,2.27-5.6,4.56-8.21,7.06a162.84,162.84,0,0,0-14.45,15.59A229.82,229.82,0,0,0,90.16,289.7c-.87,1.41-1.72,2.84-2.56,4.26-.15.26-.4.53-.17.87A.71.71,0,0,0,88,295.22Zm174.5,3.44c0,.55,0,1,.39,1.07s.63-.28.75-.62.2-.76.3-1.15a232,232,0,0,0,5-23.39A79.64,79.64,0,0,0,270,263.15c0-1.66-.14-3.29,0-5a54.35,54.35,0,0,1,1.52-9,56.08,56.08,0,0,1,3.28-9.27c.41-.94.13-1.36-.8-1.6-1.25-.32-2.49-.7-3.71-1.1A203.13,203.13,0,0,1,247.08,228q-12.71-5.9-24.81-12.95c-1.25-.73-2.51-1.46-3.77-2.17-.33-.19-.73-.47-1,.08s0,.74.4,1c.14.08.26.19.39.27,5.48,3.3,11.09,6.36,16.75,9.32,5.11,2.67,10.32,5.13,15.59,7.46a175.89,175.89,0,0,0,22.06,8.28c.77.23.87.48.54,1.23-3,6.94-4.81,14.14-4.57,21.76a81.29,81.29,0,0,1-1.76,17.19c-1.06,5.87-2.42,11.67-3.92,17.44C262.82,297.53,262.66,298.18,262.54,298.66Zm-2.73-.19a.58.58,0,0,0,.53.61c.65.06.68-.5.8-1,1.65-6.63,3.06-13.32,4.16-20.06A87.63,87.63,0,0,0,266.75,263c0-1-.25-2.06-.18-3.08a53.34,53.34,0,0,1,1.28-9.49,45.51,45.51,0,0,1,2.73-7.95c.73-1.56.63-1.76-.95-2.25-1.27-.39-2.55-.74-3.82-1.15a207.56,207.56,0,0,1-26.58-10.92c-7.62-3.7-15.08-7.72-22.33-12.12-.52-.31-1.22-1.12-1.7-.31s.58,1.07,1.08,1.37c3.33,2,6.71,3.91,10.11,5.79a257.57,257.57,0,0,0,24,11.68,170.05,170.05,0,0,0,18.29,6.66c.62.18,1,.32.61,1.18a46.26,46.26,0,0,0-3.92,18.3c0,1.2.3,2.38.2,3.55-.26,3.15-.42,6.3-.86,9.43-.73,5.21-1.69,10.36-2.77,15.5C261.29,292.18,260.56,295.18,259.81,298.47Z" transform="translate(-9.26 -43)"/><path class="cls-7" d="M227.41,106.69a38.51,38.51,0,0,1,12.22,6.82,7.51,7.51,0,0,1,2.56,6c-.07,1.06-.09,2.13-.22,3.19-.42,3.4-.91,6.79-1,10.22a90.65,90.65,0,0,0,.66,12.65,13.94,13.94,0,0,1-1.38,7.59,30.9,30.9,0,0,1-8.94,8.11,2.07,2.07,0,0,0-.52-.2,24.44,24.44,0,0,1-9.85-3.2,29,29,0,0,0-18.59-3.73c-.4.05-.85.09-.82.62s.44.47.87.4a27.94,27.94,0,0,1,11.11.66c2.93.7,5.48,2.28,8.18,3.55a25.54,25.54,0,0,0,9.16,2.64q-.52,3.71-1.06,7.42l-2.45-1.21c-.76-.32-1.5-.68-2.27-1-5.6-2.1-11.47-2.93-17.36-3.53-5.43-.55-10.9-.65-16.36-.72-2.42,0-4.84.14-7.26.22-1.52-.05-3,.45-4.56.16a85,85,0,0,0,3.71-16.06c.25-2.21.48-4.42.57-6.63a155.12,155.12,0,0,0-.23-18.92,50.4,50.4,0,0,1-.19-10.2,20,20,0,0,1,1.84-6.84,11.17,11.17,0,0,1,5-5.33,11.75,11.75,0,0,1,3.92-1c4.78-.63,8.66.61,8.82,0,0,0,0-.13-.11-.26l4.94.26a16.68,16.68,0,0,0,7.33,9.48c3.51,2.15,7.13,2.62,10.73,0C226.41,107.55,226.76,106.93,227.41,106.69Zm3.39,15.66c.31-1.35-.77-1.32-1.5-1.53-3.7-1.08-7.45-2-11.22-2.78a48.06,48.06,0,0,0-6.31-1.07c-.52,0-.87,0-.93.72-.19,2.24-.45,4.47-.68,6.7,0,.53,0,.89.7,1,1.07.11,2.14.35,3.21.54,5.25.9,10.47,1.91,15.66,3.1.81.18.85-.12.87-.74A33.11,33.11,0,0,1,230.8,122.35Zm-43.21,6.37c0,1.54-.13,3-.18,4.47-.1,3.48-.36,6.94-.74,10.4A69.38,69.38,0,0,1,183.33,159c-.14.41-.32.81-.42,1.23-.06.21-.06.5.23.59s.44-.11.53-.34c.32-.76.65-1.52.91-2.31,2.51-7.61,3.36-15.48,3.72-23.44,0-1,0-2.05.13-3.08a52.1,52.1,0,0,0-.14-8.19A.4.4,0,0,0,188,123a.45.45,0,0,0-.52.37,3.15,3.15,0,0,0-.05,1.18A23,23,0,0,1,187.59,128.72ZM222.79,116a9.24,9.24,0,0,0,6.85-3.24c.3-.32.72-.72.37-1.11s-.73.12-1,.37-.71.74-1.09,1.08a7.68,7.68,0,0,1-4.56,1.92c-3.91.37-7.13-1.26-10.1-3.62-1.24-1-2.29-2.16-3.42-3.25-.26-.25-.53-.76-.94-.37s.09.61.28.89a13.61,13.61,0,0,0,3.23,3.24C215.26,114.22,218.32,116.05,222.79,116Z" transform="translate(-9.26 -43)"/><path class="cls-3" d="M354,322.22c5.09.82,10.18,1.67,14.71,4.39,1.78,1.07,1.73,2.56,0,3.7a27,27,0,0,1-8.56,3.12c-5.34,1.29-10.77,2.11-16.21,2.91-4.93.73-9.89,1.25-14.83,1.82-3.84.45-7.69.67-11.53,1q-8,.72-16.1,1.22l-11.56.71q-7.07.4-14.14.72l-11.35.48c-4.73.2-9.45.31-14.17.48-6.41.22-12.82.28-19.22.5-5.13.17-10.25,0-15.37.19-16.56.47-33.11.21-49.67.13-5.23,0-10.48.07-15.71-.22-3.6-.19-7.2,0-10.79-.2-5.43-.24-10.86-.34-16.28-.5-4.18-.12-8.35-.33-12.53-.46-5.11-.16-10.22-.44-15.32-.7-4.17-.22-8.34-.45-12.5-.72q-6.84-.44-13.66-.95c-4.66-.36-9.32-.72-14-1.21s-9.45-1-14.17-1.58c-6.3-.77-12.58-1.68-18.8-2.93a50.92,50.92,0,0,1-9.89-2.88,6.31,6.31,0,0,1-2.6-1.78,1.47,1.47,0,0,1,.08-2.21c1.78-1.78,4.12-2.41,6.39-3.08a127.69,127.69,0,0,1,18.57-3.61c5-.68,10-1.32,15-1.87,3.84-.42,7.69-.67,11.53-1,3.42-.29,6.83-.6,10.25-.9a2.84,2.84,0,0,1,.58.05,4.86,4.86,0,0,1-.31,1.81c-5.26.41-10.53.74-15.78,1.25-7.77.77-15.55,1.57-23.23,3a34.86,34.86,0,0,0-8.89,2.52c-.7.33-1.49.71-1.48,1.67s.79,1.21,1.45,1.55a26.39,26.39,0,0,0,6.93,2.14,249.34,249.34,0,0,0,28.8,3.76c7.55.68,15.12,1.18,22.69,1.67,6.09.39,12.18.68,18.27,1s12.12.5,18.18.71q8,.29,16,.47c8.45.19,16.9.42,25.35.47,22.32.12,44.64.29,67-.15,3.6-.07,7.2-.08,10.8-.18,6.85-.17,13.69-.31,20.54-.52l12.66-.45c7.16-.26,14.3-.6,21.45-1q7.68-.42,15.34-.94c8.34-.56,16.68-1.25,25-2.16A183.08,183.08,0,0,0,352,330.55a23.44,23.44,0,0,0,5.46-1.79c.72-.36,1.62-.74,1.61-1.7s-.89-1.24-1.57-1.61a16.33,16.33,0,0,0-3.52-1.29Z" transform="translate(-9.26 -43)"/><path class="cls-8" d="M263.28,307.23a2.71,2.71,0,0,0,1.51,3.63,8.51,8.51,0,0,0,4.08.93c.9,0,1.2.29.69,1.19a8.2,8.2,0,0,0-.88,3.55c0,.46.06.91.63.94s.72-.38.73-.87a7.09,7.09,0,0,1,1.14-3.82c.3-.48.56-.95,1.27-.59a.73.73,0,0,0,.85-.26c.33-.34.55-.08.84.14-.3.43-.76.34-1.14.48s-.88.29-.75.87.61.55,1,.46c.65-.14,1.3-.29,1.94-.49a.89.89,0,0,1,1.15.36c-.36.12-.64.23-.93.31s-.77.28-.68.79.58.57,1,.48c.65-.13,1.3-.31,1.94-.47.41-.11.83-.28,1.16.21-.29.4-.78.28-1.15.45a.67.67,0,0,0-.43.85.56.56,0,0,0,.74.41,12,12,0,0,0,2.81-.77c.37,0,.76,0,.93.48a14.72,14.72,0,0,0-1.45.38.59.59,0,0,0-.37.76c.08.35.36.6.67.5,1-.33,2.25-.18,3.09-1.1.47.37,1.18-.11,1.6.45-.61.14-1.22.26-1.83.42-.41.1-.75.34-.61.83a.67.67,0,0,0,.92.5,11.39,11.39,0,0,0,2.79-.85c1.67.43,3.05,1.5,4.59,2.2.26.23.53.44.77.68,1.14,1.09,2.43,2.08,2.59,3.85H267.07c-2.15,0-4.3,0-6.45,0-.7,0-.91-.17-.66-.88a8.16,8.16,0,0,0,.47-2.55,12.11,12.11,0,0,0-5-10,4.72,4.72,0,0,0,.08-1.18c-.36-2.13.69-3.63,2.08-5,.13.37.48.49.78.66A8.69,8.69,0,0,0,263.28,307.23Z" transform="translate(-9.26 -43)"/><path class="cls-9" d="M226.56,178.62a86,86,0,0,1-10.65,0q-4.44-.26-8.85-.78c-8.67-1-17.15-2.83-25.16-6.49l.3-.94a3.83,3.83,0,0,0,.58-.07A79.36,79.36,0,0,1,199,168.25a111.2,111.2,0,0,1,14.6.46c2.55.26,5.1.53,7.65.84,2,.24,3.92.55,5.88.82,0,.59,0,1.18,0,1.76Zm-17.35-6c.08.39-.24,1.09.42,1.25s.94-.52,1.14-1a9.48,9.48,0,0,0,.52-2,.89.89,0,0,0-.54-1.07c-.46-.14-.68.21-.92.56A3.6,3.6,0,0,0,209.21,172.58Z" transform="translate(-9.26 -43)"/><path class="cls-3" d="M94.52,315.37c4.37-.18,8.74-.3,13.11-.54,4.05-.23,8.11-.33,12.17-.49,5.07-.21,10.15-.29,15.22-.5,3.4-.15,6.8,0,10.19-.22,4.58-.32,9.15-.1,13.72-.21,19.76-.5,39.52-.21,59.28-.14,4.56,0,9.15-.06,13.71.21,3.6.22,7.2,0,10.78.23,4.1.26,8.2.16,12.29.41a5.11,5.11,0,0,1-.42,1.93c-1.88-.07-3.76-.16-5.63-.21q-11.15-.24-22.29-.46c-7.16-.14-14.32-.12-21.49-.2q-16.24-.18-32.51.06c-11,.17-21.91.22-32.87.5-8.17.2-16.34.42-24.51.71-6.37.22-12.74.45-19.1.79Z" transform="translate(-9.26 -43)"/><path class="cls-8" d="M94.52,315.37l1.65,1.87,1.41,3.35a15.65,15.65,0,0,1,.56,3.53,1,1,0,0,1-.86.27H74.05c-.63,0-1,0-.52-.82,2.17-3.91,1.39-7.76-.33-11.57a22.37,22.37,0,0,1,1.6-5.32,5.18,5.18,0,0,1,1-1.47c1.24-1.3,1.74-1.35,3.17-.33L80.6,306l-1.2.81a6.19,6.19,0,0,0-2.15,2.31c-.23.44-.32.95.2,1.26s.87-.06,1.12-.5a6,6,0,0,1,3-2.51c.49-.21.93-.36,1.41,0a1.59,1.59,0,0,0,1.47.2,3.82,3.82,0,0,1,3.81,1.22A5.4,5.4,0,0,1,90,311.26c.29.91,1.28,1.45,2,2.09S93.71,314.7,94.52,315.37Zm-8.12.53a21.06,21.06,0,0,0-4,.48c-.45.1-.83.37-.75.89a.78.78,0,0,0,1,.67,14.21,14.21,0,0,1,6-.16c.47.08.91,0,1-.58a.75.75,0,0,0-.71-.9C88.05,316.14,87.09,316,86.4,315.9Zm-.57-2.09a12.16,12.16,0,0,1,2.33.21c.56.16,1.06,0,1.18-.6s-.33-.84-.83-.94a14.73,14.73,0,0,0-6.27.1c-.51.12-1,.31-.9,1s.73.65,1.23.53A14.77,14.77,0,0,1,85.83,313.81Zm1.35-2.2c.49.08.89-.05,1-.57s-.2-.86-.74-1a15.21,15.21,0,0,0-6.51.1.81.81,0,0,0-.7,1c.14.55.6.62,1,.51A12.83,12.83,0,0,1,87.18,311.61Z" transform="translate(-9.26 -43)"/><path class="cls-10" d="M227.08,170.37c-2-.27-3.92-.58-5.88-.82-2.55-.31-5.1-.58-7.65-.84a111.2,111.2,0,0,0-14.6-.46,79.36,79.36,0,0,0-16.17,2.05,3.83,3.83,0,0,1-.58.07c0-1,.76-1.81.45-2.83.36-.18.42-.51.51-.88.27-1.15.6-2.28.9-3.42,2.42-.08,4.84-.26,7.26-.22,5.46.07,10.93.17,16.36.72,5.89.6,11.76,1.43,17.36,3.53.77.29,1.51.65,2.27,1C227.19,168.94,227.52,169.7,227.08,170.37Z" transform="translate(-9.26 -43)"/><path class="cls-5" d="M270.79,95.8l4.86-3.08,16.79,27.22L287.58,123Z" transform="translate(-9.26 -43)"/><path class="cls-8" d="M286.1,133.66a2.34,2.34,0,0,1,.83-1l16.87-13.15c2,.59,2.76,2.4,3.66,4,.36.65-.24,1.23-.8,1.66-2.1,1.64-4.19,3.3-6.28,4.95l-4.54,3.55-5,3.86c-1.3,1-1.88.92-2.91-.41-.48-.62-.95-1.24-1.41-1.88A1.61,1.61,0,0,1,286.1,133.66Z" transform="translate(-9.26 -43)"/><path class="cls-6" d="M255.42,311.7a12.11,12.11,0,0,1,5,10,8.16,8.16,0,0,1-.47,2.55c-.25.71,0,.89.66.88,2.15,0,4.3,0,6.45,0h27.47c.49,1.76.07,2.36-1.65,2.36H256.05c-1.93,0-2.22-.32-2.16-2.39,1.32,0,2.64,0,4,0a1,1,0,0,0,1.17-.86,9.49,9.49,0,0,0,.21-5.12,10.24,10.24,0,0,0-4-6.2A2.08,2.08,0,0,1,255.42,311.7Z" transform="translate(-9.26 -43)"/><path class="cls-6" d="M73.2,312c1.72,3.81,2.5,7.66.33,11.57-.47.83-.11.82.52.82H97.28a1,1,0,0,0,.86-.27c.28.39.16.85.17,1.27,0,1.85,0,1.85-1.76,1.85H74.27c-3,0-3.19-.18-2.91-3.36.46,0,.66-.35.87-.68,1.82-2.85,1.42-5.82.49-8.83A6.58,6.58,0,0,1,73.2,312Z" transform="translate(-9.26 -43)"/><path class="cls-11" d="M82.38,291.76l8.26,6.66c-1.66-.45-2.79.28-3.77,1.59a31.1,31.1,0,0,0-2,3.44l-1.84,0c-1-1.56-1.58-3.35-3.08-4.54-.4-.32-.15-.72,0-1.08Z" transform="translate(-9.26 -43)"/><path class="cls-8" d="M255.28,312.93a10.24,10.24,0,0,1,4,6.2,9.49,9.49,0,0,1-.21,5.12,1,1,0,0,1-1.17.86c-1.33-.05-2.65,0-4,0a32.4,32.4,0,0,1,.21-5.21l.12-.27,0-.42a23.22,23.22,0,0,0,.33-3.13,5.11,5.11,0,0,0,.42-1.93Z" transform="translate(-9.26 -43)"/><path class="cls-9" d="M263.28,307.23a8.69,8.69,0,0,1-4.92-1.06c-.3-.17-.65-.29-.78-.66,0-1.46.63-2.81.8-4.24a95.47,95.47,0,0,1,9.64,1.61c-.16.93-.32,1.86-.47,2.79-.08.5-.32.7-.8.53A3.19,3.19,0,0,0,263.28,307.23Z" transform="translate(-9.26 -43)"/><path class="cls-12" d="M184.06,163.24c-.3,1.14-.63,2.27-.9,3.42-.09.37-.15.7-.51.88a5.15,5.15,0,0,1-2.75-1.47,2,2,0,0,1-.4-2.67C181,163.69,182.54,163.19,184.06,163.24Z" transform="translate(-9.26 -43)"/><path class="cls-11" d="M91.72,299.35a9.08,9.08,0,0,1,2.24,1.7c-1.37,2.11-3.14,3.89-4.67,5.87-.26.33-.56.42-.85,0a1.71,1.71,0,0,0-.53-1.26c.76-.59,1.55-1.16,2.29-1.79C91.59,302.69,92.39,301.27,91.72,299.35Z" transform="translate(-9.26 -43)"/><path class="cls-8" d="M72.72,314.37c.93,3,1.33,6-.49,8.83-.21.33-.41.67-.87.68,0-.69.07-1.39.11-2.09.1-1,.19-2.09.29-3.13a4.86,4.86,0,0,0,.31-1.81C72.29,316,72.5,315.2,72.72,314.37Z" transform="translate(-9.26 -43)"/><path class="cls-11" d="M86,305a13.41,13.41,0,0,1,2.56-4.64c.41-.47.93-.79,1.52-.28a1.1,1.1,0,0,1,0,1.67A14.72,14.72,0,0,1,86,305Z" transform="translate(-9.26 -43)"/><path class="cls-11" d="M79.71,303.43c-1.52-.86-1.65-1.28-1-2.65.29-.58.57-.6.91-.12a8.92,8.92,0,0,1,1.54,2.74Z" transform="translate(-9.26 -43)"/><path class="cls-6" d="M83,303.41l1.84,0c-.21.55-.17,1.47-.87,1.48S83.22,304,83,303.41Z" transform="translate(-9.26 -43)"/><path class="cls-6" d="M79.71,303.43l1.46,0a2.37,2.37,0,0,1,.54,1.35A5.5,5.5,0,0,1,79.71,303.43Z" transform="translate(-9.26 -43)"/><path class="cls-6" d="M87.91,305.67a1.71,1.71,0,0,1,.53,1.26l-1.33-.65C87.26,305.85,87.63,305.82,87.91,305.67Z" transform="translate(-9.26 -43)"/><path class="cls-11" d="M91.39,299.11a.35.35,0,0,1,.34.25Z" transform="translate(-9.26 -43)"/><path class="cls-9" d="M240.22,153.18a13.94,13.94,0,0,0,1.38-7.59,90.65,90.65,0,0,1-.66-12.65c.12-3.43.61-6.82,1-10.22.13-1.06.15-2.13.22-3.19,5.24,10.87,10.41,21.77,15.31,32.8,1.22,2.74,2.43,5.5,3.42,8.34,1.3,3.74.41,7.27-1.1,10.71-2.53,5.74-6.25,10.69-10,15.62-2.25,2.95-4.57,5.84-7.05,8.59-.53.58-.34.83.24,1.12,1.11.57,2.21,1.19,3.32,1.78A4.4,4.4,0,0,1,248,200l.24.23h0c.35,2-.56,3.45-1.81,4.77-.56.59-1.23,1.19-2.15.83s-.8-1.25-.74-2,.17-1.56.16-2.4a13.59,13.59,0,0,1-2.58,3.38c-.4.35-.79.92-1.39.65s-.61-1-.61-1.56a18.43,18.43,0,0,1,.68-3.35,3.59,3.59,0,0,0,0-.47c.13-.09.23-.27.1-.33s-.13.16-.18.26c-.89,1.2-1.5,2.6-2.48,3.74-.5.59-1,1.15-1.87.86s-.83-1.14-.81-1.9a8.44,8.44,0,0,1,1.1-3.35,8,8,0,0,0,1-3.52c-.7,1.24-1.43,2.46-2.1,3.72a6.47,6.47,0,0,1-1.72,2.09c-1,.77-2,.31-2.08-.93a13.48,13.48,0,0,1,1.21-5.88c.34-.91.2-1.37-.68-1.74-1.1-.47-2.16-1.06-3.31-1.63.72-.72,1.64-.73,2.36-1.17a2,2,0,0,0,2-1c2.26-3.23,4.52-6.45,6.62-9.79,2.82-4.46,5.64-8.93,7.34-14a2.1,2.1,0,0,0,.35,0,22.82,22.82,0,0,1,6.64-1.21c.25,0,.49-.08.44-.4s-.33-.28-.56-.3a14.54,14.54,0,0,0-4.3.49c.55-.81,1.3-1,1.84-1.52.26-.23.9-.31.57-.83s-.68,0-1,.19c-.44.26-.82.62-1.26.87-1.06.61-1.64,1.83-2.84,2.25Z" transform="translate(-9.26 -43)"/><path class="cls-13" d="M189.26,84.5c-2.14-5-1.66-9.11,0-9.94,1.37-.68,3.8.75,5.88,3a21.12,21.12,0,0,0,3.74-1.43c.44-.22.86-.45,1.41-.78a8.22,8.22,0,0,0,4.07-5.79,31.45,31.45,0,0,0,.37-6.28,43.75,43.75,0,0,1,.43-9c.5-1.14,3.77-8.23,11.53-10.52,4.8-1.42,10.87-.87,14.49,2.28a13.12,13.12,0,0,1,3.59,5.17,10.73,10.73,0,0,1,.53,2.9,15.82,15.82,0,0,0-6.17,0c-5.36,1-9.65,3.54-12,8.79-.14.32-.57.76-.12,1s.59-.36.79-.62c2.42-3.07,5-5.84,8.94-7a19.33,19.33,0,0,1,8.69-.29l3.39,1.27c-7.31.58-11.79,5-15.55,10.42-.64.94-1.21,1.93-1.82,2.89a9.42,9.42,0,0,0-2.58-.49,1,1,0,0,0-1,.13,6,6,0,0,0-4.48,2.71,10.28,10.28,0,0,0-1.12,10.14,17.19,17.19,0,0,1-3.84,2.46,25.59,25.59,0,0,1-9.4,2.12,12.92,12.92,0,0,1-6.85-1.16A12.12,12.12,0,0,1,189.26,84.5Z" transform="translate(-9.26 -43)"/><path class="cls-9" d="M240.38,86.13a6.57,6.57,0,0,0,2.67,6,29.91,29.91,0,0,1-3,5c-.52.76-1.4,1.25-1.64,2.21a31.21,31.21,0,0,1-3.4.82,13.21,13.21,0,0,1-5.78-1.23,33.36,33.36,0,0,1-9.76-9.11.91.91,0,0,0,0,.85A21.48,21.48,0,0,0,222.73,97a55.68,55.68,0,0,0,4.63,5.19l-1.71,3.59c-.65,1.15-1.15,2.45-2.75,2.56a10.58,10.58,0,0,1-3.37-.06c-4.5-1.12-7.36-4.35-9.88-8-.36-.51,0-.79.24-1.13a34.78,34.78,0,0,0,4.46-5.78,19.55,19.55,0,0,0,2.83-5.69c.33-.19.11-.9.74-.82,1.87.46,3-.75,4.1-1.93a14,14,0,0,0,3-6,9.1,9.1,0,0,0,2.54-3.68l1.13.82a.88.88,0,0,1,.25,1.32,6,6,0,0,0,2.64,8.07,5.88,5.88,0,0,0,7.84-2.83c.47-.9.51-.9,1.27-.22-.5.12-.65.48-.72,1-.1.78-.3,1.55-.38,2.34s-.38.93-.94.33a3.84,3.84,0,0,0-.47-.51.52.52,0,0,0-.44,0,.35.35,0,0,0-.13.5,2.68,2.68,0,0,0,.5.65c.48.47,1,1,1.7.9S240,86.56,240.38,86.13Zm-4,2.75a2.63,2.63,0,0,0-2.28,2.69c0,1.12.62,1.8,1.59,1.79A2.71,2.71,0,0,0,238,90.69,1.77,1.77,0,0,0,236.36,88.88Z" transform="translate(-9.26 -43)"/><path class="cls-13" d="M228,74.55a11.26,11.26,0,0,0-2.3-1,10.62,10.62,0,0,0-3.08-2.42c3-5.54,6.8-10.26,13.07-12.23a12,12,0,0,1,4.65-.35,3.37,3.37,0,0,1,1.56.47c5,3.22,8.83,7.3,10.14,13.37a15.76,15.76,0,0,1,.18,7.29,9.57,9.57,0,0,1-.61,1.53c-.14.28-.49.69-.67.59-.82-.49-1.87.24-2.6-.55.12-.58.28-1.15.36-1.74a4.06,4.06,0,0,0,.12-1.72c-.94,1.19-1.66,1.31-2.82.47a9.18,9.18,0,0,1-2.41-2.88c-.47-.78-.89-1.59-1.43-2.56,0,2.26-.5,2.79-2,2.36a5,5,0,0,1-1.63-.9,15.05,15.05,0,0,1-2.61-2.56c-.94-1.18-1.85-2.38-2.83-3.64,0,.88,0,1.66,0,2.43-.06,1-.06,2-1.09,2.46s-1.79-.44-2.47-1.16a.82.82,0,0,0-.21-.11Z" transform="translate(-9.26 -43)"/><path class="cls-14" d="M222.6,71.18a10.62,10.62,0,0,1,3.08,2.42v.72L225,78.94a14,14,0,0,1-3,6c-1.07,1.18-2.23,2.39-4.1,1.93l-1.65-.4a7.48,7.48,0,0,1-3.1-2.33c.12-.16.22-.33.34-.48a21,21,0,0,0,5.36-13.55,9.42,9.42,0,0,1,2.58.49c0,.31-.43.64.16.94S222.35,71.51,222.6,71.18Z" transform="translate(-9.26 -43)"/><path class="cls-3" d="M339.62,319.87c0,.55,0,1.1,0,1.65q-8.08-1-16.19-1.74-10.8-1-21.62-1.62c-3.36-.2-6.71-.47-10.06-.64-1.81-.09-3.62-.06-5.43-.08l-1,0c-.42-.56-1.13-.08-1.6-.45-.32-1.38-1.22-.62-1.94-.54-.17-.44-.56-.45-.93-.48,0-.58.34-.71.85-.7,4.22.07,8.42.35,12.62.69,1.52.12,3,.12,4.56.25,4,.34,8.1.47,12.14.78,5.36.42,10.71.91,16.07,1.43C331.27,318.87,335.44,319.39,339.62,319.87Z" transform="translate(-9.26 -43)"/><path class="cls-11" d="M228,74.55l1.27-2.8a.82.82,0,0,1,.21.11c.68.72,1.36,1.61,2.47,1.16s1-1.51,1.09-2.46c0-.77,0-1.55,0-2.43,1,1.26,1.89,2.46,2.83,3.64a15.05,15.05,0,0,0,2.61,2.56,5,5,0,0,0,1.63.9c1.54.43,2.05-.1,2-2.36.54,1,1,1.78,1.43,2.56A9.18,9.18,0,0,0,246,78.31c1.16.84,1.88.72,2.82-.47a4.06,4.06,0,0,1-.12,1.72c-.08.59-.24,1.16-.36,1.74-.34-.14-.77,0-1.06-.3a6.49,6.49,0,0,0-1.88-1.92c-.53-.39-1.14-.49-1.56.1a1.06,1.06,0,0,0,.31,1.56c.18.15.36.3.55.44a2.1,2.1,0,0,0-.65.25c-1.26,1.22-2.42.52-3.62-.13a.65.65,0,0,1-.43-.72,8.65,8.65,0,0,0-.52-3.11c.73-1,.63-1.53-.39-2a3.84,3.84,0,0,0-1.76-.46c-2.49-1.21-4.88-1.26-7.09.66a.58.58,0,0,1-.91,0C228.88,75.31,228.43,74.94,228,74.55Z" transform="translate(-9.26 -43)"/><path class="cls-9" d="M229.18,81.21A5.1,5.1,0,0,1,232.93,75a3.36,3.36,0,0,1,2.17,0c-.56.43-1.28.72-1.46,1.73a3.59,3.59,0,0,1,2.67-.09l2.05.72h0l.2.19a4.61,4.61,0,0,1,.06,5.11,4.55,4.55,0,0,1-5,2.51c.23-.54.64-1,.06-1.67A6.39,6.39,0,0,0,229.18,81.21Zm4.45.2c0,.48.08.89.65.91s1.66-1.27,1.66-2.2c0-.46-.11-.88-.69-.88C234.51,79.23,233.62,80.42,233.63,81.41Z" transform="translate(-9.26 -43)"/><path class="cls-8" d="M235.43,56a19.33,19.33,0,0,0-8.69.29c-3.91,1.13-6.52,3.9-8.94,7-.2.26-.28.93-.79.62s0-.72.12-1c2.35-5.25,6.64-7.78,12-8.79a15.82,15.82,0,0,1,6.17,0A3.46,3.46,0,0,1,235.43,56Z" transform="translate(-9.26 -43)"/><path class="cls-5" d="M268.35,82.65l-6.16,4.56c-.94-1.31-1.86-2.66-2.85-3.94-.6-.77-.48-1.43.56-2.17s2.28-1.66,3.4-2.52,1.68-.69,2.22.11C266.43,80,267.41,81.33,268.35,82.65Z" transform="translate(-9.26 -43)"/><path class="cls-13" d="M227.36,102.18A55.68,55.68,0,0,1,222.73,97a21.48,21.48,0,0,1-3.31-6.37.91.91,0,0,1,0-.85,33.36,33.36,0,0,0,9.76,9.11C228.56,100,228.26,101.24,227.36,102.18Z" transform="translate(-9.26 -43)"/><path class="cls-12" d="M209.89,99.14c-.24.34-.6.62-.24,1.13,2.52,3.65,5.38,6.88,9.88,8a10.58,10.58,0,0,0,3.37.06c1.6-.11,2.1-1.41,2.75-2.56.56.36,1.28.4,1.76.92-.65.24-1,.86-1.54,1.25-3.6,2.58-7.22,2.11-10.73,0a16.68,16.68,0,0,1-7.33-9.48C208.58,98.43,209.17,99,209.89,99.14Z" transform="translate(-9.26 -43)"/><path class="cls-11" d="M246.65,86.79c.11.79-1,.44-1,1.09l-.94,1.45a4,4,0,0,0-3.14-.48c-1.33-2.43.19-6,3-6.86a10.3,10.3,0,0,1,1.13-.25c.15.18.28.37.44.53.95,1,1.53,2.07.61,3.41A1,1,0,0,0,246.65,86.79ZM244,84.68c0-.47-.08-.87-.67-.88S241.65,85,241.66,86c0,.47.14.88.69.91S244,85.62,244,84.68Z" transform="translate(-9.26 -43)"/><path class="cls-14" d="M238.37,99.29c.24-1,1.12-1.45,1.64-2.21a29.91,29.91,0,0,0,3-5l1.66.65a9.77,9.77,0,0,1-1.51,2.74c-.81,1.33-2.11,2.28-2.79,3.7A5.61,5.61,0,0,1,238.37,99.29Z" transform="translate(-9.26 -43)"/><path class="cls-8" d="M270.22,310.44c-1.74-.12-3.45-.05-5-1-.42-.26-.91-.61-.71-1.22a1.18,1.18,0,0,1,1.23-.72A6.27,6.27,0,0,1,270.22,310.44Z" transform="translate(-9.26 -43)"/><path class="cls-10" d="M229.18,81.21a6.39,6.39,0,0,1,4.5,2.32c.58.62.17,1.13-.06,1.67A4.69,4.69,0,0,1,229.18,81.21Z" transform="translate(-9.26 -43)"/><path class="cls-8" d="M240.41,99.17c.68-1.42,2-2.37,2.79-3.7a9.77,9.77,0,0,0,1.51-2.74l1.15.18a21.09,21.09,0,0,1-2.13,3.53c-.36.51-1,.91-.93,1.7h0a.4.4,0,0,0-.46.26h0l-.25.18A3.1,3.1,0,0,1,240.41,99.17Z" transform="translate(-9.26 -43)"/><path class="cls-5" d="M246.65,86.79a1,1,0,0,1,0-1.11c.92-1.34.34-2.41-.61-3.41-.16-.16-.29-.35-.44-.53a5.08,5.08,0,0,1,2.92.53c.46.18.57.45.3.91A23,23,0,0,1,246.65,86.79Z" transform="translate(-9.26 -43)"/><path class="cls-14" d="M242.8,98.14c-.09-.79.57-1.19.93-1.7a21.09,21.09,0,0,0,2.13-3.53h1.36A9.62,9.62,0,0,1,242.8,98.14Z" transform="translate(-9.26 -43)"/><path class="cls-5" d="M240.38,86.13c-.34.43.1,1.3-.57,1.42s-1.22-.43-1.7-.9a2.68,2.68,0,0,1-.5-.65.35.35,0,0,1,.13-.5.52.52,0,0,1,.44,0,3.84,3.84,0,0,1,.47.51c.56.6.85.55.94-.33s.28-1.56.38-2.34c.07-.47.22-.83.72-1h0c.37.42,0,.92.18,1.37v0c-.28.22-.17.52-.17.8Z" transform="translate(-9.26 -43)"/><path class="cls-14" d="M244.69,89.33l.94-1.45,1.22.67c-.51,1.16-1,2.32-1.51,3.48a2.72,2.72,0,0,1-1.59-.58C243.81,90.63,244.63,90.15,244.69,89.33Z" transform="translate(-9.26 -43)"/><path class="cls-13" d="M225,78.94l.66-4.62a5.28,5.28,0,0,1,1.88.94A9.1,9.1,0,0,1,225,78.94Z" transform="translate(-9.26 -43)"/><path class="cls-13" d="M244.68,81.18c-.19-.14-.37-.29-.55-.44a1.06,1.06,0,0,1-.31-1.56c.42-.59,1-.49,1.56-.1A6.49,6.49,0,0,1,247.26,81,9,9,0,0,0,244.68,81.18Z" transform="translate(-9.26 -43)"/><path class="cls-13" d="M238.36,77.4l-2.05-.72a3.59,3.59,0,0,0-2.67.09c.18-1,.9-1.3,1.46-1.73A4,4,0,0,1,238.36,77.4Z" transform="translate(-9.26 -43)"/><path class="cls-10" d="M244.69,89.33c-.06.82-.88,1.3-.94,2.12a3.86,3.86,0,0,1-2.2-2.6A4,4,0,0,1,244.69,89.33Z" transform="translate(-9.26 -43)"/><path class="cls-8" d="M245.34,92c.5-1.16,1-2.32,1.51-3.48a.84.84,0,0,1,.72.48,14.5,14.5,0,0,1-1.24,3.12A1.47,1.47,0,0,1,245.34,92Z" transform="translate(-9.26 -43)"/><path class="cls-5" d="M237.31,75.05a3.84,3.84,0,0,1,1.76.46c1,.43,1.12,1,.39,2A11,11,0,0,0,237.31,75.05Z" transform="translate(-9.26 -43)"/><path class="cls-14" d="M246.33,92.15A14.5,14.5,0,0,0,247.57,89a4.36,4.36,0,0,1,.16,1.83C247.73,91.8,247.34,92.33,246.33,92.15Z" transform="translate(-9.26 -43)"/><path class="cls-9" d="M240.86,83.78c-.13-.45.19-1-.18-1.37.57-.15.84.23.87.68S241.43,83.9,240.86,83.78Z" transform="translate(-9.26 -43)"/><path class="cls-9" d="M240.7,84.61c0-.28-.11-.58.17-.8C241.07,84.13,240.92,84.38,240.7,84.61Z" transform="translate(-9.26 -43)"/><path class="cls-15" d="M242.35,98.4a.4.4,0,0,1,.46-.26A.46.46,0,0,1,242.35,98.4Z" transform="translate(-9.26 -43)"/><path class="cls-15" d="M242.11,98.57l.25-.18Z" transform="translate(-9.26 -43)"/><path class="cls-16" d="M248.22,200.18,248,200Z" transform="translate(-9.26 -43)"/><path class="cls-13" d="M238.52,77.58l-.2-.19C238.49,77.34,238.49,77.48,238.52,77.58Z" transform="translate(-9.26 -43)"/><path class="cls-8" d="M86.29,292.84c-.58-.26-.53-.73-.28-1.17.74-1.31,1.48-2.61,2.28-3.88a230.92,230.92,0,0,1,16.1-22.9,173.57,173.57,0,0,1,14.18-15.5c3.08-3,6.46-5.61,9.7-8.4a39,39,0,0,0,5.15-5.81c5.67-7.28,10.84-14.91,15.83-22.68,3.22-5,6.16-10.2,9.1-15.38a41.89,41.89,0,0,1,8.36-10,83,83,0,0,1,10.55-8.25c.58-.38,1.36-1.4,2-.46s-.7,1-1.21,1.39a78.13,78.13,0,0,0-14.18,12,39,39,0,0,0-5.57,7.91,247.6,247.6,0,0,1-13.7,22.13c-3.86,5.71-7.91,11.28-12.21,16.67a50.85,50.85,0,0,1-7.37,6.93,118.67,118.67,0,0,0-11.92,11.39c-2.51,2.78-5,5.56-7.36,8.46-2.94,3.59-5.71,7.32-8.41,11.1-3.54,5-6.8,10.16-10,15.4C87.07,292.17,86.91,292.73,86.29,292.84Z" transform="translate(-9.26 -43)"/><path class="cls-8" d="M88,295.22a.71.71,0,0,1-.61-.39c-.23-.34,0-.61.17-.87.84-1.42,1.69-2.85,2.56-4.26a229.82,229.82,0,0,1,16.15-22.87,162.84,162.84,0,0,1,14.45-15.59c2.61-2.5,5.41-4.79,8.21-7.06a38.5,38.5,0,0,0,5.83-6.33c4.89-6.23,9.38-12.76,13.73-19.38,4.15-6.3,8-12.8,11.68-19.37A41.88,41.88,0,0,1,169,188.82a88.28,88.28,0,0,1,10.06-7.75c.2-.13.41-.24.59-.38.42-.31.9-.52,1.23,0s-.21.82-.59,1.06a75.06,75.06,0,0,0-14.79,12.36,40.23,40.23,0,0,0-5.75,8.21c-4.11,7.62-8.84,14.85-13.68,22-2.87,4.25-5.86,8.4-8.94,12.49a58.8,58.8,0,0,1-10.32,10.77,110.24,110.24,0,0,0-13.08,12.59,193.06,193.06,0,0,0-12.67,15.55c-4.23,5.8-8.19,11.78-11.83,18C88.88,294.26,88.65,294.92,88,295.22Z" transform="translate(-9.26 -43)"/><path class="cls-8" d="M262.54,298.66c.12-.48.28-1.13.45-1.78,1.5-5.77,2.86-11.57,3.92-17.44a81.29,81.29,0,0,0,1.76-17.19c-.24-7.62,1.61-14.82,4.57-21.76.33-.75.23-1-.54-1.23A175.89,175.89,0,0,1,250.64,231c-5.27-2.33-10.48-4.79-15.59-7.46-5.66-3-11.27-6-16.75-9.32-.13-.08-.25-.19-.39-.27-.37-.23-.63-.52-.4-1s.66-.27,1-.08c1.26.71,2.52,1.44,3.77,2.17q12.1,7.08,24.81,12.95a203.13,203.13,0,0,0,23.21,9.24c1.22.4,2.46.78,3.71,1.1.93.24,1.21.66.8,1.6a56.08,56.08,0,0,0-3.28,9.27,54.35,54.35,0,0,0-1.52,9c-.12,1.67,0,3.3,0,5A79.64,79.64,0,0,1,269,274.57,232,232,0,0,1,264,298c-.1.39-.17.78-.3,1.15s-.33.71-.75.62S262.54,299.21,262.54,298.66Z" transform="translate(-9.26 -43)"/><path class="cls-8" d="M259.81,298.47c.75-3.29,1.48-6.29,2.11-9.3,1.08-5.14,2-10.29,2.77-15.5.44-3.13.6-6.28.86-9.43.1-1.17-.21-2.35-.2-3.55a46.26,46.26,0,0,1,3.92-18.3c.38-.86,0-1-.61-1.18a170.05,170.05,0,0,1-18.29-6.66,257.57,257.57,0,0,1-24-11.68c-3.4-1.88-6.78-3.78-10.11-5.79-.5-.3-1.57-.54-1.08-1.37s1.18,0,1.7.31c7.25,4.4,14.71,8.42,22.33,12.12a207.56,207.56,0,0,0,26.58,10.92c1.27.41,2.55.76,3.82,1.15,1.58.49,1.68.69.95,2.25a45.51,45.51,0,0,0-2.73,7.95,53.34,53.34,0,0,0-1.28,9.49c-.07,1,.17,2.05.18,3.08a87.63,87.63,0,0,1-1.45,15.08c-1.1,6.74-2.51,13.43-4.16,20.06-.12.46-.15,1-.8,1A.58.58,0,0,1,259.81,298.47Z" transform="translate(-9.26 -43)"/><path class="cls-12" d="M230.8,122.28a33.15,33.15,0,0,0-.17,5.9c0,.62-.06.92-.86.74-5.2-1.15-10.43-2.12-15.68-3-1.07-.18-2.14-.42-3.22-.52-.68-.07-.75-.42-.7-1,.22-2.23.46-4.47.64-6.7.05-.69.4-.77.92-.73a48.11,48.11,0,0,1,6.32,1c3.77.79,7.53,1.65,11.24,2.7C230,121,231.09,120.93,230.8,122.28Z" transform="translate(-9.26 -43)"/><path class="cls-12" d="M187.59,128.72a23,23,0,0,0-.2-4.19,3.15,3.15,0,0,1,.05-1.18A.45.45,0,0,1,188,123a.4.4,0,0,1,.33.43,52.1,52.1,0,0,1,.14,8.19c-.13,1-.08,2.05-.13,3.08-.36,8-1.21,15.83-3.72,23.44-.26.79-.59,1.55-.91,2.31-.09.23-.23.44-.53.34s-.29-.38-.23-.59c.1-.42.28-.82.42-1.23a69.38,69.38,0,0,0,3.34-15.36c.38-3.46.64-6.92.74-10.4C187.46,131.73,187.56,130.26,187.59,128.72Z" transform="translate(-9.26 -43)"/><path class="cls-12" d="M231.28,161.29l-.46.74a25.54,25.54,0,0,1-9.16-2.64c-2.7-1.27-5.25-2.85-8.18-3.55a27.94,27.94,0,0,0-11.11-.66c-.43.07-.84.18-.87-.4s.42-.57.82-.62a29,29,0,0,1,18.59,3.73,24.44,24.44,0,0,0,9.85,3.2A2.07,2.07,0,0,1,231.28,161.29Z" transform="translate(-9.26 -43)"/><path class="cls-12" d="M222.79,116c-4.47,0-7.53-1.82-10.4-4.09a13.61,13.61,0,0,1-3.23-3.24c-.19-.28-.64-.55-.28-.89s.68.12.94.37c1.13,1.09,2.18,2.26,3.42,3.25,3,2.36,6.19,4,10.1,3.62a7.68,7.68,0,0,0,4.56-1.92c.38-.34.71-.74,1.09-1.08s.57-.88,1-.37-.07.79-.37,1.11A9.24,9.24,0,0,1,222.79,116Z" transform="translate(-9.26 -43)"/><path class="cls-12" d="M229.76,169.45a2.81,2.81,0,0,1-2.69,2.68c0-.58,0-1.17,0-1.76.44-.67.11-1.43.23-2.13Z" transform="translate(-9.26 -43)"/><path class="cls-7" d="M291.74,317.52a43.91,43.91,0,0,1,10.06.64q10.81.63,21.62,1.62c.68.06,5.23.54,14.33,1.51.27,0,1,.1,1.86.23,1.74.25,3,.53,3.46.61q5.51,1,10.87,2a16.33,16.33,0,0,1,3.52,1.29c.68.37,1.57.7,1.57,1.61s-.89,1.34-1.61,1.7a23.44,23.44,0,0,1-5.46,1.79,183.08,183.08,0,0,1-19.22,2.94c-8.31.91-16.65,1.6-25,2.16q-7.67.53-15.34.94c-7.15.38-14.29.72-21.45,1L258.3,338c-6.85.21-13.69.35-20.54.52-3.6.1-7.2.11-10.8.18-22.31.44-44.63.27-67,.15-8.45-.05-16.9-.28-25.35-.47q-8-.18-16-.47-9.09-.31-18.18-.71c-6.09-.28-12.18-.57-18.27-1-7.57-.49-15.14-1-22.69-1.67a249.34,249.34,0,0,1-28.8-3.76,26.39,26.39,0,0,1-6.93-2.14c-.66-.34-1.44-.65-1.45-1.55s.78-1.34,1.48-1.67A34.86,34.86,0,0,1,32.75,323c7.68-1.47,15.46-2.27,23.23-3,5.25-.51,10.52-.84,15.78-1.25-.1,1-.19,2.09-.29,3.13a20.18,20.18,0,0,0-2.58,0c-4.36.56-8.76.78-13.08,1.62a24.78,24.78,0,0,0-4,1,1.21,1.21,0,0,0-.89.86c-.08.5.45.6.8.73a12,12,0,0,0,1.67.53c6.25,1.46,12.63,1.81,19,2.37,4.57.4,9.16.7,13.75.94,3.23.16,6.47.34,9.7.47,3.86.15,7.72.34,11.58.48,4.91.19,9.83.23,14.75.49,3.19.17,6.4,0,9.6.21,3.86.29,7.73,0,11.61.23,5.81.28,11.65.21,17.47.23,21.61.06,43.22.32,64.82-.17,4-.09,8,0,12.08-.18,4.88-.23,9.77,0,14.66-.29,2.1-.11,4.21-.12,6.31-.18,5.51-.14,11-.37,16.51-.53,3.16-.1,6.31-.36,9.47-.44,5.15-.14,10.28-.54,15.42-.78,2.53-.11,5.07-.24,7.58-.5,4.33-.45,8.68-.74,13-1.39a43.39,43.39,0,0,0,6.39-1.32c.48-.15,1.2-.27,1.17-1s-.67-.68-1.14-.84a30.83,30.83,0,0,0-5.7-1.24c-4.12-.63-8.26-1-12.41-1.35-2.45-.2-4.9-.35-7.34-.53-3.5-.26-7-.46-10.5-.65-1.54-.7-2.92-1.77-4.59-2.2A32.88,32.88,0,0,1,291.74,317.52Z" transform="translate(-9.26 -43)"/><path class="cls-12" d="M291.18,320.58c3.5.19,7,.39,10.5.65,2.44.18,4.89.33,7.34.53,4.15.33,8.29.72,12.41,1.35a30.83,30.83,0,0,1,5.7,1.24c.47.16,1.12.21,1.14.84s-.69.83-1.17,1a43.39,43.39,0,0,1-6.39,1.32c-4.32.65-8.67.94-13,1.39-2.51.26-5,.39-7.58.5-5.14.24-10.27.64-15.42.78-3.16.08-6.31.34-9.47.44-5.5.16-11,.39-16.51.53-2.1.06-4.21.07-6.31.18-4.89.25-9.78.06-14.66.29-4,.2-8,.09-12.08.18-21.6.49-43.21.23-64.82.17-5.82,0-11.66.05-17.47-.23-3.88-.19-7.75.06-11.61-.23-3.2-.23-6.41,0-9.6-.21-4.92-.26-9.84-.3-14.75-.49-3.86-.14-7.72-.33-11.58-.48-3.23-.13-6.47-.31-9.7-.47-4.59-.24-9.18-.54-13.75-.94-6.35-.56-12.73-.91-19-2.37a12,12,0,0,1-1.67-.53c-.35-.13-.88-.23-.8-.73a1.21,1.21,0,0,1,.89-.86,24.78,24.78,0,0,1,4-1c4.32-.84,8.72-1.06,13.08-1.62a20.18,20.18,0,0,1,2.58,0c0,.7-.07,1.4-.11,2.09-.28,3.18-.13,3.36,2.91,3.36H96.55c1.77,0,1.77,0,1.76-1.85,0-.42.11-.88-.17-1.27a15.65,15.65,0,0,0-.56-3.53c.07-.49.43-.46.79-.5,3.22-.35,6.46-.27,9.69-.41,5-.22,9.91-.27,14.86-.52,3.23-.16,6.47,0,9.72-.21,4-.29,8,0,12.06-.23,5.54-.31,11.1-.2,16.64-.21,19.48-.06,39-.33,58.44.12,7.07.17,14.15,0,21.22.26,4.33.16,8.67.18,13,.27l.23,0c0,.14,0,.28,0,.42l-.12.27a32.4,32.4,0,0,0-.21,5.21c-.06,2.07.23,2.39,2.16,2.39h36.84c1.72,0,2.14-.6,1.65-2.36-.16-1.77-1.45-2.76-2.59-3.85C291.71,321,291.44,320.81,291.18,320.58Z" transform="translate(-9.26 -43)"/><path class="cls-10" d="M209.21,172.58a3.6,3.6,0,0,1,.62-2.32c.24-.35.46-.7.92-.56a.89.89,0,0,1,.54,1.07,9.48,9.48,0,0,1-.52,2c-.2.49-.5,1.16-1.14,1S209.29,173,209.21,172.58Z" transform="translate(-9.26 -43)"/><path class="cls-7" d="M254.24,319.18l-.23,0c-4.34-.09-8.68-.11-13-.27-7.07-.26-14.15-.09-21.22-.26-19.48-.45-39-.18-58.44-.12-5.54,0-11.1-.1-16.64.21-4,.22-8-.06-12.06.23-3.25.24-6.49.05-9.72.21-5,.25-9.91.3-14.86.52-3.23.14-6.47.06-9.69.41-.36,0-.72,0-.79.5l-1.41-3.35c6.36-.34,12.73-.57,19.1-.79,8.17-.29,16.34-.51,24.51-.71,11-.28,21.91-.33,32.87-.5s21.68-.18,32.51-.06c7.17.08,14.33.06,21.49.2q11.15.21,22.29.46c1.87.05,3.75.14,5.63.21A23.22,23.22,0,0,1,254.24,319.18Z" transform="translate(-9.26 -43)"/><path class="cls-15" d="M254.1,319.87l.12-.27Z" transform="translate(-9.26 -43)"/><path class="cls-10" d="M246.35,165.36l-.09-.45c1.2-.42,1.78-1.64,2.84-2.25.44-.25.82-.61,1.26-.87.29-.17.63-.72,1-.19s-.31.6-.57.83c-.54.48-1.29.71-1.84,1.52a14.54,14.54,0,0,1,4.3-.49c.23,0,.51,0,.56.3s-.19.41-.44.4a22.82,22.82,0,0,0-6.64,1.21A2.1,2.1,0,0,1,246.35,165.36Z" transform="translate(-9.26 -43)"/><path class="cls-16" d="M239.72,199.91c.05-.1,0-.35.18-.26s0,.24-.1.33Z" transform="translate(-9.26 -43)"/><path class="cls-14" d="M212.47,83.12a.29.29,0,0,1-.18-.05,10.28,10.28,0,0,1,1.12-10.14,6,6,0,0,1,4.48-2.71,15.91,15.91,0,0,1-1.21,6.21A17.33,17.33,0,0,1,212.47,83.12Z" transform="translate(-9.26 -43)"/><path class="cls-8" d="M212.47,83.12a17.33,17.33,0,0,0,4.21-6.69,15.91,15.91,0,0,0,1.21-6.21,1,1,0,0,1,1-.13,21,21,0,0,1-5.36,13.55c-.12.15-.22.32-.34.48A1.39,1.39,0,0,1,212.47,83.12Z" transform="translate(-9.26 -43)"/><path class="cls-4" d="M236.36,88.88A1.77,1.77,0,0,1,238,90.69a2.71,2.71,0,0,1-2.34,2.67c-1,0-1.57-.67-1.59-1.79A2.63,2.63,0,0,1,236.36,88.88Z" transform="translate(-9.26 -43)"/><path class="cls-5" d="M217.18,87.67a3.79,3.79,0,0,1-.91-1.22l1.65.4C217.29,86.77,217.51,87.48,217.18,87.67Z" transform="translate(-9.26 -43)"/><path class="cls-13" d="M233.63,81.41c0-1,.88-2.18,1.62-2.17.58,0,.69.42.69.88,0,.93-1,2.22-1.66,2.2S233.61,81.89,233.63,81.41Z" transform="translate(-9.26 -43)"/><path class="cls-13" d="M244,84.68c0,.94-.94,2.23-1.63,2.2s-.69-.44-.69-.91c0-.94.94-2.18,1.65-2.17S244,84.21,244,84.68Z" transform="translate(-9.26 -43)"/><path class="cls-9" d="M289.19,109.36a44.49,44.49,0,0,1-5.58,6.09,24.89,24.89,0,0,1-2.7,2.25c-2.33,1.63-4.43,2.31-8.52,4.8q-2.56,1.56-5.22,3c-.78.42-1.68.12-2.42.71a197.6,197.6,0,0,1-21,14.34,94.27,94.27,0,0,1-18.14,8.85,14.88,14.88,0,0,1-12.56-1.08,37,37,0,0,1-7.39-5.62,74.69,74.69,0,0,1-7.45-8.34c1-.24,10.64-2.65,13-10.5a12.71,12.71,0,0,0,.51-4.51c1.7,3.27,2.94,5.8,3.91,8a9,9,0,0,0,2.94,4,7.53,7.53,0,0,0,2,1,14.6,14.6,0,0,1,.83,4c.05.77.07,2.12.12,2.12a.59.59,0,0,0,0-.19,4.58,4.58,0,0,0,0-1c-.16-2.94,0-3,0-3s.29.21.63,1a.52.52,0,0,1,.31.08c.25.18.39.51.33.55s-1.49-1.2-1.27-1.63c.13-.25.77-.27,1,0s0,1,0,1l-1-2v-1a68.28,68.28,0,0,0,11.76-4.56c.64-.32,1.26-.64,1.87-1a29.44,29.44,0,0,0,4.6-2c5.38-2.62,10.73-5.29,16.09-8a7.85,7.85,0,0,0,.76-.52.48.48,0,0,0,.12,0c1.81-.64,3.29-1.41,3.87-3.66.95-3.7,3.69-6.27,6.3-8.85a21.77,21.77,0,0,1,5.12-4.11c.46-.24,1-.61,1.52-.1s.1,1-.13,1.54a31.87,31.87,0,0,1-3.37,5,3.71,3.71,0,0,0-.88,2.14,25.15,25.15,0,0,1,8.21-4.77c.91-.29,2.66-.79,2.94-2s-1.35-2.27-1-3c.54-1,4.62-.31,4.9,1,.09.4-.21.76,0,1s1.07-.33,2,0a1.65,1.65,0,0,1,1,1c.14.47-.14.65,0,1,.28.68,1.52.31,2,1s-.38,1.2,0,2c.25.54.65.41,1,1a2.21,2.21,0,0,1,0,2A2.29,2.29,0,0,1,289.19,109.36Z" transform="translate(-9.26 -43)"/><path class="cls-9" d="M189.23,115.3c-.43-1.58-1.41-2.9-1.91-4.45-1.69-5.2,2.17-11.26,7.53-11.91a9.5,9.5,0,0,1,9.72,5.37,8.08,8.08,0,0,0,1.64,2.72,25.32,25.32,0,0,0,2,4.25c1.78,3.65,3.55,7.3,5.06,11.07a24.76,24.76,0,0,0-9,1.8,27.58,27.58,0,0,0-8.32,5.12c-.8-1.22-1.08-2.7-1.94-3.88a13.6,13.6,0,0,0-1.33-3.14A69.09,69.09,0,0,0,189.23,115.3Z" transform="translate(-9.26 -43)"/><path class="cls-12" d="M195.05,128.88a34.34,34.34,0,0,1,16.89-7.75,11,11,0,0,1,4,5.25,1.17,1.17,0,0,1,0,.9,68.49,68.49,0,0,0-15.26,6.7l-1.59.93c-.82-.42-1-1.27-1.78-1.69C196.54,131.77,195.39,130.49,195.05,128.88Z" transform="translate(-9.26 -43)"/><path class="cls-10" d="M221.59,132.23h-1A10.15,10.15,0,0,1,221,136a10.74,10.74,0,0,0,0,2.12c0,.23,0,.55.26.59s.43-.29.44-.56c0-1,.05-2.1.07-3.16.51,0,.45.43.63.65s.15.88.62.67.18-.7,0-1l-1.06-2.1C221.92,133,221.76,132.63,221.59,132.23Z" transform="translate(-9.26 -43)"/><path class="cls-10" d="M276.13,108.56a8.56,8.56,0,0,0-.89-1.26c-.27-.27-.57-.89-1-.5s0,.93.25,1.22a8.22,8.22,0,0,1,1.4,2.41,12,12,0,0,1,1.13,5.86c0,.4-.19.88.35,1s.6-.53.64-.9A13.86,13.86,0,0,0,276.13,108.56Z" transform="translate(-9.26 -43)"/><path class="cls-10" d="M268.13,111.56a11.28,11.28,0,0,0-3.23,4.86c-.11.33-.35.84.2,1s.62-.3.75-.69a8.14,8.14,0,0,1,5.58-5.58c.36-.11.71-.23.56-.71s-.49-.29-.8-.25A10.53,10.53,0,0,0,268.13,111.56Z" transform="translate(-9.26 -43)"/><path class="cls-17" d="M292.65,119.37l8.67-6.31c1.44-1,2.33-.9,3.36.53.69,1,1.39,1.92,2.06,2.9a2,2,0,0,1-.5,3c-.5.38-1,.74-1.52,1.11l-17.25,12.63a2.36,2.36,0,0,0-.86.94c-.74,0-1.12.61-1.66.95a1.93,1.93,0,0,1-2.8-.39c-.85-1.09-1.65-2.22-2.4-3.37a2,2,0,0,1,.59-2.89c2.55-1.9,5.11-3.78,7.66-5.67Z" transform="translate(-9.26 -43)"/><path class="cls-8" d="M277,82.74,258.56,95.51c-1.43-.17-2-1.31-2.71-2.36-1.35-2-1.25-2.65.7-4l1.36-.92,3.47-2.43,4.73-3.28,6.13-4.18c1.42-1,2.05-.85,3,.55.38.56.72,1.15,1.14,1.67A2.72,2.72,0,0,1,277,82.74Z" transform="translate(-9.26 -43)"/><path class="cls-17" d="M264.72,100.59l-1.59,1.08-1,.67a2.13,2.13,0,0,1-3.22-.57c-.79-1-1.53-2.12-2.22-3.22a2,2,0,0,1,.6-3L259,94.36l18.3-13c.51-.37,1-.76,1.52-1.11,1.22-.82,2.15-.63,3.05.64.71,1,1.4,2,2.08,3,.93,1.37.77,2.37-.52,3.3l-8.62,6.19-4.7,3.33Z" transform="translate(-9.26 -43)"/></g></g></g></svg>