<svg xmlns="http://www.w3.org/2000/svg" xmlns:xlink="http://www.w3.org/1999/xlink" viewBox="0 0 350.11 306.85"><defs><style>.cls-1{fill:none;}.cls-2{clip-path:url(#clip-path);}.cls-3{fill:#ffaa8a;}.cls-4{fill:#fecdb2;}.cls-5{fill:#fefefe;}.cls-6{fill:#ea7353;}.cls-7{fill:#334a52;}.cls-8{fill:#feab8b;}.cls-9{fill:#fe7e59;}.cls-10{fill:#edb78f;}.cls-11{fill:#f9a788;}.cls-12{fill:#516266;}.cls-13{fill:#feba3f;}.cls-14{fill:#020101;}.cls-15{fill:#1c1a12;}.cls-16{fill:#f7682f;}.cls-17{fill:#8f85de;}.cls-18{fill:#ff7f55;}</style><clipPath id="clip-path" transform="translate(-5.07 -14.66)"><polyline class="cls-1" points="0.55 0 357.55 0.57 357 343.71 0 346"/></clipPath></defs><title>imgBanner1_1</title><g id="Capa_2" data-name="Capa 2"><g id="Capa_1-2" data-name="Capa 1"><g class="cls-2"><path class="cls-3" d="M224.59,18.51c2.14-.12,4.22-.67,6.36-.81a8,8,0,0,1,2.3.15c.76.16.87.65.27,1.18a6.91,6.91,0,0,1-2.45,1.27c-1.49.51-3,1-4.5,1.57,1.33-.09,2.67-.12,4-.28a18.72,18.72,0,0,1,5.18.08c.51.09,1.14.13,1.22.75s-.59.78-1.05.94A62.38,62.38,0,0,1,227,25.5a2.66,2.66,0,0,0-1.1.37c2.52.14,5-.11,7.4.31.71.13,1.78,0,1.88.82s-1,.89-1.69,1.08A72,72,0,0,1,223.16,30l-4.22.57a3.29,3.29,0,0,0,2.09.54,28.64,28.64,0,0,1,5.63.25c.5.11,1.11.13,1.22.77s-.5.89-.94,1.11a20.26,20.26,0,0,1-6,1.61c-3.4.54-6.87,1.18-10.16-.19-2-.83-3.41-.13-4.92.9a.31.31,0,0,0-.07.09A8,8,0,0,0,205,36q-7.77,4-15.52,8.13a21.64,21.64,0,0,0-3.63,2.12l-1.77.89c-4.08,2.09-7,3.94-10.55,6.1a14,14,0,0,1-1.85,0c-.32,0-3.64-.25-3.7-.95s3.71-1.88,3.7-1.88h0s0-.52.07-.53.19.23.28.68c.05.26.4.47.1.86-2.24.52-3,.31-3.23-.07-.32-.58.51-1.88.4-1.93s-.11.07-.16.16.11.4.27.55a11.56,11.56,0,0,0,1.51,1.29c.66.41,1.48,1,2.61,1.82.47,2.48.47,2.51.47,2.51.23,1.21.75,3.78,2,9.82a50.56,50.56,0,0,1-16.78,4.8c-1.55-6-2.66-12-2.14-18.24a14.73,14.73,0,0,1,6.47-11.39,90.79,90.79,0,0,1,16.88-8.91,184.21,184.21,0,0,1,22.56-8c.86-.25,1.15-1.1,1.9-1.47,1.7-.83,3.41-1.61,5.16-2.33a92.4,92.4,0,0,1,15.83-5c.45-.1,1,.05,1.36-.34h2.22c0,.95-.71,1.38-1.35,1.78-1.16.73-2.37,1.36-3.56,2l-.48.11a.14.14,0,0,0,.07.08C224.25,18.74,224.43,18.68,224.59,18.51Zm-4.76,8.38c.71-5.59.52-7.39,0-7.53-.25-.07-.77.21-.92,0s.14-.63.09-.65-.15.11-.18.27.19.46.34.69A11.54,11.54,0,0,1,221.05,25a8,8,0,0,1,0,2.77c-.13,0-.42-.76-.29-.86s1.05.65.93.95-.86.2-.93,0,1-.69.93-.94S221.22,26.69,219.83,26.89Zm-4.8.62c1.85-.74,2.68-.85,3.08-.77l.79.15h0c-.88-.1-.92,0-.92,0-.09.19,1,.64.92.94-.09.46-2.81.26-4.62,0-.39-.05-1.49-.35-3.7-.94-1.05-.29-1.77-.49-1.85-.95s.62-1.11.66-1.08-.09.12-.07.28.35.45.55.59A10.44,10.44,0,0,0,215,27.51Z" transform="translate(-5.07 -14.66)"/><path class="cls-4" d="M316.57,301.23c1.24,3.58,13,2,13.88,1.91.22.07.73.22.92,0s0-1-.67-1.78l-13.82-2.29A2.82,2.82,0,0,0,316.57,301.23Z" transform="translate(-5.07 -14.66)"/><path class="cls-5" d="M73,283.1a8.68,8.68,0,0,0-1.45-2.59c-.32-.46-.59-.44-.86.11-.63,1.29-.5,1.69.93,2.51a5.29,5.29,0,0,0,1.89,1.25A2.36,2.36,0,0,0,73,283.1Zm4.57,1.52a13.91,13.91,0,0,0,3.89-3.08,1,1,0,0,0,0-1.58c-.55-.48-1-.18-1.43.26A12.72,12.72,0,0,0,77.58,284.62Z" transform="translate(-5.07 -14.66)"/><path class="cls-6" d="M230.88,185.56A46.1,46.1,0,0,1,237,189c8.42,4.94,16.72,10.08,24.75,15.66a31.43,31.43,0,0,1,8.49,8.17,12.6,12.6,0,0,1,2.45,7.36,47.72,47.72,0,0,1-1.36,11.15,185.62,185.62,0,0,1-9,25.07q-5.47,13-11.76,25.53c-.24.48-.37,1.12-1.13,1a90.49,90.49,0,0,0-9.1-1.54c-.52-.08-.51-.41-.43-.83,1.07-6.22,1.9-12.47,2.55-18.74.35-3.4.62-6.81.73-10.23.24-7.59.58-15.16,2.5-22.56.56-2.18.52-2.16-1.52-3.07-10.33-4.57-20.76-8.91-30.86-14-5.2-2.62-10.19-5.64-15.11-8.77a2.51,2.51,0,0,0-1.32-.49,68,68,0,0,1-17.23-2.7,2.15,2.15,0,0,0-2.27.55q-18.12,15.85-36.26,31.66l-27.92,24.4c-4.38,3.83-15.42,10.75-27,23.58l-.83.92A10.94,10.94,0,0,0,84.1,280a9.45,9.45,0,0,0-1.12-.72h0a.34.34,0,0,0-.32-.24L82,278.4l-7.79-6.33c3.3-5,6.62-10,9.9-15,2.55-3.88,4.94-7.87,7.59-11.67,3.23-4.62,7.39-8.39,11.54-12.15s8.6-7.34,13-10.9c1.71-1.38,2.8-3.39,4.13-5.14,7-9.22,13-19.11,18.87-29.06,6.2-10.43,14.22-19.2,24.6-25.53a2.57,2.57,0,0,1,.38-.23,6.29,6.29,0,0,0,4.14-4.31c7.56,3.48,15.56,5.19,23.75,6.18,2.78.34,5.56.58,8.35.75a80.39,80.39,0,0,0,10.06.06c.17.33.37.64.51,1a25,25,0,0,1,1.4,7.46,2.53,2.53,0,0,0,1.68,2.53c-.68.41-1.55.41-2.23,1.1,1.09.54,2.08,1.1,3.12,1.54.84.36,1,.8.64,1.65a13,13,0,0,0-1.15,5.57c.1,1.18,1.05,1.62,2,.89a6.34,6.34,0,0,0,1.62-2c.64-1.2,1.32-2.36,2-3.53a7.65,7.65,0,0,1-1,3.33,8.13,8.13,0,0,0-1,3.18c0,.72-.1,1.5.77,1.8s1.29-.26,1.77-.81c.92-1.08,1.5-2.41,2.35-3.54l.07.07a3.15,3.15,0,0,1,0,.44,16.5,16.5,0,0,0-.64,3.17c0,.55,0,1.22.57,1.48s.93-.28,1.31-.62a12.57,12.57,0,0,0,2.44-3.19c0,.79-.1,1.53-.16,2.27s-.18,1.58.71,1.94,1.68-.5,2-.79C230.75,188.73,230.87,186.3,230.88,185.56Zm-153,87.55c.59-.11.74-.64,1-1,3-5,6.08-9.85,9.44-14.57,2.54-3.58,5.17-7.1,8-10.5,2.24-2.74,4.59-5.38,7-8a112.42,112.42,0,0,1,11.28-10.77,48.51,48.51,0,0,0,7-6.55Q127.52,214,133,205.9a235.6,235.6,0,0,0,13-21,36.85,36.85,0,0,1,5.27-7.48,74.47,74.47,0,0,1,13.4-11.35c.49-.33,1.63-.53,1.15-1.31s-1.29.07-1.84.43a78.11,78.11,0,0,0-10,7.8,39.54,39.54,0,0,0-7.9,9.49c-2.79,4.91-5.57,9.82-8.62,14.56-4.72,7.35-9.62,14.57-15,21.46a37.5,37.5,0,0,1-4.87,5.5c-3.06,2.64-6.26,5.12-9.17,7.94A162.29,162.29,0,0,0,95,246.66a219.55,219.55,0,0,0-15.24,21.66c-.75,1.2-1.45,2.44-2.15,3.68C77.36,272.42,77.32,272.86,77.86,273.11Zm1.65,2.25c.58-.28.8-.9,1.11-1.44q5.17-8.79,11.21-17a181.86,181.86,0,0,1,12-14.72,105.35,105.35,0,0,1,12.37-11.91,55,55,0,0,0,9.76-10.18q4.38-5.79,8.46-11.82a245.21,245.21,0,0,0,12.95-20.83,38,38,0,0,1,5.45-7.77,70.76,70.76,0,0,1,14-11.69c.35-.22.93-.42.56-1s-.77-.29-1.16,0c-.18.14-.37.25-.56.37a81,81,0,0,0-9.51,7.33,39.65,39.65,0,0,0-8.32,9.72c-3.51,6.22-7.12,12.37-11,18.33-4.13,6.27-8.37,12.45-13,18.34a36.45,36.45,0,0,1-5.51,6c-2.66,2.15-5.3,4.31-7.77,6.67A159,159,0,0,0,96.8,248.49a218.61,218.61,0,0,0-15.28,21.65c-.83,1.33-1.63,2.68-2.43,4-.14.24-.37.5-.16.82A.69.69,0,0,0,79.51,275.36Zm164.76,3.53c0,.51,0,.91.37,1s.59-.27.71-.59.19-.72.28-1.08a219.73,219.73,0,0,0,4.73-22.15,77.22,77.22,0,0,0,1-10.83c0-1.56-.13-3.11,0-4.7a50.85,50.85,0,0,1,1.45-8.5,54.48,54.48,0,0,1,3.1-8.78c.4-.89.13-1.29-.75-1.52-1.18-.3-2.34-.66-3.5-1a193.16,193.16,0,0,1-21.9-8.79c-8-3.74-15.8-7.82-23.41-12.3-1.18-.7-2.36-1.39-3.55-2.07-.32-.17-.69-.44-.94.08s0,.7.38.92c.13.07.24.18.37.25,5.17,3.14,10.46,6,15.8,8.86,4.82,2.54,9.73,4.88,14.71,7.09A165.32,165.32,0,0,0,254,222.63c.74.21.82.45.52,1.16a48.31,48.31,0,0,0-4.35,20.61,77.38,77.38,0,0,1-1.69,16.28c-1,5.56-2.31,11.06-3.73,16.52C244.54,277.82,244.39,278.43,244.27,278.89Zm-2.57-.19a.54.54,0,0,0,.49.58c.62.06.65-.48.76-.91,1.57-6.28,2.91-12.61,4-19a83.34,83.34,0,0,0,1.39-14.28c0-1-.23-2-.17-2.91a49.49,49.49,0,0,1,1.23-9,43.31,43.31,0,0,1,2.59-7.54c.69-1.48.59-1.66-.9-2.13-1.2-.37-2.41-.71-3.6-1.1A195.74,195.74,0,0,1,222.36,212c-7.18-3.52-14.22-7.33-21.06-11.52-.49-.29-1.15-1.06-1.6-.29s.55,1,1,1.3c3.13,1.9,6.32,3.71,9.53,5.5a242.79,242.79,0,0,0,22.62,11.1,161.57,161.57,0,0,0,17.27,6.34c.58.17.93.3.57,1.12A43.89,43.89,0,0,0,247,242.92c0,1.13.27,2.25.18,3.36-.26,3-.41,6-.83,8.94-.7,4.92-1.61,9.81-2.64,14.67C243.1,272.74,242.41,275.58,241.7,278.7Z" transform="translate(-5.07 -14.66)"/><path class="cls-7" d="M211.39,97a36.69,36.69,0,0,1,11.53,6.48,7.15,7.15,0,0,1,2.41,5.71c-.07,1-.09,2-.22,3-.4,3.22-.87,6.44-1,9.69a85.7,85.7,0,0,0,.6,12,13.21,13.21,0,0,1-1.32,7.18A28.81,28.81,0,0,1,215,148.7a1.56,1.56,0,0,0-.49-.19,23,23,0,0,1-9.3-3,27.26,27.26,0,0,0-17.54-3.56c-.38,0-.8.08-.78.59s.41.44.82.38a26.2,26.2,0,0,1,10.5.64c2.76.67,5.17,2.17,7.71,3.37a23.83,23.83,0,0,0,8.65,2.52c-.34,2.34-.67,4.68-1,7l-2.32-1.15c-.71-.3-1.41-.64-2.14-.91A64.27,64.27,0,0,0,192.68,151c-5.13-.53-10.29-.63-15.45-.71-2.28,0-4.57.13-6.85.2-1.44,0-2.87.43-4.32.15a79.57,79.57,0,0,0,3.53-15.21c.24-2.09.46-4.19.56-6.29a148.64,148.64,0,0,0-.19-17.91,48.1,48.1,0,0,1-.17-9.67,18.85,18.85,0,0,1,1.75-6.47,10.55,10.55,0,0,1,4.77-5,11.15,11.15,0,0,1,3.7-.94c4.52-.58,8.17.59,8.32,0,0,0,0-.13-.1-.25l4.66.25a15.9,15.9,0,0,0,6.91,9c3.32,2,6.73,2.48,10.13.05C210.45,97.78,210.77,97.19,211.39,97Zm3.18,14.85c.29-1.28-.73-1.26-1.41-1.46-3.5-1-7-1.86-10.59-2.64a44.74,44.74,0,0,0-6-1c-.49,0-.83,0-.88.68-.18,2.12-.43,4.24-.65,6.35-.06.5,0,.84.65.91,1,.1,2,.34,3,.51,4.95.86,9.88,1.83,14.78,3,.76.18.8-.11.82-.7A32.41,32.41,0,0,1,214.57,111.81Zm-40.81,6c0,1.46-.13,2.85-.17,4.23-.11,3.3-.36,6.57-.72,9.85a66.33,66.33,0,0,1-3.18,14.55c-.14.39-.3.77-.4,1.16,0,.21,0,.47.22.57s.41-.12.5-.33c.3-.72.62-1.44.87-2.19,2.38-7.2,3.19-14.66,3.54-22.2,0-1,0-1.93.13-2.91a49,49,0,0,0-.13-7.76c0-.2-.09-.39-.3-.41a.43.43,0,0,0-.5.35,3.27,3.27,0,0,0-.05,1.12A21.41,21.41,0,0,1,173.76,117.78Zm33.25-12a8.77,8.77,0,0,0,6.48-3.06c.28-.31.68-.68.35-1.06s-.69.12-1,.36-.68.69-1,1a7.23,7.23,0,0,1-4.32,1.8c-3.69.36-6.72-1.19-9.53-3.44-1.16-.93-2.15-2-3.22-3.08-.24-.24-.5-.72-.89-.35s.09.58.26.85a13.27,13.27,0,0,0,3,3.07C199.9,104.08,202.8,105.82,207,105.82Z" transform="translate(-5.07 -14.66)"/><path class="cls-4" d="M330.57,301.34c4.81.79,9.62,1.6,13.89,4.18,1.68,1,1.63,2.43,0,3.5a25.32,25.32,0,0,1-8.09,3c-5.05,1.22-10.17,2-15.31,2.73-4.66.69-9.34,1.17-14,1.71-3.62.42-7.26.62-10.89.94q-7.59.67-15.2,1.13c-3.64.22-7.27.45-10.91.66q-6.69.38-13.36.66c-3.57.16-7.15.29-10.72.44-4.46.18-8.92.28-13.38.43-6.05.21-12.1.25-18.15.44-4.84.16-9.67,0-14.51.17-15.63.41-31.26.15-46.89,0-4.95,0-9.91.05-14.84-.23-3.4-.19-6.8,0-10.19-.21-5.12-.23-10.25-.33-15.38-.49-3.94-.12-7.88-.33-11.82-.46-4.83-.16-9.65-.43-14.47-.69q-5.89-.3-11.8-.69c-4.3-.29-8.6-.59-12.89-.93s-8.81-.69-13.19-1.16-8.92-1-13.38-1.52c-5.95-.74-11.87-1.61-17.75-2.81A47.54,47.54,0,0,1,8,309.39,6,6,0,0,1,5.5,307.7a1.39,1.39,0,0,1,.09-2.09c1.68-1.68,3.89-2.28,6-2.91a120.31,120.31,0,0,1,17.55-3.39c4.69-.64,9.4-1.24,14.12-1.75,3.62-.4,7.25-.63,10.88-.94,3.23-.27,6.45-.56,9.68-.84a2.62,2.62,0,0,1,.55.05,4.83,4.83,0,0,1-.3,1.72c-5,.38-9.94.68-14.9,1.16-7.34.71-14.68,1.46-21.94,2.84a33.69,33.69,0,0,0-8.4,2.37c-.66.32-1.41.68-1.4,1.58s.75,1.15,1.37,1.48a24.58,24.58,0,0,0,6.54,2,232.59,232.59,0,0,0,27.19,3.61c7.13.65,14.28,1.14,21.42,1.61,5.75.38,11.5.66,17.25.94s11.44.49,17.16.7q7.55.28,15.07.47c8,.19,16,.42,23.94.48,21.07.15,42.15.35,63.22,0,3.4-.06,6.79-.07,10.19-.15,6.47-.15,12.93-.27,19.4-.47,4-.12,8-.27,12-.4q10.13-.35,20.25-.9,7.24-.39,14.48-.86c7.88-.52,15.75-1.16,23.61-2a170.93,170.93,0,0,0,18.15-2.75,21.86,21.86,0,0,0,5.15-1.68c.68-.35,1.53-.71,1.53-1.62s-.84-1.17-1.48-1.52a15.24,15.24,0,0,0-3.32-1.23Z" transform="translate(-5.07 -14.66)"/><path class="cls-6" d="M245,287a2.58,2.58,0,0,0,1.43,3.44,8.16,8.16,0,0,0,3.85.89c.85,0,1.14.27.65,1.12a7.8,7.8,0,0,0-.84,3.36c0,.44.06.87.6.89s.68-.36.68-.82a6.78,6.78,0,0,1,1.08-3.61c.29-.46.54-.9,1.21-.56a.69.69,0,0,0,.8-.24c.32-.33.52-.08.79.12-.28.41-.72.33-1.07.46s-.83.28-.71.82.57.53,1,.44c.62-.14,1.23-.27,1.83-.46a.83.83,0,0,1,1.08.34c-.33.12-.6.22-.87.29s-.73.27-.65.75.56.54,1,.46c.62-.12,1.22-.29,1.83-.45.39-.1.78-.26,1.1.21-.28.37-.74.26-1.09.42a.64.64,0,0,0-.41.8.52.52,0,0,0,.7.39,10.64,10.64,0,0,0,2.65-.73c.36,0,.72.05.89.47a13.28,13.28,0,0,0-1.38.35.57.57,0,0,0-.35.72c.08.34.34.57.64.48,1-.32,2.12-.17,2.91-1,.45.35,1.12-.1,1.52.43-.58.13-1.16.24-1.73.39-.39.1-.71.32-.58.79a.63.63,0,0,0,.86.47,10.47,10.47,0,0,0,2.64-.8c1.58.41,2.87,1.43,4.33,2.09.24.22.5.42.73.65,1.07,1,2.29,2,2.44,3.65l-25.94-.05c-2,0-4.06,0-6.09,0-.67,0-.86-.16-.63-.84a7.57,7.57,0,0,0,.45-2.41,11.46,11.46,0,0,0-4.71-9.46,4.74,4.74,0,0,0,.08-1.12c-.34-2,.66-3.44,2-4.74.12.35.45.46.73.62A8.2,8.2,0,0,0,245,287Z" transform="translate(-5.07 -14.66)"/><path class="cls-8" d="M210.48,165.11a80.39,80.39,0,0,1-10.06-.06c-2.79-.17-5.57-.41-8.35-.75-8.19-1-16.19-2.7-23.75-6.18.1-.3.19-.6.28-.89a3.31,3.31,0,0,0,.55-.07,74.91,74.91,0,0,1,15.27-1.92,105.82,105.82,0,0,1,13.79.46c2.41.25,4.82.51,7.22.81,1.86.23,3.7.52,5.55.78,0,.56,0,1.12,0,1.67C210.81,161,210.64,163.06,210.48,165.11Zm-16.37-5.75c.07.37-.24,1,.39,1.18s.89-.49,1.07-.95a8.51,8.51,0,0,0,.5-1.94.82.82,0,0,0-.51-1c-.43-.14-.64.2-.86.52A3.39,3.39,0,0,0,194.11,159.36Z" transform="translate(-5.07 -14.66)"/><path class="cls-4" d="M85.6,294.46c4.13-.16,8.25-.27,12.38-.49,3.83-.22,7.66-.3,11.49-.45,4.79-.19,9.58-.25,14.37-.45,3.21-.13,6.43,0,9.63-.19,4.31-.29,8.63-.08,12.95-.18,18.66-.44,37.31-.13,56,0,4.31,0,8.64,0,13,.22,3.39.21,6.79,0,10.18.24,3.86.25,7.74.16,11.6.4a4.78,4.78,0,0,1-.4,1.83c-1.78-.07-3.55-.16-5.32-.21-7-.16-14-.33-21.05-.47-6.76-.14-13.52-.13-20.28-.22q-15.34-.21-30.7,0c-10.35.14-20.69.17-31,.42-7.72.18-15.43.37-23.15.63-6,.21-12,.42-18,.73Z" transform="translate(-5.07 -14.66)"/><path class="cls-6" d="M85.6,294.46l1.55,1.78c.45,1.06.89,2.11,1.33,3.17a14.61,14.61,0,0,1,.52,3.35.9.9,0,0,1-.81.26l-21.94,0c-.59,0-.93,0-.49-.77,2.06-3.7,1.33-7.35-.29-11a21.48,21.48,0,0,1,1.52-5,4.88,4.88,0,0,1,.92-1.39c1.18-1.23,1.65-1.27,3-.31l1.56,1.09-1.14.77a5.82,5.82,0,0,0-2,2.18c-.22.42-.3.9.18,1.19s.82-.05,1.06-.47a5.77,5.77,0,0,1,2.86-2.37,1.13,1.13,0,0,1,1.34.05,1.43,1.43,0,0,0,1.38.19,3.64,3.64,0,0,1,3.6,1.16,5.12,5.12,0,0,1,1.65,2.27c.28.85,1.21,1.37,1.92,2S84.83,293.82,85.6,294.46Zm-7.67.49a20.5,20.5,0,0,0-3.76.45c-.42.1-.78.35-.71.85a.73.73,0,0,0,1,.63,13.32,13.32,0,0,1,5.69-.14c.44.07.85,0,.93-.55a.71.71,0,0,0-.67-.86C79.49,295.18,78.58,295.05,77.93,295Zm-.53-2a11.55,11.55,0,0,1,2.19.21c.54.15,1,0,1.12-.57s-.31-.8-.78-.89a13.74,13.74,0,0,0-5.92.08c-.48.11-1,.3-.85.95s.68.61,1.16.5A13.76,13.76,0,0,1,77.4,293Zm1.27-2.08c.46.08.84-.05,1-.53s-.19-.82-.7-.93a14.29,14.29,0,0,0-6.14.09.76.76,0,0,0-.67,1c.13.52.56.58,1,.48A12.1,12.1,0,0,1,78.67,290.89Z" transform="translate(-5.07 -14.66)"/><path class="cls-9" d="M211,157.29c-1.85-.26-3.69-.55-5.55-.78-2.4-.3-4.81-.56-7.22-.81a105.82,105.82,0,0,0-13.79-.46,74.91,74.91,0,0,0-15.27,1.92,3.31,3.31,0,0,1-.55.07c0-.93.73-1.72.44-2.69.33-.17.39-.48.47-.82.26-1.09.58-2.17.87-3.25,2.28-.07,4.57-.23,6.85-.2,5.16.08,10.32.18,15.45.71a64.27,64.27,0,0,1,16.38,3.38c.73.27,1.43.61,2.14.91C211.09,155.94,211.4,156.66,211,157.29Z" transform="translate(-5.07 -14.66)"/><path class="cls-10" d="M237.53,291.23a11.46,11.46,0,0,1,4.71,9.46,7.57,7.57,0,0,1-.45,2.41c-.23.68,0,.85.63.84,2,0,4.06,0,6.09,0l25.94.05c.46,1.66.06,2.24-1.57,2.23l-34.78-.05c-1.82,0-2.1-.31-2-2.27,1.25,0,2.5,0,3.75,0a1,1,0,0,0,1.11-.81,9.09,9.09,0,0,0,.2-4.85,9.66,9.66,0,0,0-3.72-5.87A2,2,0,0,1,237.53,291.23Z" transform="translate(-5.07 -14.66)"/><path class="cls-10" d="M65.47,291.24c1.62,3.62,2.35,7.27.29,11-.44.79-.1.77.49.77l21.94,0a.9.9,0,0,0,.81-.26c.27.37.15.8.16,1.2,0,1.75,0,1.75-1.66,1.75l-21,0c-2.87,0-3-.17-2.74-3.18.43,0,.62-.33.82-.65,1.73-2.69,1.35-5.51.47-8.36A6.63,6.63,0,0,1,65.47,291.24Z" transform="translate(-5.07 -14.66)"/><path class="cls-11" d="M74.17,272.07,82,278.4c-1.57-.43-2.64.26-3.56,1.5a31,31,0,0,0-1.9,3.25l-1.73,0c-.9-1.48-1.49-3.18-2.91-4.31-.37-.3-.14-.68,0-1Z" transform="translate(-5.07 -14.66)"/><path class="cls-6" d="M237.4,292.4a9.66,9.66,0,0,1,3.72,5.87,9.09,9.09,0,0,1-.2,4.85,1,1,0,0,1-1.11.81c-1.25,0-2.5,0-3.75,0a31.24,31.24,0,0,1,.21-4.93l.12-.26v-.39a22.85,22.85,0,0,0,.32-3,4.78,4.78,0,0,0,.4-1.83Z" transform="translate(-5.07 -14.66)"/><path class="cls-8" d="M245,287a8.2,8.2,0,0,1-4.64-1c-.28-.16-.61-.27-.73-.62,0-1.38.6-2.66.76-4a90.49,90.49,0,0,1,9.1,1.54c-.15.88-.31,1.76-.45,2.64-.07.47-.3.67-.76.51A3,3,0,0,0,245,287Z" transform="translate(-5.07 -14.66)"/><path class="cls-12" d="M170.38,150.47c-.29,1.08-.61,2.16-.87,3.25-.08.34-.14.65-.47.82a4.78,4.78,0,0,1-2.59-1.39,1.89,1.89,0,0,1-.39-2.53C167.51,150.9,168.94,150.43,170.38,150.47Z" transform="translate(-5.07 -14.66)"/><path class="cls-11" d="M83,279.29a8.26,8.26,0,0,1,2.11,1.61c-1.29,2-3,3.68-4.42,5.55-.25.31-.53.4-.8,0a1.59,1.59,0,0,0-.5-1.18c.72-.57,1.47-1.1,2.16-1.7C82.85,282.45,83.61,281.1,83,279.29Z" transform="translate(-5.07 -14.66)"/><path class="cls-6" d="M65,293.48c.88,2.85,1.26,5.67-.47,8.36-.2.32-.39.65-.82.65,0-.66.07-1.32.1-2,.1-1,.19-2,.28-3a4.83,4.83,0,0,0,.3-1.72C64.6,295.05,64.81,294.27,65,293.48Z" transform="translate(-5.07 -14.66)"/><path class="cls-11" d="M77.58,284.62a12.72,12.72,0,0,1,2.42-4.4c.39-.44.88-.74,1.43-.26a1,1,0,0,1,0,1.58A13.91,13.91,0,0,1,77.58,284.62Z" transform="translate(-5.07 -14.66)"/><path class="cls-11" d="M71.63,283.13c-1.43-.82-1.56-1.22-.93-2.51.27-.55.54-.57.86-.11A8.68,8.68,0,0,1,73,283.1Z" transform="translate(-5.07 -14.66)"/><path class="cls-13" d="M74.77,283.12l1.73,0c-.2.53-.16,1.4-.82,1.4S74.94,283.7,74.77,283.12Z" transform="translate(-5.07 -14.66)"/><path class="cls-13" d="M71.63,283.13l1.38,0a2.36,2.36,0,0,1,.51,1.28A5.29,5.29,0,0,1,71.63,283.13Z" transform="translate(-5.07 -14.66)"/><path class="cls-13" d="M79.37,285.27a1.59,1.59,0,0,1,.5,1.18l-1.26-.61C78.76,285.43,79.11,285.41,79.37,285.27Z" transform="translate(-5.07 -14.66)"/><path class="cls-11" d="M82.67,279.05a.34.34,0,0,1,.32.24Z" transform="translate(-5.07 -14.66)"/><path class="cls-8" d="M223.41,141a13.21,13.21,0,0,0,1.32-7.18,85.7,85.7,0,0,1-.6-12c.11-3.25.58-6.47,1-9.69.13-1,.15-2,.22-3,4.92,10.31,9.8,20.64,14.4,31.1,1.15,2.6,2.29,5.21,3.22,7.91,1.22,3.54.37,6.88-1.06,10.14-2.39,5.43-5.91,10.12-9.47,14.78-2.13,2.79-4.33,5.53-6.67,8.13-.5.55-.32.78.22,1.06,1.06.55,2.09,1.13,3.13,1.69a4.21,4.21,0,0,1,1.57,1.39l.23.22h0a5,5,0,0,1-1.7,4.51c-.54.56-1.17,1.13-2,.79s-.76-1.19-.71-1.94.17-1.48.16-2.27a12.57,12.57,0,0,1-2.44,3.19c-.38.34-.74.88-1.31.62s-.58-.93-.57-1.48a16.5,16.5,0,0,1,.64-3.17,3.15,3.15,0,0,0,0-.44c.12-.09.22-.26.09-.32s-.12.15-.16.25c-.85,1.13-1.43,2.46-2.35,3.54-.48.55-1,1.08-1.77.81s-.78-1.08-.77-1.8a8.13,8.13,0,0,1,1-3.18,7.65,7.65,0,0,0,1-3.33c-.67,1.17-1.35,2.33-2,3.53a6.34,6.34,0,0,1-1.62,2c-.92.73-1.87.29-2-.89a13,13,0,0,1,1.15-5.57c.32-.85.2-1.29-.64-1.65-1-.44-2-1-3.12-1.54.68-.69,1.55-.69,2.23-1.1a1.9,1.9,0,0,0,1.9-1c2.14-3.06,4.27-6.11,6.27-9.27,2.66-4.22,5.34-8.45,6.95-13.26a.92.92,0,0,0,.33,0,21.61,21.61,0,0,1,6.27-1.13c.23,0,.46-.07.41-.38s-.31-.26-.52-.28a13.65,13.65,0,0,0-4.07.46c.52-.77,1.23-1,1.75-1.44.24-.22.84-.3.53-.79s-.64,0-.92.18-.77.59-1.18.82c-1,.58-1.55,1.73-2.69,2.13Q226.27,146.58,223.41,141Z" transform="translate(-5.07 -14.66)"/><path class="cls-14" d="M175.4,75.89c-2-4.74-1.55-8.64,0-9.42,1.29-.64,3.59.72,5.55,2.84A21.11,21.11,0,0,0,184.5,68c.42-.21.81-.44,1.33-.74a7.78,7.78,0,0,0,3.85-5.48,29.65,29.65,0,0,0,.36-6,42,42,0,0,1,.42-8.53c.48-1.08,3.57-7.78,10.91-9.95C205.9,36,211.63,36.5,215,39.5a12.38,12.38,0,0,1,3.38,4.9,10.4,10.4,0,0,1,.5,2.74,15.05,15.05,0,0,0-5.83,0c-5.05.95-9.11,3.34-11.34,8.31-.13.3-.54.72-.11,1s.55-.34.74-.58c2.29-2.91,4.76-5.53,8.45-6.59A18.09,18.09,0,0,1,219,49l3.2,1.2c-6.9.54-11.14,4.68-14.7,9.85-.61.89-1.15,1.83-1.72,2.74a8.86,8.86,0,0,0-2.44-.47.88.88,0,0,0-.92.12A5.66,5.66,0,0,0,198.22,65a9.77,9.77,0,0,0-1.07,9.61,15.89,15.89,0,0,1-3.63,2.32,24.06,24.06,0,0,1-8.87,2,12.14,12.14,0,0,1-6.47-1.1A11.88,11.88,0,0,1,175.4,75.89Z" transform="translate(-5.07 -14.66)"/><path class="cls-8" d="M223.67,77.5a6.26,6.26,0,0,0,2.51,5.65,28.86,28.86,0,0,1-2.88,4.73c-.49.72-1.32,1.18-1.55,2.09a28.32,28.32,0,0,1-3.21.77,12.37,12.37,0,0,1-5.46-1.17,31.58,31.58,0,0,1-9.2-8.65.86.86,0,0,0,0,.81,20.4,20.4,0,0,0,3.12,6,52.3,52.3,0,0,0,4.36,4.92l-1.62,3.4c-.61,1.09-1.09,2.32-2.6,2.43a10.28,10.28,0,0,1-3.18-.07c-4.25-1.07-6.94-4.13-9.32-7.59-.34-.49,0-.75.23-1.07a33,33,0,0,0,4.22-5.47,18.82,18.82,0,0,0,2.68-5.38c.31-.19.1-.86.7-.79,1.76.45,2.86-.7,3.88-1.82a13.19,13.19,0,0,0,2.83-5.65,8.74,8.74,0,0,0,2.41-3.49l1.07.78a.83.83,0,0,1,.23,1.25,5.73,5.73,0,0,0,2.48,7.65,5.54,5.54,0,0,0,7.4-2.67c.46-.85.49-.86,1.2-.21-.47.11-.61.45-.67.9-.1.74-.29,1.47-.37,2.21s-.36.89-.88.32a3.45,3.45,0,0,0-.45-.48.49.49,0,0,0-.41,0,.33.33,0,0,0-.12.48,2.56,2.56,0,0,0,.46.62c.46.44,1,1,1.6.85S223.35,77.91,223.67,77.5Zm-3.8,2.61a2.49,2.49,0,0,0-2.16,2.54c0,1.07.59,1.71,1.5,1.7a2.56,2.56,0,0,0,2.21-2.52A1.67,1.67,0,0,0,219.87,80.11Z" transform="translate(-5.07 -14.66)"/><path class="cls-14" d="M212,66.52a10.69,10.69,0,0,0-2.18-.91,10.06,10.06,0,0,0-2.89-2.3c2.87-5.23,6.43-9.7,12.35-11.56a11.27,11.27,0,0,1,4.4-.32,3,3,0,0,1,1.46.44c4.69,3.06,8.33,6.93,9.56,12.69a14.9,14.9,0,0,1,.16,6.9,8.6,8.6,0,0,1-.58,1.45c-.13.27-.47.66-.63.56-.78-.47-1.77.22-2.46-.53.12-.55.26-1.09.35-1.64a4,4,0,0,0,.11-1.64c-.89,1.14-1.57,1.25-2.66.45a9,9,0,0,1-2.28-2.73c-.44-.75-.83-1.51-1.34-2.44,0,2.15-.47,2.65-1.93,2.24a4.61,4.61,0,0,1-1.54-.86,14,14,0,0,1-2.45-2.42c-.89-1.12-1.75-2.26-2.67-3.46,0,.84,0,1.58,0,2.31-.06.9-.07,1.93-1,2.32S214,64.65,213.38,64a.75.75,0,0,0-.2-.11Z" transform="translate(-5.07 -14.66)"/><path class="cls-7" d="M206.91,63.31a10.06,10.06,0,0,1,2.89,2.3v.69l-.63,4.38a13.19,13.19,0,0,1-2.83,5.65c-1,1.12-2.12,2.27-3.88,1.82l-1.55-.37A7.09,7.09,0,0,1,198,75.57a5.33,5.33,0,0,1,.32-.46,19.88,19.88,0,0,0,5.08-12.83,8.86,8.86,0,0,1,2.44.47c0,.29-.41.61.15.89S206.67,63.63,206.91,63.31Z" transform="translate(-5.07 -14.66)"/><path class="cls-4" d="M317,299.09c0,.52,0,1.05,0,1.57q-7.62-1-15.28-1.68-10.2-.93-20.41-1.57c-3.17-.19-6.33-.44-9.5-.61-1.7-.1-3.41-.07-5.12-.09l-.93,0c-.4-.53-1.07-.08-1.52-.43-.3-1.31-1.15-.59-1.82-.51-.17-.42-.53-.44-.89-.47,0-.54.33-.66.81-.65,4,.07,8,.34,11.91.67,1.43.12,2.87.11,4.31.24,3.81.33,7.64.46,11.46.76q7.59.61,15.17,1.38C309.14,298.14,313.08,298.64,317,299.09Z" transform="translate(-5.07 -14.66)"/><path class="cls-11" d="M212,66.52l1.2-2.65a.75.75,0,0,1,.2.11c.64.67,1.28,1.52,2.33,1.09s1-1.42,1-2.32c0-.73,0-1.47,0-2.31.92,1.2,1.78,2.34,2.67,3.46a14,14,0,0,0,2.45,2.42,4.61,4.61,0,0,0,1.54.86c1.46.41,1.93-.09,1.93-2.24.51.93.9,1.69,1.34,2.44A9,9,0,0,0,229,70.11c1.09.8,1.77.69,2.66-.45a4,4,0,0,1-.11,1.64c-.09.55-.23,1.09-.35,1.64-.32-.13-.73,0-1-.28a6.18,6.18,0,0,0-1.77-1.83c-.5-.36-1.08-.46-1.47.1a1,1,0,0,0,.28,1.48l.52.42a1.72,1.72,0,0,0-.61.23c-1.19,1.16-2.29.49-3.41-.13a.64.64,0,0,1-.41-.69,8.21,8.21,0,0,0-.48-2.94c.68-.9.59-1.45-.37-1.86a3.57,3.57,0,0,0-1.66-.43c-2.35-1.15-4.61-1.21-6.7.61a.55.55,0,0,1-.86,0C212.83,67.24,212.4,66.88,212,66.52Z" transform="translate(-5.07 -14.66)"/><path class="cls-8" d="M213.1,72.83A4.83,4.83,0,0,1,216.66,67a3.17,3.17,0,0,1,2,0c-.53.41-1.21.68-1.38,1.64a3.34,3.34,0,0,1,2.52-.08l1.94.68h-.05a1.7,1.7,0,0,1,.19.19,4.39,4.39,0,0,1,.06,4.84,4.32,4.32,0,0,1-4.69,2.37c.21-.52.61-1,.06-1.59A6,6,0,0,0,213.1,72.83Zm4.2.2c0,.45.08.84.62.86s1.57-1.21,1.56-2.08c0-.44-.09-.83-.65-.84S217.29,72.09,217.3,73Z" transform="translate(-5.07 -14.66)"/><path class="cls-12" d="M219,49a18.09,18.09,0,0,0-8.21.26c-3.69,1.06-6.16,3.68-8.45,6.59-.19.24-.27.88-.74.58s0-.68.11-1c2.23-5,6.29-7.36,11.34-8.31a15.05,15.05,0,0,1,5.83,0A3.32,3.32,0,0,1,219,49Z" transform="translate(-5.07 -14.66)"/><path class="cls-14" d="M211.35,92.69A52.3,52.3,0,0,1,207,87.77a20.4,20.4,0,0,1-3.12-6,.86.86,0,0,1,0-.81,31.58,31.58,0,0,0,9.2,8.65A14.19,14.19,0,0,1,211.35,92.69Z" transform="translate(-5.07 -14.66)"/><path class="cls-12" d="M194.86,89.79c-.23.32-.57.58-.23,1.07,2.38,3.46,5.07,6.52,9.32,7.59a10.28,10.28,0,0,0,3.18.07c1.51-.11,2-1.34,2.6-2.43.53.34,1.21.38,1.66.88-.62.22-.94.81-1.46,1.18-3.4,2.43-6.81,2-10.13-.05a15.9,15.9,0,0,1-6.91-9C193.62,89.11,194.18,89.61,194.86,89.79Z" transform="translate(-5.07 -14.66)"/><path class="cls-11" d="M229.59,78.14c.1.75-.92.42-1,1l-.9,1.37a3.77,3.77,0,0,0-3-.45,4.82,4.82,0,0,1,2.8-6.5c.35-.11.71-.16,1.07-.24.14.17.27.35.41.51.9,1,1.44,2,.58,3.23A.9.9,0,0,0,229.59,78.14Zm-2.52-2c0-.45-.07-.83-.63-.84s-1.57,1.17-1.57,2.06c0,.44.14.83.66.86S227.07,77,227.07,76.14Z" transform="translate(-5.07 -14.66)"/><path class="cls-7" d="M221.75,90c.23-.91,1.06-1.37,1.55-2.09a28.86,28.86,0,0,0,2.88-4.73l1.57.62a9.36,9.36,0,0,1-1.43,2.59c-.77,1.26-2,2.15-2.64,3.5A5,5,0,0,1,221.75,90Z" transform="translate(-5.07 -14.66)"/><path class="cls-6" d="M251.51,290.05c-1.65-.11-3.27-.05-4.7-.95-.4-.25-.86-.57-.68-1.15a1.13,1.13,0,0,1,1.17-.69A5.94,5.94,0,0,1,251.51,290.05Z" transform="translate(-5.07 -14.66)"/><path class="cls-9" d="M213.1,72.83a6,6,0,0,1,4.25,2.2c.55.59.15,1.07-.06,1.59A4.44,4.44,0,0,1,213.1,72.83Z" transform="translate(-5.07 -14.66)"/><path class="cls-12" d="M223.68,89.86c.64-1.35,1.87-2.24,2.64-3.5a9.36,9.36,0,0,0,1.43-2.59l1.08.17a20.56,20.56,0,0,1-2,3.34c-.35.48-1,.86-.88,1.61h0a.36.36,0,0,0-.43.25h0l-.24.17A2.89,2.89,0,0,1,223.68,89.86Z" transform="translate(-5.07 -14.66)"/><path class="cls-15" d="M229.59,78.14a.9.9,0,0,1,0-1c.86-1.27.32-2.28-.58-3.23-.14-.16-.27-.34-.41-.51a4.81,4.81,0,0,1,2.76.52c.44.16.53.42.28.85A22,22,0,0,1,229.59,78.14Z" transform="translate(-5.07 -14.66)"/><path class="cls-7" d="M225.94,88.89c-.08-.75.53-1.13.88-1.61a20.56,20.56,0,0,0,2-3.34h1.29A9.2,9.2,0,0,1,225.94,88.89Z" transform="translate(-5.07 -14.66)"/><path class="cls-15" d="M223.67,77.5c-.32.41.09,1.24-.55,1.35s-1.14-.41-1.6-.85a2.56,2.56,0,0,1-.46-.62.33.33,0,0,1,.12-.48.49.49,0,0,1,.41,0,3.45,3.45,0,0,1,.45.48c.52.57.8.52.88-.32s.27-1.47.37-2.21c.06-.45.2-.79.67-.9h0c.34.39,0,.87.17,1.29v0c-.26.21-.16.49-.16.76Z" transform="translate(-5.07 -14.66)"/><path class="cls-7" d="M227.73,80.54l.9-1.37,1.14.64-1.43,3.3a2.59,2.59,0,0,1-1.5-.56C226.9,81.77,227.68,81.32,227.73,80.54Z" transform="translate(-5.07 -14.66)"/><path class="cls-14" d="M209.17,70.68l.63-4.38a4.89,4.89,0,0,1,1.78.89A8.74,8.74,0,0,1,209.17,70.68Z" transform="translate(-5.07 -14.66)"/><path class="cls-14" d="M227.73,72.83l-.52-.42a1,1,0,0,1-.28-1.48c.39-.56,1-.46,1.47-.1a6.18,6.18,0,0,1,1.77,1.83A8,8,0,0,0,227.73,72.83Z" transform="translate(-5.07 -14.66)"/><path class="cls-14" d="M221.78,69.23l-1.94-.68a3.34,3.34,0,0,0-2.52.08c.17-1,.85-1.23,1.38-1.64A3.84,3.84,0,0,1,221.78,69.23Z" transform="translate(-5.07 -14.66)"/><path class="cls-9" d="M227.73,80.54c0,.78-.83,1.23-.89,2a3.66,3.66,0,0,1-2.07-2.46A3.77,3.77,0,0,1,227.73,80.54Z" transform="translate(-5.07 -14.66)"/><path class="cls-12" d="M228.34,83.11l1.43-3.3a.79.79,0,0,1,.68.45,13.07,13.07,0,0,1-1.18,3A1.36,1.36,0,0,1,228.34,83.11Z" transform="translate(-5.07 -14.66)"/><path class="cls-15" d="M220.79,67a3.57,3.57,0,0,1,1.66.43c1,.41,1.05,1,.37,1.86A10.56,10.56,0,0,0,220.79,67Z" transform="translate(-5.07 -14.66)"/><path class="cls-7" d="M229.27,83.22a13.07,13.07,0,0,0,1.18-3A4,4,0,0,1,230.6,82C230.6,82.89,230.23,83.39,229.27,83.22Z" transform="translate(-5.07 -14.66)"/><path class="cls-8" d="M224.13,75.28c-.13-.42.17-.9-.17-1.29.54-.15.79.22.82.63S224.66,75.39,224.13,75.28Z" transform="translate(-5.07 -14.66)"/><path class="cls-8" d="M224,76.07c0-.27-.1-.55.16-.76C224.32,75.62,224.18,75.85,224,76.07Z" transform="translate(-5.07 -14.66)"/><path class="cls-16" d="M225.51,89.14a.36.36,0,0,1,.43-.25A.44.44,0,0,1,225.51,89.14Z" transform="translate(-5.07 -14.66)"/><path class="cls-16" d="M225.28,89.3l.24-.17Z" transform="translate(-5.07 -14.66)"/><path class="cls-17" d="M230.9,185.57l-.23-.22Z" transform="translate(-5.07 -14.66)"/><path class="cls-14" d="M221.92,69.41a1.7,1.7,0,0,0-.19-.19C221.9,69.18,221.9,69.31,221.92,69.41Z" transform="translate(-5.07 -14.66)"/><path class="cls-10" d="M77.86,273.11c-.54-.25-.5-.69-.26-1.11.7-1.24,1.4-2.48,2.15-3.68A219.55,219.55,0,0,1,95,246.66,162.29,162.29,0,0,1,108.41,232c2.91-2.82,6.11-5.3,9.17-7.94a37.5,37.5,0,0,0,4.87-5.5c5.36-6.89,10.26-14.11,15-21.46,3-4.74,5.83-9.65,8.62-14.56A39.54,39.54,0,0,1,154,173a78.11,78.11,0,0,1,10-7.8c.55-.36,1.28-1.32,1.84-.43s-.66,1-1.15,1.31a74.47,74.47,0,0,0-13.4,11.35A36.85,36.85,0,0,0,146,185a235.6,235.6,0,0,1-13,21q-5.47,8.11-11.55,15.78a48.51,48.51,0,0,1-7,6.55A112.42,112.42,0,0,0,103.18,239c-2.37,2.63-4.72,5.27-7,8-2.78,3.4-5.41,6.92-8,10.5-3.36,4.72-6.45,9.61-9.44,14.57C78.6,272.47,78.45,273,77.86,273.11Z" transform="translate(-5.07 -14.66)"/><path class="cls-10" d="M79.51,275.36a.69.69,0,0,1-.58-.37c-.21-.32,0-.58.16-.82.8-1.35,1.6-2.7,2.43-4A218.61,218.61,0,0,1,96.8,248.49a159,159,0,0,1,13.67-14.75c2.47-2.36,5.11-4.52,7.77-6.67a36.45,36.45,0,0,0,5.51-6c4.63-5.89,8.87-12.07,13-18.34,3.92-6,7.53-12.11,11-18.33a39.65,39.65,0,0,1,8.32-9.72,81,81,0,0,1,9.51-7.33c.19-.12.38-.23.56-.37.39-.29.84-.49,1.16,0s-.21.78-.56,1a70.76,70.76,0,0,0-14,11.69,38,38,0,0,0-5.45,7.77,245.21,245.21,0,0,1-12.95,20.83q-4.07,6-8.46,11.82a55,55,0,0,1-9.76,10.18,105.35,105.35,0,0,0-12.37,11.91,181.86,181.86,0,0,0-12,14.72q-6,8.22-11.21,17C80.31,274.46,80.09,275.08,79.51,275.36Z" transform="translate(-5.07 -14.66)"/><path class="cls-10" d="M244.27,278.89c.12-.46.27-1.07.43-1.69,1.42-5.46,2.71-11,3.73-16.52a77.38,77.38,0,0,0,1.69-16.28,48.31,48.31,0,0,1,4.35-20.61c.3-.71.22-.95-.52-1.16a165.32,165.32,0,0,1-20.81-7.88c-5-2.21-9.89-4.55-14.71-7.09-5.34-2.82-10.63-5.72-15.8-8.86-.13-.07-.24-.18-.37-.25-.35-.22-.59-.49-.38-.92s.62-.25.94-.08c1.19.68,2.37,1.37,3.55,2.07,7.61,4.48,15.42,8.56,23.41,12.3a193.16,193.16,0,0,0,21.9,8.79c1.16.38,2.32.74,3.5,1,.88.23,1.15.63.75,1.52a54.48,54.48,0,0,0-3.1,8.78,50.85,50.85,0,0,0-1.45,8.5c-.12,1.59,0,3.14,0,4.7a77.22,77.22,0,0,1-1,10.83,219.73,219.73,0,0,1-4.73,22.15c-.09.36-.16.73-.28,1.08s-.31.67-.71.59S244.27,279.4,244.27,278.89Z" transform="translate(-5.07 -14.66)"/><path class="cls-10" d="M241.7,278.7c.71-3.12,1.4-6,2-8.81,1-4.86,1.94-9.75,2.64-14.67.42-3,.57-6,.83-8.94.09-1.11-.2-2.23-.18-3.36a43.89,43.89,0,0,1,3.72-17.33c.36-.82,0-1-.57-1.12a161.57,161.57,0,0,1-17.27-6.34A242.79,242.79,0,0,1,210.25,207c-3.21-1.79-6.4-3.6-9.53-5.5-.47-.29-1.48-.52-1-1.3s1.11,0,1.6.29c6.84,4.19,13.88,8,21.06,11.52a195.74,195.74,0,0,0,25.09,10.38c1.19.39,2.4.73,3.6,1.1,1.49.47,1.59.65.9,2.13a43.31,43.31,0,0,0-2.59,7.54,49.49,49.49,0,0,0-1.23,9c-.06,1,.17,1.94.17,2.91a83.34,83.34,0,0,1-1.39,14.28c-1,6.39-2.39,12.72-4,19-.11.43-.14,1-.76.91A.54.54,0,0,1,241.7,278.7Z" transform="translate(-5.07 -14.66)"/><path class="cls-12" d="M214.56,111.74a32.56,32.56,0,0,0-.16,5.59c0,.59-.06.87-.81.7-4.91-1.09-9.85-2-14.81-2.86-1-.17-2-.39-3-.49-.64-.07-.72-.4-.67-.9.21-2.12.45-4.24.62-6.36.05-.65.38-.72.87-.69a46.17,46.17,0,0,1,6,1c3.56.76,7.1,1.58,10.6,2.58C213.83,110.49,214.85,110.46,214.56,111.74Z" transform="translate(-5.07 -14.66)"/><path class="cls-12" d="M173.76,117.78a21.41,21.41,0,0,0-.19-4,3.27,3.27,0,0,1,.05-1.12.43.43,0,0,1,.5-.35c.21,0,.3.21.3.41a49,49,0,0,1,.13,7.76c-.12,1-.09,1.94-.13,2.91-.35,7.54-1.16,15-3.54,22.2-.25.75-.57,1.47-.87,2.19-.09.21-.22.42-.5.33s-.27-.36-.22-.57c.1-.39.26-.77.4-1.16a66.33,66.33,0,0,0,3.18-14.55c.36-3.28.61-6.55.72-9.85C173.63,120.63,173.72,119.24,173.76,117.78Z" transform="translate(-5.07 -14.66)"/><path class="cls-12" d="M215,148.7l-.43.7a23.83,23.83,0,0,1-8.65-2.52c-2.54-1.2-4.95-2.7-7.71-3.37a26.2,26.2,0,0,0-10.5-.64c-.41.06-.79.17-.82-.38s.4-.54.78-.59a27.26,27.26,0,0,1,17.54,3.56,23,23,0,0,0,9.3,3A1.56,1.56,0,0,1,215,148.7Z" transform="translate(-5.07 -14.66)"/><path class="cls-12" d="M207,105.82c-4.21,0-7.11-1.74-9.81-3.89a13.27,13.27,0,0,1-3-3.07c-.17-.27-.6-.53-.26-.85s.65.11.89.35c1.07,1,2.06,2.15,3.22,3.08,2.81,2.25,5.84,3.8,9.53,3.44a7.23,7.23,0,0,0,4.32-1.8c.35-.33.66-.7,1-1s.54-.84,1-.36-.07.75-.35,1.06A8.77,8.77,0,0,1,207,105.82Z" transform="translate(-5.07 -14.66)"/><path class="cls-12" d="M213.52,156.42A2.66,2.66,0,0,1,211,159c0-.55,0-1.11,0-1.67.42-.63.11-1.35.22-2Z" transform="translate(-5.07 -14.66)"/><path class="cls-7" d="M271.81,296.8a41.41,41.41,0,0,1,9.5.61q10.21.63,20.41,1.57l13.53,1.46c.26,0,.91.1,1.75.22,1.65.23,2.86.5,3.28.58q5.19.93,10.26,1.94a15.24,15.24,0,0,1,3.32,1.23c.64.35,1.48.66,1.48,1.52s-.85,1.27-1.53,1.62a21.86,21.86,0,0,1-5.15,1.68A170.93,170.93,0,0,1,310.51,312c-7.86.86-15.73,1.5-23.61,2q-7.23.48-14.48.86-10.12.54-20.25.9c-4,.13-8,.28-12,.4-6.47.2-12.93.32-19.4.47-3.4.08-6.79.09-10.19.15-21.07.39-42.15.19-63.22,0-8-.06-16-.29-23.94-.48q-7.53-.18-15.07-.47c-5.72-.21-11.44-.43-17.16-.7s-11.5-.56-17.25-.94c-7.14-.47-14.29-1-21.42-1.61A232.59,232.59,0,0,1,25.37,309a24.58,24.58,0,0,1-6.54-2c-.62-.33-1.36-.63-1.37-1.48s.74-1.26,1.4-1.58a33.69,33.69,0,0,1,8.4-2.37c7.26-1.38,14.6-2.13,21.94-2.84,5-.48,9.93-.78,14.9-1.16-.09,1-.18,2-.28,3a19.7,19.7,0,0,0-2.43,0c-4.12.53-8.27.73-12.36,1.52a24.05,24.05,0,0,0-3.74.93,1.18,1.18,0,0,0-.85.82c-.07.47.43.56.75.69a11.27,11.27,0,0,0,1.59.5c5.89,1.39,11.91,1.74,17.91,2.28q6.48.57,13,.91c3.06.16,6.11.33,9.16.45,3.64.16,7.29.34,10.93.48,4.64.18,9.29.23,13.93.49,3,.16,6,0,9.07.21,3.64.28,7.3,0,11,.23,5.49.28,11,.23,16.5.25,20.4.09,40.8.37,61.2-.07,3.8-.08,7.6,0,11.4-.14,4.61-.22,9.23,0,13.84-.26,2-.1,4-.11,6-.16,5.2-.12,10.39-.33,15.59-.48,3-.09,6-.32,8.94-.4,4.86-.12,9.71-.5,14.56-.71,2.39-.11,4.78-.22,7.16-.47,4.09-.42,8.2-.69,12.27-1.3a39.94,39.94,0,0,0,6-1.24c.45-.14,1.14-.25,1.11-.92s-.64-.65-1.08-.8a29.2,29.2,0,0,0-5.38-1.18c-3.89-.61-7.8-1-11.72-1.3-2.31-.19-4.62-.34-6.93-.52-3.3-.24-6.6-.44-9.91-.63-1.46-.66-2.75-1.68-4.33-2.09A30.82,30.82,0,0,1,271.81,296.8Z" transform="translate(-5.07 -14.66)"/><path class="cls-12" d="M271.28,299.69c3.31.19,6.61.39,9.91.63,2.31.18,4.62.33,6.93.52,3.92.32,7.83.69,11.72,1.3a29.2,29.2,0,0,1,5.38,1.18c.44.15,1.06.2,1.08.8s-.66.78-1.11.92a39.94,39.94,0,0,1-6,1.24c-4.07.61-8.18.88-12.27,1.3-2.38.25-4.77.36-7.16.47-4.85.21-9.7.59-14.56.71-3,.08-6,.31-8.94.4-5.2.15-10.39.36-15.59.48-2,.05-4,.06-6,.16-4.61.23-9.23,0-13.84.26-3.8.18-7.6.06-11.4.14-20.4.44-40.8.16-61.2.07-5.5,0-11,0-16.5-.25-3.66-.18-7.32.05-11-.23-3-.23-6.05-.05-9.07-.21-4.64-.26-9.29-.31-13.93-.49-3.64-.14-7.29-.32-10.93-.48-3-.12-6.1-.29-9.16-.45q-6.49-.35-13-.91c-6-.54-12-.89-17.91-2.28a12.74,12.74,0,0,1-1.59-.5c-.32-.13-.82-.22-.75-.69a1.18,1.18,0,0,1,.85-.82A24.05,24.05,0,0,1,49,302c4.09-.79,8.24-1,12.36-1.52a19.7,19.7,0,0,1,2.43,0c0,.66-.07,1.32-.1,2-.28,3-.13,3.18,2.74,3.18l21,0c1.66,0,1.67,0,1.66-1.75,0-.4.11-.83-.16-1.2a14.61,14.61,0,0,0-.52-3.35c.06-.46.4-.43.74-.47,3-.33,6.11-.24,9.16-.37,4.67-.2,9.35-.24,14-.47,3-.15,6.11,0,9.17-.19,3.79-.26,7.59,0,11.4-.2,5.23-.29,10.48-.17,15.71-.18,18.39,0,36.79-.25,55.18.21,6.67.17,13.36,0,20,.28,4.09.15,8.19.18,12.28.27a1.46,1.46,0,0,1,.22,0c0,.13,0,.26,0,.39l-.12.26a31.24,31.24,0,0,0-.21,4.93c-.06,2,.22,2.27,2,2.27l34.78.05c1.63,0,2-.57,1.57-2.23-.15-1.68-1.37-2.62-2.44-3.65C271.78,300.11,271.52,299.91,271.28,299.69Z" transform="translate(-5.07 -14.66)"/><path class="cls-9" d="M194.11,159.36a3.39,3.39,0,0,1,.59-2.2c.22-.32.43-.66.86-.52a.82.82,0,0,1,.51,1,8.51,8.51,0,0,1-.5,1.94c-.18.46-.46,1.09-1.07.95S194.18,159.73,194.11,159.36Z" transform="translate(-5.07 -14.66)"/><path class="cls-7" d="M236.4,298.32a1.46,1.46,0,0,0-.22,0c-4.09-.09-8.19-.12-12.28-.27-6.67-.26-13.36-.11-20-.28-18.39-.46-36.79-.23-55.18-.21-5.23,0-10.48-.11-15.71.18-3.81.21-7.61-.06-11.4.2-3.06.22-6.12,0-9.17.19-4.68.23-9.36.27-14,.47-3,.13-6.11,0-9.16.37-.34,0-.68,0-.74.47-.44-1.06-.88-2.11-1.33-3.17,6-.31,12-.52,18-.73,7.72-.26,15.43-.45,23.15-.63,10.34-.25,20.68-.28,31-.42s20.47-.15,30.7,0c6.76.09,13.52.08,20.28.22,7,.14,14,.31,21.05.47,1.77.05,3.54.14,5.32.21A22.85,22.85,0,0,1,236.4,298.32Z" transform="translate(-5.07 -14.66)"/><path class="cls-16" d="M236.27,299l.12-.26Z" transform="translate(-5.07 -14.66)"/><path class="cls-9" d="M229.19,152.57l-.09-.42c1.14-.4,1.69-1.55,2.69-2.13.41-.23.77-.58,1.18-.82s.6-.69.92-.18-.29.57-.53.79c-.52.45-1.23.67-1.75,1.44a13.65,13.65,0,0,1,4.07-.46c.21,0,.48,0,.52.28s-.18.39-.41.38a21.61,21.61,0,0,0-6.27,1.13A.92.92,0,0,1,229.19,152.57Z" transform="translate(-5.07 -14.66)"/><path class="cls-17" d="M222.88,185.3c0-.1,0-.33.16-.25s0,.23-.09.32Z" transform="translate(-5.07 -14.66)"/><path class="cls-7" d="M197.32,74.62a.34.34,0,0,1-.17-.05A9.77,9.77,0,0,1,198.22,65a5.66,5.66,0,0,1,4.24-2.56,15,15,0,0,1-1.16,5.88A16.44,16.44,0,0,1,197.32,74.62Z" transform="translate(-5.07 -14.66)"/><path class="cls-12" d="M197.32,74.62a16.44,16.44,0,0,0,4-6.34,15,15,0,0,0,1.16-5.88.88.88,0,0,1,.92-.12,19.88,19.88,0,0,1-5.08,12.83,5.33,5.33,0,0,0-.32.46A1.33,1.33,0,0,1,197.32,74.62Z" transform="translate(-5.07 -14.66)"/><path class="cls-5" d="M219.87,80.11a1.67,1.67,0,0,1,1.55,1.72,2.56,2.56,0,0,1-2.21,2.52c-.91,0-1.48-.63-1.5-1.7A2.49,2.49,0,0,1,219.87,80.11Z" transform="translate(-5.07 -14.66)"/><path class="cls-15" d="M201.76,78.94a3.59,3.59,0,0,1-.85-1.16l1.55.37C201.86,78.08,202.07,78.75,201.76,78.94Z" transform="translate(-5.07 -14.66)"/><path class="cls-14" d="M217.3,73c0-.94.83-2.07,1.53-2.06s.65.4.65.84c0,.87-.92,2.1-1.56,2.08S217.28,73.48,217.3,73Z" transform="translate(-5.07 -14.66)"/><path class="cls-14" d="M227.07,76.14c0,.89-.89,2.11-1.54,2.08s-.65-.42-.66-.86c0-.89.9-2.07,1.57-2.06S227.07,75.69,227.07,76.14Z" transform="translate(-5.07 -14.66)"/><path class="cls-15" d="M350.85,295.26c1,0,1.95,0,2.92-.05a2,2,0,0,1,1.35.43l.07,6.94a1.11,1.11,0,0,1-1.08.73c-1.06,0-2.12,0-3.18,0Q350.9,299.3,350.85,295.26Z" transform="translate(-5.07 -14.66)"/><path class="cls-15" d="M309.09,301.35c.11-1.83.22-3.66.32-5.5l29.83,1.78c-.1,1.84-.21,3.67-.32,5.51Z" transform="translate(-5.07 -14.66)"/><path class="cls-10" d="M346.18,310.13a2.29,2.29,0,0,1-.28-1.18q-.36-10.21-.74-20.43c1.54-1.26,3.33-.84,5-.67.7.07.8.86.83,1.54.09,2.54.2,5.09.31,7.63l.21,5.51c.06,2,.13,4,.19,6.05,0,1.56-.33,2-1.9,2.05-.74,0-1.47.07-2.2.08A1.49,1.49,0,0,1,346.18,310.13Z" transform="translate(-5.07 -14.66)"/><path class="cls-15" d="M297.78,296.05q.06,3.66.1,7.33c-1.52,0-3,0-4.55.07-.92.05-1.35-.41-1.34-1.63s0-2.7-.05-4,.39-1.7,1.29-1.69C294.75,296.12,296.27,296.07,297.78,296.05Z" transform="translate(-5.07 -14.66)"/><path class="cls-6" d="M338.92,297.16c0-3.42,0-6.84,0-10.26,0-1.7.59-2.32,2.24-2.34,1.11,0,2.22,0,3.32,0a1.81,1.81,0,0,1,2,2c0,.6,0,1.2,0,1.8q.07,10.23.14,20.45a2.22,2.22,0,0,0,.24,1.19c-.43.57-.15,1.22-.19,1.83a1.86,1.86,0,0,1-1.83,2q-1.94.09-3.87,0a1.84,1.84,0,0,1-1.86-2.06c-.05-3-.08-6.07-.12-9.11C339,300.83,338.94,299,338.92,297.16Z" transform="translate(-5.07 -14.66)"/><path class="cls-10" d="M302.57,289.33l-.39,21.45c-.91,1-2.1.86-3.27.83-2.28-.06-2.69-.47-2.67-2.76l.05-1.57,0-4c0-1.83.07-3.67.1-5.51.06-2.37.12-4.73.19-7.1,0-1.64.47-2.07,2.06-2.05.63,0,1.26.07,1.88,0A2.49,2.49,0,0,1,302.57,289.33Z" transform="translate(-5.07 -14.66)"/><path class="cls-6" d="M309.4,308.74c0,.61,0,1.22,0,1.84,0,.37,0,.75,0,1.12a2,2,0,0,1-2.19,2.21c-1.21,0-2.44,0-3.66,0s-1.94-.75-2-2.12c0-.64,0-1.28,0-1.92l.18-21.45c0-.6,0-1.2,0-1.8,0-1.41.69-2,2.15-2,1.14,0,2.29,0,3.44,0,1.54,0,2.21.69,2.21,2.22q0,5.08,0,10.15c0,1.84,0,3.67-.05,5.51Z" transform="translate(-5.07 -14.66)"/><path class="cls-3" d="M183.92,85.43c.26,1.53,1.06,2.87,1.4,4.37a8.94,8.94,0,0,1-8.14,10.54,9.09,9.09,0,0,1-8.66-6,7.39,7.39,0,0,0-1.3-2.71,24.66,24.66,0,0,0-1.49-4.2c-1.35-3.6-2.68-7.2-3.77-10.9l2,0c5.54.1,10.43-1.84,15-4.92.57,1.22.75,2.6,1.43,3.78a12.83,12.83,0,0,0,1,3.08A66.22,66.22,0,0,0,183.92,85.43Z" transform="translate(-5.07 -14.66)"/><path class="cls-12" d="M178.48,72.75c-4.53,3.07-9.42,5-15,4.91l-2,0a16.58,16.58,0,0,1-2.61-7.4,2.15,2.15,0,0,1,.17-1.2,50.58,50.58,0,0,0,16.78-4.81c.76.69.69,1.84,1.37,2.58A32.68,32.68,0,0,1,178.48,72.75Z" transform="translate(-5.07 -14.66)"/><path class="cls-18" d="M173.79,53.4l-.25.44c-1.26-.53-1.9-1.83-3-2.55A14.21,14.21,0,0,1,169,50c-.16-.14-.4-.32-.27-.55s.47-.15.67,0c.78.59,1.55,1.21,2.33,1.83.3-.39,0-.6-.1-.86s-.55-.63-.12-.86.61.28.76.61a21.88,21.88,0,0,1,.89,2A3.89,3.89,0,0,0,173.79,53.4Z" transform="translate(-5.07 -14.66)"/><path class="cls-18" d="M221.81,26.26a8.59,8.59,0,0,1-.13,1.45c-.09.35,0,1-.61.9s-.45-.65-.37-1a9.19,9.19,0,0,0,0-2.77,11.68,11.68,0,0,0-1.87-5.32c-.21-.32-.56-.63-.16-1s.74.16.94.44A13.12,13.12,0,0,1,221.81,26.26Z" transform="translate(-5.07 -14.66)"/><path class="cls-18" d="M214.68,27.82A10.44,10.44,0,0,1,209.53,26c-.27-.18-.74-.43-.48-.87s.68-.16,1,.07a7.57,7.57,0,0,0,7.34,1c.3-.11.57-.21.74.16s-.12.53-.38.68A9.6,9.6,0,0,1,214.68,27.82Z" transform="translate(-5.07 -14.66)"/></g></g></g></svg>