<svg xmlns="http://www.w3.org/2000/svg" viewBox="0 0 316.95 517.45"><defs><style>.cls-1{fill:#8e4f3a;}.cls-2{fill:#edb78f;}.cls-3{fill:#334a52;}.cls-4{fill:#434343;}.cls-5{fill:#633029;}</style></defs><title>imgPersona2</title><g id="Capa_2" data-name="Capa 2"><g id="Layer_1" data-name="Layer 1"><path class="cls-1" d="M278.2,476.15s5.74,10.15,10.06,12.8,19.54,13.19,22,19.11c1.73,4.15-.32,9.12-15.71,6s-14.73-14.37-25.91-17.89c-7.47-2.35-8.29-3.62-8.15-8.8,0-1.49,1.85-5.09,1.32-7.78S278.2,476.15,278.2,476.15Z"/><path class="cls-1" d="M33.89,480.77s-5.81,8.92-10.27,11.33S3.41,504.26.64,510c-1.95,4.06-.15,9.13,15.38,6.86s15.46-13.58,26.8-16.51c7.59-2,8.47-3.18,8.6-8.36,0-1.49-2.32-6.23-1.64-8.89S33.89,480.77,33.89,480.77Z"/><path class="cls-2" d="M215.71,175.86s7.44-2.46,6.92-6-14.18-31.39-17.77-35.53c-10-11.61-21.75-33.49-23.19-38.64s-49-61.19-51.11-64l-8.45,5.94s29.42,55,34.12,61.76,21.41,47.17,23.21,48.72S215.71,175.86,215.71,175.86Z"/><path class="cls-1" d="M122.11,37.7s-2.83-4.55-6-4.91-13.18-2-13.92-3.45.4-2.65,2.11-2.46S114,28,114,27C113.69,18.41,95,4.2,95,2.7A2.53,2.53,0,0,1,97.7,0a91.73,91.73,0,0,1,18.15,11.7c9,7.48,14.71,20,14.71,20Z"/><path class="cls-3" d="M179.38,259.92s3.7,7.54,5.2,9.91,43.28,72.21,48.15,83.89c5,11.88,7.94,18,10.31,22.63,1.93,3.74,9.73,26.81,15.6,45.24s18,50.31,20.06,54.1-18,3.55-18,3.55-24.16-43.44-30.23-51.66S218,404.81,216.28,395.25,188.94,360,183.64,351.47c-4.9-7.89-24.4-37.35-27.74-43.63-3.05-5.75-9.91-4.94-9.91-4.94l-4.27-35.63Z"/><path class="cls-3" d="M112,257.62s-3,7.83-4.25,10.32-26.92,50.32-31.12,63.91c-3.73,12.08-13.59,41.75-15.89,47.92-1.47,3.94-8.49,27-12.62,45.83S34.44,476,32.73,479.91s17.8,5.43,17.8,5.43,20.92-47.53,26.19-56.25S87,405.32,87.89,395.64s22.13-40.16,28-47.39,19.84-36.77,25-41.69,8.4-4.45,8.4-4.45l.95-40.49Z"/><path class="cls-2" d="M249.09,210.93s6.89-3.69,9.16-1,13.85,31.54,14.52,36.93c1.86,15.12,10.28,38.42,13.15,43s12.51,76.86,13.15,80.27l-10.17,2.06s-21.14-58.51-23-66.52-20.74-47.45-20.68-49.8S249.09,210.93,249.09,210.93Z"/><path class="cls-2" d="M255.93,192.82s6.43,14,7.66,17.2c4.24,11.17,6.33,20.8,9.18,36.89,0,0-14.42,12.65-24.94,15.93,0,0-9.92-18.22-11-18.8s-21.8,14.82-28.41,21.66c-4.58,4.74-6.43,26.29-8.31,29.54s-80.9-19.6-88.42-37.93c0,0,22.28-34.08,25.74-39s39.53-49.9,41.62-52.45S176.73,143,176.73,143s13.58-13.53,24.05-13.72c0,0,13.53,14.46,15.85,16.14s18.78,16.19,22.48,22.54S255.93,192.82,255.93,192.82Z"/><path class="cls-1" d="M288.9,372.19s1.48,5.13-.43,7.69-7.47,10.83-6.86,12.37,2.25,1.51,3.26.15,5.84-7.77,6.55-7.08c6.19,6,4.12,29.16,5.22,30.2a2.59,2.59,0,0,0,3.87-.15,88.43,88.43,0,0,0,3.57-21c.51-11.56-5-24.21-5-24.21Z"/><path class="cls-1" d="M267.51,184.59s-9.29,3.5-13.4,9.5c0,0-11.67,10.6-20.58-2.43s3.1-20.65,3.1-20.65,6.36.58,16.93-8.69S267.51,184.59,267.51,184.59Z"/><path class="cls-1" d="M310.78,147.49s7.83,18.81-21.71,32.93-36.64-2.37-37.24-3.39-9.94-14.88,23.46-36.41C275.29,140.62,300.2,125,310.78,147.49Z"/><path class="cls-1" d="M297.12,176s3.25.63,1.57,2.58S286,182.82,285.05,183c0,0-1,.15-.86-.57S297.12,176,297.12,176Z"/><path class="cls-1" d="M275.82,140.88s1-3.11-1.57-2.58S264,147.6,263.74,148c0,0-.62.82.11,1S275.82,140.88,275.82,140.88Z"/><path class="cls-4" d="M292.84,178.52l-4.94-.4s7.53-4.42,8.46-5.52,3.12-1.29,3.77-2.12-.65-22.76-18.91-29.4c0,0-3.37,3.94-4.61,3s-9.15,4.64-9.15,4.64l1.12-3.44s12.74-10.76,15.25-12c3.32-1.59,17.37-11.44,31.17,16.35A18.28,18.28,0,0,1,316.83,160c-.46,4-2.08,8.77-6.84,11.26A180.58,180.58,0,0,1,292.84,178.52Z"/><path class="cls-5" d="M250.78,165.41s-4.32,13.05,12.25,19.73c0,0-9,.73-13.56-6.29S250.78,165.41,250.78,165.41Z"/></g></g></svg>