<svg xmlns="http://www.w3.org/2000/svg" viewBox="0 0 414.07 439.91"><defs><style>.cls-1{fill:#edb78f;}.cls-2{fill:#43646d;}.cls-3{fill:#945a3b;}.cls-4{fill:#334a52;}.cls-5{fill:#73472e;}.cls-6{fill:#3d363b;}.cls-7{fill:#c8c1a2;}.cls-8{fill:#28303b;}.cls-9{fill:#e8a87e;}.cls-10{fill:#eaa678;}</style></defs><title>imgPersona5_2</title><g id="Capa_2" data-name="Capa 2"><g id="Layer_1" data-name="Layer 1"><path class="cls-1" d="M187.47,298.83s-20.64,23.55-27.4,27.82c-24,15.18-122.46,10-127.86,9.45,0,0,0-8.3-.29-17.71a18.27,18.27,0,0,1,2.11,0c9.64.41,48.15,1.61,67.5-6,20.89-8.22,36.27,6.63,53.92-56.42C160.77,236.94,191.18,292.8,187.47,298.83Z"/><path class="cls-1" d="M287.8,243.2s43.45,41.59,44.91,55.78,39.16,110.74,39.16,110.74l-15.76,7.22s-.23-.32-.81-1.2c-6.49-9.71-46-69.47-47.12-86.08-1.47-21.87-8.66-20.92-25.12-29.67-10.33-5.48-32.57-18.08-32.57-18.08Z"/><path class="cls-2" d="M116.3,324.18C85.41,326.85,34.55,328,34,328l-.06-1.35c.63,0,62.63-1.2,91-4.24,28-3,49.18-44.54,49.38-44.94l1.21.6a126.44,126.44,0,0,1-13.83,20.84c-8,9.72-20.43,22.83-35.47,24.44C123.32,323.64,119.74,323.88,116.3,324.18Z"/><path class="cls-3" d="M251.3,83A59.21,59.21,0,0,1,265,113.86c1.49,11.36,5,69.51,5,69.51A385.22,385.22,0,0,0,322.8,191l2.54,15.1s-71.19.51-77.45-6.34-4.3-56.86-4.3-56.86S260.3,99.79,251.3,83Z"/><path class="cls-4" d="M248.41,215.06s32.49,18.47,46.51,30.78c0,0-20.68,29.76-41.78,40.67a303.58,303.58,0,0,0-35.45-22.41c-7.46-4-32.88,46.24-39.57,50.76,0,0-22.66-7.84-43.26-22.58,0,0,17.27-33.83,18-38.62s1.35-7.3,9.23-25.32S245.44,208,248.41,215.06Z"/><path class="cls-3" d="M304.71,190.74s7,2.56,8.9,1.39a63.69,63.69,0,0,1,7.55-3.58c1.87-.78,6.25-4.47,8.41-4.65.88-.07,6.34,1.37,8.13,1s5.35-1.36,5.51,0S340.4,188,340.4,188s1.64-.21,2.2.93c1.09,2.21-.05,3.46-.05,3.46s1.75.75,1.94,1.79a4.09,4.09,0,0,1-.73,3.47s1.23,1.54.82,2.57c-1.21,3-2.25,3-2.25,3s.46,2.56-1,3.38a16.73,16.73,0,0,1-4.12,1.29c-1.28.37-13.35.28-21.41-2.7A42,42,0,0,0,300,202.78Z"/><path class="cls-5" d="M328,193.23a2,2,0,0,1-1.06-.86,1.63,1.63,0,0,1,0-1.76c.77-1.27,4.19-2,4.58-2.09h.05l7.66-.56.05.71-7.64.56c-1.35.29-3.63,1-4.09,1.76a.92.92,0,0,0,0,1,1.19,1.19,0,0,0,.8.57l0,.72A1.43,1.43,0,0,1,328,193.23Z"/><path class="cls-5" d="M327.71,196.88a2.07,2.07,0,0,1-1.11-1.62,2.41,2.41,0,0,1,.68-2c.73-.65,4.89-1.4,5.78-1.5a68.52,68.52,0,0,1,7.65.72l-.1.7a69.79,69.79,0,0,0-7.47-.71c-1.36.15-4.93.92-5.39,1.32a1.78,1.78,0,0,0-.44,1.35,1.38,1.38,0,0,0,.75,1.08Z"/><path class="cls-5" d="M329.11,200.36c-1.16-.37-2.52-1.12-2.15-2.79s3.05-1.45,4.82-1.31a8.37,8.37,0,0,0,1,.05c1-.07,8.29.74,8.6.77l-.08.71c-2.1-.23-7.71-.82-8.47-.77a7.84,7.84,0,0,1-1.09-.05c-1.35-.1-3.84-.3-4.07.76s.52,1.72,2.62,2.2a31,31,0,0,0,4.39.37h.05l4.7,1.44-.21.68-4.6-1.41a30.16,30.16,0,0,1-4.49-.39C329.85,200.56,329.49,200.48,329.11,200.36Z"/><path class="cls-5" d="M334.36,207.22l0-.72a10.44,10.44,0,0,0,3.59-.75,28,28,0,0,0-4.36-2.09c-.69,0-3.58-.68-4.11-1.9a1.13,1.13,0,0,1,0-1,1.7,1.7,0,0,1,1.06-.76l.17.7a1.07,1.07,0,0,0-.6.38.5.5,0,0,0,0,.4c.31.72,2.62,1.4,3.5,1.47s4.51,2.09,5.24,2.5l.5.27-.47.33A9.06,9.06,0,0,1,334.36,207.22Z"/><path class="cls-5" d="M322.76,198.94l-.39-.6c2.77-1.76,5-5.72,5-5.76l.62.34C327.9,193.09,325.68,197.09,322.76,198.94Z"/><path class="cls-5" d="M333,188.92a8,8,0,0,1-1.66-.83l.4-.59a4.83,4.83,0,0,0,2.1.85l.05.71A2.42,2.42,0,0,1,333,188.92Z"/><rect class="cls-5" x="332.4" y="190.2" width="2.25" height="0.71" transform="translate(104.7 499.09) rotate(-83.18)"/><rect class="cls-5" x="332.71" y="193.05" width="0.72" height="2.96" transform="translate(-11.59 21.36) rotate(-3.61)"/><rect class="cls-5" x="333.29" y="197.42" width="0.72" height="2.44" transform="matrix(1, 0, 0, 1, -0.81, 1.36)"/><rect class="cls-5" x="333.3" y="201.66" width="1.82" height="0.72" transform="translate(84.55 502.31) rotate(-81.41)"/><path class="cls-1" d="M211.39,76.14S191.48,80.58,181.76,89,175,100.28,175,100.28s.42,5.56,7.28,36.63c10.69,48.4-13.83,78.61-19.52,88.56s79.54,9.83,90.43-7.65c0,0,5.41-37.23,9.71-55.37,6.08-25.69,14.78-42.27-3.42-69.76-2.85-4.31-8.63-13.83-17.29-16.61,0,0,.83,7.55-8.72,7.92S211.39,76.14,211.39,76.14Z"/><path class="cls-3" d="M248.83,13s13.75,34.2-6.22,49.26c-22.55,17-29.93-14.76-31.91-21.55s-8.36-32.44,9.56-37.09S239.46,2.6,248.83,13Z"/><path class="cls-3" d="M240.62,57.89s0,12.92,2.38,19.67c2.13,6,10.44,14.7,2.23,21.91-7.3,6.41-28.26,4.15-35.64-16.84,0,0-2.1-5.78,3.37-7.1,4-1,9.37-11.55,3.8-30S240.62,57.89,240.62,57.89Z"/><path class="cls-6" d="M370.43,406l3,4.62s-11.89,8.9-16.09,8.64l-2-3.52Z"/><path class="cls-4" d="M361.4,419.19s8.7-5.65,9.93-7.5,3.9-3.92,5.42-3c8.81,5.14,16.66,3.54,20.33,3.12s17.24-5.3,17,1.37-28.53,19.07-33.54,21.67-11,5.84-12.6,4.95S361.13,424.52,361.4,419.19Z"/><path class="cls-5" d="M237.37,63.08c-10.67,1.3-15.54-3.46-15.74-3.66l.58-.57-.29.28.29-.28s4.81,4.67,15.07,3.43Z"/><path class="cls-2" d="M217.5,261.89l-.63-.59c.18-.2,18.2-19.52,23.82-27.38l.7.5C235.74,242.32,217.69,261.69,217.5,261.89Z"/><path class="cls-2" d="M219.73,259.45l-.42-.76c.16-.09,16.42-9.26,20.75-15.92l.73.47C236.34,250.08,220.41,259.07,219.73,259.45Z"/><polygon class="cls-7" points="375.6 417.07 374.97 416.9 376.55 410.88 377.19 411.05 375.6 417.07"/><polygon class="cls-7" points="379.51 417.2 378.87 417.03 380.17 412.09 380.81 412.26 379.51 417.2"/><rect class="cls-7" x="381.29" y="414.77" width="3.91" height="0.66" transform="translate(-115.84 679.86) rotate(-75.23)"/><path class="cls-7" d="M364.5,438.29l-.36-.55s4.47-2.89,16.27-8c2.16-.93,4.67-1.95,7.32-3,9.72-3.94,21.8-8.83,23.57-12.87l.61.26c-1.88,4.29-13.59,9-23.93,13.22-2.65,1.07-5.16,2.09-7.3,3C368.94,435.42,364.54,438.26,364.5,438.29Z"/><path class="cls-3" d="M178.08,204.31s6.22,5.06,10.14,3.73,8.25-1.3,10,.88c0,0,4.88,3.69,3.34,7.6s4.12,8.25,2.7,10.91-13.25,10.49-15.42,9.36-13.61-17.52-18.73-21.85C166.18,211.62,178.08,204.31,178.08,204.31Z"/><path class="cls-3" d="M186,86.68s-47.56,38.59-61.42,57.45c0,0-3.67,7,13.18,32.12a249.25,249.25,0,0,0,35.63,42s9.27-8.24,8.42-9.81-31.63-53.23-31.52-56.77,44.7-25.54,47.15-30.64S201.48,82,186,86.68Z"/><path class="cls-1" d="M162.4,105l14.4,31S219,121.2,200,94.59c0,0,1-15.14-11.89-9.89C182.69,86.88,172,94.05,162.4,105Z"/><path class="cls-8" d="M251.59,22.12s-14.1-.42-29.74,8.32c0,0-5.63,5.41-9.46,16,0,0-20.3-39.69,8.15-45.6S251.59,22.12,251.59,22.12Z"/><path class="cls-3" d="M221.49,29.47c-1.12-2.93-5.89-7.14-9.74-1.59s7.12,17.23,9.58,12.88S223.2,33.94,221.49,29.47Z"/><path class="cls-9" d="M185,132.84l-.39-.81c.19-.09,18.39-9,18.12-22.23l.9,0C203.89,123.61,185.75,132.47,185,132.84Z"/><path class="cls-9" d="M187.19,131.6l-.54-.72c.11-.08,11-8.31,10.76-16.1l.9,0C198.57,123,187.66,131.25,187.19,131.6Z"/><path class="cls-9" d="M202.93,187.4l-.66-.61c13.59-14.68,52.24-23.34,52.63-23.43l.19.88C254.7,164.33,216.33,172.93,202.93,187.4Z"/><path class="cls-10" d="M209.52,181.88l-.31-.45c1.15-.31,28.31-7.53,39-7.07l-.16.5C237.59,174.41,209.8,181.81,209.52,181.88Z"/><path class="cls-6" d="M33.84,336.22l-5.58-.32s-.71-16.81-.25-18l6,.48S33.88,335.28,33.84,336.22Z"/><path class="cls-4" d="M28.34,317.93s.18,12.06,1.21,14.33,1.53,6.32-.33,7.15c-8,3.56-13.12,15-14.89,19s-5.14,20.4-11.28,16.52S1.84,335.52,2.34,329s2.38-15.25,4.37-16C11.43,311.15,23.48,314.76,28.34,317.93Z"/><rect class="cls-7" x="20.47" y="336.94" width="0.71" height="6.68" transform="translate(-214.51 93.61) rotate(-40.15)"/><rect class="cls-7" x="17.81" y="340.22" width="0.71" height="5.48" transform="translate(-216.86 92.53) rotate(-40.15)"/><rect class="cls-7" x="15.7" y="343.5" width="0.71" height="4.18" transform="translate(-219.08 91.81) rotate(-40.16)"/><path class="cls-7" d="M4.07,373.67c-2.24-11.95-.5-25.17.66-33.91.58-4.44,1-7.94.78-9.61-.81-5.13,2.27-14.83,2.4-15.24l.68.21c0,.1-3.17,9.95-2.38,14.92.28,1.77-.17,5.14-.78,9.81-1.15,8.7-2.89,21.85-.67,33.69Z"/></g></g></svg>