<svg xmlns="http://www.w3.org/2000/svg" viewBox="0 0 408.32 450.49"><defs><style>.cls-1{fill:#edb78f;}.cls-2{fill:#43646d;}.cls-3{fill:#945a3b;}.cls-4{fill:#334a52;}.cls-5{fill:#73472e;}.cls-6{fill:#3d363b;}.cls-7{fill:#c8c1a2;}.cls-8{fill:#28303b;}.cls-9{fill:#e8a87e;}.cls-10{fill:#eaa678;}</style></defs><title>imgPersona5_1</title><g id="Capa_2" data-name="Capa 2"><g id="Layer_1" data-name="Layer 1"><path class="cls-1" d="M216,294.34S238.55,316,245.65,319.7c25.22,13.06,122.86-.61,128.2-1.58,0,0-.71-8.27-1.23-17.67a19.15,19.15,0,0,0-2.11.18c-9.57,1.24-47.83,5.75-67.76-.17-21.52-6.4-35.57,9.73-58.57-51.57C237.24,230.39,211.74,288.66,216,294.34Z"/><path class="cls-1" d="M111.22,247.55S71.5,292.72,71.27,307s-29.5,113.68-29.5,113.68l16.33,5.84s.2-.34.7-1.25c5.63-10.24,39.86-73.17,39.55-89.82-.42-21.92,6.82-21.59,22.47-31.72,9.82-6.35,30.89-20.82,30.89-20.82Z"/><path class="cls-2" d="M289.05,313.48c31,0,81.77-3.27,82.34-3.29l-.06-1.35c-.63,0-62.51,4.18-91,3.59-28.14-.58-52.82-40.14-53.06-40.53l-1.15.71a126.31,126.31,0,0,0,15.57,19.57c8.79,9,22.31,21,37.44,21.3C282,313.54,285.59,313.48,289.05,313.48Z"/><path class="cls-3" d="M133.8,84.8a59.27,59.27,0,0,0-11,31.93c-.51,11.44,1,69.68,1,69.68a385.63,385.63,0,0,1-51.94,12.18l-1.23,15.26s71-5.61,76.62-13-.61-57-.61-57S126.28,102.3,133.8,84.8Z"/><path class="cls-4" d="M148.05,216.13s-30.79,21.19-43.7,34.66c0,0,23.17,27.87,45.13,36.92a304,304,0,0,1,33.38-25.37c7.09-4.63,36.74,43.24,43.79,47.17,0,0,21.91-9.76,41.16-26.21,0,0-20.12-32.23-21.29-36.94s-2-7.15-11.36-24.43S150.39,208.88,148.05,216.13Z"/><path class="cls-3" d="M89.86,196.74s-6.8,3.15-8.75,2.14A63.26,63.26,0,0,0,73.28,196c-1.93-.62-6.61-3.92-8.78-3.91-.88,0-6.2,1.91-8,1.74s-5.45-.89-5.49.49,3.07,2.8,3.07,2.8S52.42,197,52,198.21c-.9,2.3.34,3.44.34,3.44s-1.68.9-1.78,1.95a4.1,4.1,0,0,0,1,3.4s-1.1,1.64-.6,2.63c1.47,2.94,2.5,2.8,2.5,2.8s-.24,2.59,1.27,3.27a16.43,16.43,0,0,0,4.21.94c1.32.26,13.33-.87,21.1-4.53a42.16,42.16,0,0,1,15.53-3.79Z"/><path class="cls-5" d="M66.82,201.22a2,2,0,0,0,1-.95,1.62,1.62,0,0,0-.18-1.75c-.88-1.2-4.35-1.64-4.74-1.69h0l-7.68.1v.71l7.65-.09c1.37.16,3.71.68,4.24,1.39a1,1,0,0,1,.11,1,1.22,1.22,0,0,1-.75.64l0,.71A.92.92,0,0,0,66.82,201.22Z"/><path class="cls-5" d="M67.47,204.83a2,2,0,0,0,1-1.71,2.39,2.39,0,0,0-.84-1.9c-.78-.58-5-1-5.89-1a68.92,68.92,0,0,0-7.55,1.37l.15.7a68.91,68.91,0,0,1,7.38-1.36c1.38,0,5,.49,5.48.86a1.72,1.72,0,0,1,.56,1.3,1.37,1.37,0,0,1-.65,1.14Z"/><path class="cls-5" d="M66.37,208.42c1.12-.47,2.42-1.33,1.91-3s-3.16-1.19-4.92-.9a8.92,8.92,0,0,1-1,.14c-1,0-8.19,1.44-8.5,1.5l.14.7c2.07-.41,7.61-1.48,8.37-1.49a8,8,0,0,0,1.09-.14c1.33-.22,3.8-.63,4.12.4s-.38,1.76-2.42,2.42a31.4,31.4,0,0,1-4.35.74h0l-4.56,1.84.27.66,4.46-1.8a31.12,31.12,0,0,0,4.44-.77C65.66,208.68,66,208.57,66.37,208.42Z"/><path class="cls-5" d="M61.74,215.7l0-.71a10.32,10.32,0,0,1-3.64-.45,27.11,27.11,0,0,1,4.17-2.45c.68-.11,3.51-1,3.92-2.25a1.11,1.11,0,0,0-.08-1,1.67,1.67,0,0,0-1.12-.66l-.11.71a1.05,1.05,0,0,1,.63.33.46.46,0,0,1,0,.4c-.25.75-2.49,1.62-3.37,1.76s-4.31,2.47-5,2.94l-.47.32.49.29A9.12,9.12,0,0,0,61.74,215.7Z"/><path class="cls-5" d="M72.58,206.46l.33-.64c-2.91-1.51-5.44-5.27-5.47-5.31l-.59.4C67,201.07,69.51,204.86,72.58,206.46Z"/><path class="cls-5" d="M61.48,197.36a7.45,7.45,0,0,0,1.59-1l-.46-.55a4.68,4.68,0,0,1-2,1v.71A2.17,2.17,0,0,0,61.48,197.36Z"/><rect class="cls-5" x="60.78" y="197.91" width="0.71" height="2.25" transform="translate(-39.26 16.63) rotate(-11.75)"/><rect class="cls-5" x="61.57" y="201.47" width="0.72" height="2.96" transform="translate(-4.67 1.48) rotate(-1.32)"/><rect class="cls-5" x="61.35" y="205.88" width="0.72" height="2.44" transform="translate(-16.76 5.75) rotate(-4.7)"/><rect class="cls-5" x="61.08" y="209.59" width="0.72" height="1.82" transform="translate(-47.52 20.2) rotate(-13.52)"/><path class="cls-1" d="M173,74.53s20.21,2.72,30.62,10.26,7.73,10.66,7.73,10.66.06,5.58-4.11,37.13c-6.48,49.13,20.55,77.13,27.07,86.55s-78.4,16.63-90.75.16c0,0-8.6-36.63-14.44-54.34-8.27-25.07-18.36-40.84-2.59-69.8,2.46-4.53,7.41-14.52,15.8-18,0,0-.18,7.58,9.37,7.13S173,74.53,173,74.53Z"/><path class="cls-3" d="M130.24,14.8s-10.76,35.27,10.43,48.55c23.94,15,28.55-17.27,29.94-24.22S176.16,6.1,157.9,3,138.68,3.69,130.24,14.8Z"/><path class="cls-3" d="M142.29,58.86s1.12,12.87-.68,19.8c-1.61,6.17-9.14,15.55-.34,22,7.83,5.76,28.51,1.7,34-19.85,0,0,1.6-5.94-4-6.77-4-.61-10.33-10.71-6.37-29.6S142.29,58.86,142.29,58.86Z"/><path class="cls-6" d="M42.89,416.85l-2.59,4.86s12.62,7.85,16.77,7.22l1.73-3.67Z"/><path class="cls-4" d="M53,429.21s-9.15-4.87-10.54-6.62S38.26,419,36.83,420c-8.34,5.87-16.3,4.95-20,4.85S-.79,421.09,0,427.71s30.07,16.55,35.28,18.71,11.43,4.87,13,3.84S53.75,434.5,53,429.21Z"/><path class="cls-5" d="M146,63.76c10.74.38,15.18-4.78,15.37-5l-.63-.52.32.26-.32-.26S156.32,63.31,146,63Z"/><path class="cls-2" d="M182.86,260.12l.58-.64c-.2-.18-19.82-17.89-26.09-25.23l-.66.55C163,242.2,182.66,259.94,182.86,260.12Z"/><path class="cls-2" d="M180.43,257.88l.35-.79c-.17-.07-17.15-7.81-22-14.08l-.68.53C163.08,250,179.72,257.56,180.43,257.88Z"/><polygon class="cls-7" points="38.69 428.32 39.31 428.1 37.22 422.23 36.59 422.46 38.69 428.32"/><polygon class="cls-7" points="34.81 428.79 35.43 428.56 33.71 423.75 33.09 423.97 34.81 428.79"/><rect class="cls-7" x="30.58" y="425.06" width="0.66" height="3.91" transform="translate(-142.15 35.42) rotate(-19.7)"/><path class="cls-7" d="M51.58,448.51l.31-.58s-4.71-2.5-16.91-6.6c-2.22-.74-4.81-1.54-7.55-2.38C17.42,435.86,5,432,2.84,428.15l-.58.32c2.24,4.11,14.32,7.83,25,11.11,2.73.84,5.32,1.63,7.53,2.38C46.91,446,51.53,448.49,51.58,448.51Z"/><path class="cls-3" d="M217.18,199.36s-5.76,5.58-9.78,4.6-8.33-.6-9.88,1.73c0,0-4.54,4.09-2.67,7.86s-3.4,8.58-1.75,11.1,14.1,9.31,16.17,8,12-18.63,16.78-23.38C229.67,205.62,217.18,199.36,217.18,199.36Z"/><path class="cls-3" d="M199.15,82.85s50.7,34.36,66.13,52c0,0,4.26,6.66-10.37,33.14A249.53,249.53,0,0,1,223,212.89s-9.95-7.41-9.23-9,26.93-55.76,26.52-59.28S193.59,123,190.7,118.1,183.35,79.51,199.15,82.85Z"/><path class="cls-1" d="M224.27,99.11l-11.69,32.12s-43.3-11.15-26.64-39.3c0,0-2.33-15,11-10.87C202.49,82.77,213.76,89,224.27,99.11Z"/><path class="cls-8" d="M128.28,24.17s14-1.63,30.34,5.73c0,0,6.08,4.91,10.81,15.13,0,0,16.81-41.29-12-44.73S128.28,24.17,128.28,24.17Z"/><path class="cls-3" d="M158.9,28.91c.86-3,5.26-7.63,9.57-2.43S162.86,44.26,160,40.14,157.58,33.51,158.9,28.91Z"/><path class="cls-9" d="M204.16,128.76l.32-.85c-.19-.07-19.09-7.37-20-20.59l-.9.06C184.53,121.18,203.36,128.45,204.16,128.76Z"/><path class="cls-9" d="M201.85,127.71l.48-.77c-.12-.07-11.67-7.33-12.11-15.11l-.89,0C189.78,120.13,201.36,127.4,201.85,127.71Z"/><path class="cls-9" d="M191,184.65l.61-.66c-14.8-13.46-54.05-18.76-54.45-18.81l-.11.89C137.41,166.12,176.38,171.39,191,184.65Z"/><path class="cls-10" d="M183.93,179.72l.28-.47c-1.18-.21-28.86-5.07-39.44-3.7l.2.48C155.32,174.7,183.65,179.67,183.93,179.72Z"/><path class="cls-6" d="M372.23,318.38l5.53-.8s-.73-16.8-1.29-17.94l-6,1S372.11,317.45,372.23,318.38Z"/><path class="cls-4" d="M376.14,299.69s.86,12,0,14.37-1,6.44.94,7.11c8.25,2.86,14.37,13.83,16.47,17.62s6.87,19.89,12.65,15.49-2.18-39.35-3.23-45.78-3.68-15-5.73-15.59C392.41,291.48,380.71,296.11,376.14,299.69Z"/><rect class="cls-7" x="382.22" y="320.96" width="6.68" height="0.71" transform="translate(-99.29 451.01) rotate(-54.78)"/><rect class="cls-7" x="385.69" y="323.4" width="5.48" height="0.71" transform="translate(-100.07 454.39) rotate(-54.78)"/><rect class="cls-7" x="388.67" y="325.84" width="4.18" height="0.71" transform="translate(-101.09 457.28) rotate(-54.78)"/><path class="cls-7" d="M405.11,353.14c1.21-12.11-1.66-25.12-3.57-33.73-1-4.37-1.72-7.83-1.6-9.51.37-5.18-3.54-14.58-3.71-15l-.65.27c0,.1,4,9.65,3.65,14.66-.12,1.79.61,5.11,1.62,9.71,1.9,8.57,4.75,21.52,3.56,33.51Z"/></g></g></svg>