<svg xmlns="http://www.w3.org/2000/svg" viewBox="0 0 266.11 461.11"><defs><style>.cls-1{fill:#1c4154;}.cls-2{fill:#eea886;}.cls-3{fill:#eb4747;}.cls-4{fill:#a77860;}.cls-5{fill:#334a52;}.cls-6{fill:#d1c0ba;}.cls-7{fill:#948884;}.cls-8{fill:#eddad3;}.cls-9{fill:#ccbbb5;}.cls-10{fill:#f47878;}.cls-11{fill:#db9c7c;}</style></defs><title>imgPersona3_2_1</title><g id="Capa_2" data-name="Capa 2"><g id="Layer_1" data-name="Layer 1"><path class="cls-1" d="M154.87,38.16s5.41-20.77-7.35-31.43-27.07-7-34.27-.33-16.12,20.39-8.12,40,9.81,15,6,29.35-8.3,24.25-1.11,30.87,18.43,5,19.56-3.2,2.36-37.29,3.16-41.55S154.87,38.16,154.87,38.16Z"/><path class="cls-2" d="M126.21,72.75s-15,5.65-20.4,6.29-3.6,16.8-3.6,16.8-4,11.12-3.8,18.4c.27,9.8,4.83,12.47,5.18,13.18s4.15,23.89,4.46,27.92-1.21,9.2-2.16,12.52c-1.07,3.73-4.53,17.47-4.53,17.47s27.34,8.56,68.79,1.42c0,0-2.59-10.72-3.52-16-.5-2.86-2-8.36-1.26-13.62s6.76-27.28,6.95-29.39S184,114.17,174,100.22c0,0-2.49-14.4-3.15-18.27,0,0-17.63-8.23-22.36-9S126.21,72.75,126.21,72.75Z"/><path class="cls-2" d="M105.81,79s-7.19.15-12.62,4S83.92,103,83,105.61s-11.1,19.09-12.86,24.33-2.72,8.53-3.5,8.26-11.14-16.84-12.69-20.84C52.17,112.82,45.22,93,45.22,93l-7.74,14.07L37,108.25s7.12,19.86,9.29,27,7.27,23.87,9.74,26.13,12,5.51,17.22,1.48,17.31-23,20.4-29.39,9.11-16.75,9.11-16.75S112.54,85.86,105.81,79Z"/><path class="cls-2" d="M170.84,82s7.58,0,11.1,3.18S192.09,96,193.6,102.73s2.32,18.83,4.36,25.43,7.8,23.61,10.76,29.82,5.48,32,7.26,38.21,8.33,26.87,8.33,26.87l-10.75,5.33s-21.24-47.81-23.27-55.07S188,157.26,186,151.84s-10.41-25.3-11.69-29.08S158.63,83.5,170.84,82Z"/><path class="cls-3" d="M171.25,189.87s3.65,7.72,6,13S188.7,230.55,192.23,246s11.39,42.62,12.37,50.37,4.54,19.44,8.05,25.67,11.56,24.58,12.92,36.45,10.08,64.21,10.08,64.21-5.31,4.9-15-1.12c0,0-17.77-49.09-22-56.22S188,339.49,187.15,332.6s-7.66-14.39-13.8-30.2-31.25-61.19-34.74-70.49c0,0-1.19-3.77-4.75-2.62l1.74-39.82Z"/><path class="cls-3" d="M100.32,188.6s-4.08,8.23-6.58,13.48-13,28.26-16.85,43.64S65.76,287.28,64.63,295s-4.91,19.35-8.54,25.52-12,24.34-13.63,36.19-11.32,64-11.32,64,5.21,5,15.06-.82c0,0,18.72-48.74,23-55.8s11.13-25.66,12.13-32.53,7.94-14.23,14.39-29.92,32.42-60.57,36.09-69.8a3.54,3.54,0,0,1,5.09-2.44l34.54-39.06Z"/><path class="cls-2" d="M150.36,14.78s8.3,13.41,2.85,32-13,19.65-19.19,17.71c-7.52-2.36-14.59-18.16-15.75-25.19s-5.67-23.93,12.46-25.9C139.05,12.45,147.46,12.81,150.36,14.78Z"/><path class="cls-2" d="M127.83,59s0,20.22-2.88,25.83,25,2.4,25,2.4S146.72,64.35,148,58.88,127.83,59,127.83,59Z"/><path class="cls-1" d="M155.06,34.53s-6.72-16.21-13.51-15.69c0,0-13.41,17.13-25.1,23.71,0,0-14.09-23.62,19.7-33.47C136.15,9.08,156.65,1.21,155.06,34.53Z"/><path class="cls-4" d="M146.64,60.7s-4.47,5.29-9.31,4.41a16.45,16.45,0,0,1-7.55-3.31s2.18,5.33,8.06,5.38C142.88,67.23,146.64,60.7,146.64,60.7Z"/><path class="cls-5" d="M113.15,77.24s-8.77,14-10.94,18.6c0,0-11.59,21.41,1.38,31.58a201,201,0,0,0,3.48,20.63s28.85-5.62,59.93,1.51c0,0,5.3-19.24,5.32-21.83,0,0,12.42-14.87,1.67-27.51,0,0-9.47-19.65-10.26-21.48C163.73,78.74,141.86,64.5,113.15,77.24Z"/><path class="cls-6" d="M3.29,86.88c-.11,11.62,8,21.12,18,21.22s18.33-9.25,18.44-20.87-8-21.11-18-21.21S3.4,75.26,3.29,86.88Z"/><path class="cls-7" d="M13.1,88.32c0,5.83,4,10.6,9.06,10.65s9.2-4.64,9.26-10.48-4-10.6-9.06-10.65S13.16,82.48,13.1,88.32Z"/><path class="cls-2" d="M37,108.25s-6-7.4-9.55-9.71-7.23-5.68-6.75-9.19,4.23-11.7,6.51-11.94,10.76,2.64,10.76,2.64l7.28,13Z"/><path class="cls-8" d="M28.77,85.14c-.11,11.62,8,21.12,18,21.21s18.33-9.24,18.44-20.86-8-21.12-18-21.22S28.89,73.52,28.77,85.14Z"/><path class="cls-9" d="M38.32,85.23C38.26,91.49,42.61,96.6,48,96.65s9.87-5,9.93-11.23S53.67,74.05,48.25,74,38.39,79,38.32,85.23Z"/><path class="cls-2" d="M153.08,74.2s14.7,33.28-14,33.92-17.27-31.19-16.45-34.24C122.66,73.88,134.6,66.6,153.08,74.2Z"/><path class="cls-9" d="M219.06,417.3a5.33,5.33,0,0,0,3.84,1.21c2.24-.24,8.84-2.94,11.72-1.73s4.34,14.12,10,17.33,22.49,13.24,21.49,21.64-23.86,5.95-29.71-1.07-11-3.66-15.7-8.57S219.73,422.15,219.06,417.3Z"/><path class="cls-9" d="M47.87,415.55a5.53,5.53,0,0,1-4,1.23c-2.23-.29-8.78-3.11-11.68-2s-4.61,14-10.3,17.13S-.81,444.75,0,453.18s23.74,6.41,29.73-.5,11.08-3.45,15.86-8.27S47.11,420.38,47.87,415.55Z"/><path class="cls-10" d="M170.15,186.75s-31.37.37-68.79-1.42l-1.68,4.58s27.61,5.52,72.19,1.27Z"/><path class="cls-2" d="M221.67,218.78a15.18,15.18,0,0,1,3,4.47c.56,1.68,2.61,4,3.57,5.26s4.49,7.32,4.95,9c.19.67-.3,5.26.24,6.6s2,3.9.79,4.32-3.11-1.55-3.11-1.55a1.81,1.81,0,0,1-.51,1.93c-1.8,1.33-3.07.71-3.07.71s-.42,1.53-1.31,1.9a4,4,0,0,1-3.18.18,3.62,3.62,0,0,1-2.16,1.2,3.28,3.28,0,0,1-3-1.12s-2.21.92-3.14,0-1.08-2.13-1.59-3.05-2.81-9.86-1.33-16.81-2.44-12.84-2.44-12.84Z"/><rect class="cls-6" x="205.27" y="239.99" width="34.38" height="6.31" transform="translate(-49 56.28) rotate(-13)"/><path class="cls-11" d="M231.2,246s-1.68-8-4.17-9.28-2,1.63-2,1.63-.39-2.89-2.76-2.84-1.67,3.45-1.67,3.45a2.36,2.36,0,0,0-3.18-1.21c-2.28.91-1,3.59-1,3.59s-2.94-2.29-3.8.62c-1.44,4.92,2.21,9.69,2.21,9.69s1,1.07,3.14,0c0,0,2.25,2.79,5.13-.08,0,0,4,1.25,4.49-2.08C227.5,249.49,231.78,250.58,231.2,246Z"/><path class="cls-8" d="M241.79,260.26l3.79-.82a3,3,0,0,0,2.27-3.54l-7.68-35.33a3,3,0,0,0-3.54-2.27l-3.79.83a3,3,0,0,0-2.27,3.53L238.26,258A3,3,0,0,0,241.79,260.26Z"/><rect class="cls-8" x="200.8" y="225.97" width="9.82" height="42.1" rx="2.97" transform="translate(459.27 444.6) rotate(167.71)"/></g></g></svg>