<svg xmlns="http://www.w3.org/2000/svg" viewBox="0 0 310.62 519.59"><defs><style>.cls-1{fill:#8e4f3a;}.cls-2{fill:#edb78f;}.cls-3{fill:#334a52;}.cls-4{fill:#434343;}.cls-5{fill:#633029;}</style></defs><title>Recurso 1</title><g id="Capa_2" data-name="Capa 2"><g id="Layer_1" data-name="Layer 1"><path class="cls-1" d="M33.47,471.26s-6,10-10.39,12.53S3.2,496.47.57,502.32c-1.84,4.1.09,9.12,15.56,6.45s15.09-14,26.36-17.21c7.53-2.16,8.38-3.4,8.38-8.58,0-1.49-1.72-5.14-1.11-7.81S33.47,471.26,33.47,471.26Z"/><path class="cls-1" d="M277.58,482.27s5.57,9.06,10,11.59,19.89,12.68,22.51,18.53c1.84,4.1-.08,9.13-15.55,6.45s-15.1-14-26.37-17.2c-7.53-2.16-8.38-3.41-8.38-8.58,0-1.5,2.49-6.17,1.88-8.84S277.58,482.27,277.58,482.27Z"/><path class="cls-2" d="M103.8,172.71s-7.38-2.65-6.77-6.14,15-31,18.69-35c10.35-11.34,22.62-32.91,24.2-38s50.57-59.89,52.76-62.62L201,37s-30.84,54.17-35.72,60.85S142.62,144.48,140.78,146,103.8,172.71,103.8,172.71Z"/><path class="cls-1" d="M201,37s2.95-4.48,6.17-4.75,13.22-1.62,14-3.08-.33-2.66-2-2.52-9.8.81-9.74-.16C209.9,18,229,4.26,229,2.77A2.53,2.53,0,0,0,226.36,0a91.73,91.73,0,0,0-18.45,11.22c-9.18,7.25-15.23,19.65-15.23,19.65Z"/><path class="cls-3" d="M137.91,257.69s-3.89,7.44-5.46,9.77-45.15,71.05-50.33,82.6c-5.26,11.75-8.4,17.82-10.89,22.35-2,3.7-10.43,26.55-16.78,44.82S35.16,467.05,33,470.79s17.86,4,17.86,4S76.14,432,82.41,424,95.48,401.52,97.49,392s28.24-34.51,33.77-42.92c5.1-7.75,25.37-36.7,28.87-42.89,3.21-5.66,10-4.67,10-4.67L175.37,266Z"/><path class="cls-3" d="M205.3,257.15s2.77,7.9,4,10.43,25.59,51,29.43,64.7c3.42,12.17,12.5,42.09,14.64,48.32,1.36,4,7.78,27.17,11.41,46.15s12.39,50.68,14,54.69-17.94,5-17.94,5-19.66-48.07-24.71-56.92-9.68-24-10.29-33.73S204.75,355,199.1,347.65s-18.87-37.27-23.91-42.33-8.28-4.67-8.28-4.67l.1-40.5Z"/><path class="cls-2" d="M69.5,206.89s-6.79-3.87-9.13-1.19S45.7,236.86,44.9,242.24c-2.26,15.07-11.29,38.13-14.28,42.59s-14.51,76.51-15.24,79.9l10.12,2.33s22.65-57.94,24.76-65.9,22-46.89,22-49.24S69.5,206.89,69.5,206.89Z"/><path class="cls-2" d="M63.15,188.61s-6.8,13.78-8.12,17c-4.52,11.06-6.87,20.63-10.13,36.64,0,0,14.07,13,24.51,16.57,0,0,10.39-17.95,11.47-18.5s21.4,15.39,27.83,22.4c4.46,4.86,5.75,26.44,7.53,29.75s81.39-17.48,89.38-35.61c0,0-21.37-34.65-24.7-39.62s-38.21-50.92-40.24-53.52,2.94-22.79,2.94-22.79S130.39,127,119.93,126.57c0,0-13.9,14.11-16.26,15.72s-19.2,15.69-23.06,22S63.15,188.61,63.15,188.61Z"/><path class="cls-1" d="M25.5,367.06s-1.62,5.08.22,7.69,7.18,11,6.54,12.55-2.29,1.45-3.27.06-5.63-7.91-6.36-7.25c-6.34,5.88-4.88,29.05-6,30.06a2.59,2.59,0,0,1-3.86-.25,88.59,88.59,0,0,1-3-21.12c-.2-11.57,5.64-24.07,5.64-24.07Z"/><path class="cls-1" d="M51.79,180.08s9.19,3.75,13.14,9.85c0,0,11.39,10.9,20.64-1.9S83,167.31,83,167.31s-6.37.42-16.7-9.13S51.79,180.08,51.79,180.08Z"/><path class="cls-1" d="M9.5,141.86s-8.32,18.6,20.84,33.49,36.69-1.41,37.31-2.42,10.33-14.61-22.5-37C45.15,135.92,20.66,119.69,9.5,141.86Z"/><path class="cls-1" d="M22.41,170.68s-3.27.54-1.64,2.54,12.62,4.6,13.52,4.85c0,0,1,.18.87-.54S22.41,170.68,22.41,170.68Z"/><path class="cls-1" d="M44.62,136.17s-.9-3.14,1.64-2.54,10,9.56,10.25,9.93c0,0,.6.84-.13,1S44.62,136.17,44.62,136.17Z"/><path class="cls-4" d="M26.62,173.35l4.95-.28s-7.41-4.61-8.31-5.73-3.09-1.37-3.71-2.22,1.23-22.74,19.67-28.89c0,0,3.26,4,4.52,3.13s9,4.87,9,4.87l-1-3.47s-12.46-11.09-14.93-12.35c-3.28-1.67-17.06-11.89-31.59,15.53a18.37,18.37,0,0,0-2.1,10.24c.36,4,1.86,8.81,6.54,11.44A181.64,181.64,0,0,0,26.62,173.35Z"/><path class="cls-5" d="M69,161.34s4,13.17-12.77,19.41c0,0,9,1,13.72-5.94S69,161.34,69,161.34Z"/></g></g></svg>