<svg xmlns="http://www.w3.org/2000/svg" viewBox="0 0 266.09 532.22"><defs><style>.cls-1{fill:#163342;}.cls-2{fill:#8e4f3a;}.cls-3{fill:#edb78f;}.cls-4{fill:#334a52;}.cls-5{fill:#633029;}.cls-6{fill:#b85858;}.cls-7{fill:#693a2b;}</style></defs><title>imgPersona4_2</title><g id="Capa_2" data-name="Capa 2"><g id="Layer_1" data-name="Layer 1"><path class="cls-1" d="M153.08,109.7s16.74,35.28,5.22,37.39c-15.82,2.9-22.22-26.32-22.22-26.32Z"/><path class="cls-2" d="M156.1,144.52s9-7.12,12.89-11,20.85-31.14,24.28-36.44,7.33-15.75,9.67-20.27,25.42-39.3,25.42-39.3l8.89,3.74s-15.91,40.23-20,46.94-8.11,20.27-11.23,26.2-20,29.79-22.92,35.24-5.78,16.11-5.78,16.11S152.09,159.23,156.1,144.52Z"/><path class="cls-2" d="M122.89,126.43s1.66,12.35.83,20.86S147,149.56,147,149.56s-1.35-18.51.72-25.16S122.89,126.43,122.89,126.43Z"/><path class="cls-3" d="M98.7,252.55s-3.25,8-5.38,13.51S81,293.92,78.18,309.79s-7,44.67-7.61,52.6-3.61,20-6.79,26.48-10.32,25.51-11.12,37.65-7.06,65.8-7.06,65.8,5.46,4.75,14.8-1.79c0,0,15.34-50.74,19.15-58.18s9.33-26.79,9.88-33.84,6.92-15,12.27-31.33,27.74-63.44,29.92-72.76c0,0,.21-4.14,5.78-3.35l-3.52-40.46Z"/><path class="cls-4" d="M169.62,252.84s3.48,8.64,5.59,14.14,12.3,27.87,15.06,43.75,6.92,44.68,7.52,52.61,3.57,20,6.74,26.49,10.27,25.53,11.05,37.68,6.94,65.81,6.94,65.81-5.47,4.74-14.79-1.82c0,0-15.25-50.76-19-58.21s-9.28-26.81-9.81-33.86-6.89-15-12.22-31.36-28-63.67-31-73.3A3.54,3.54,0,0,0,130.8,292L99.31,250Z"/><path class="cls-4" d="M61.68,486.3A5,5,0,0,1,58,487.68c-2.22-.14-8.86-2.51-11.65-1.19S42.69,500.61,37.28,504s-21.64,14-20.28,22.3,23.82,4.84,29.29-2.35,10.72-4.09,15.13-9.14S61.23,491.11,61.68,486.3Z"/><path class="cls-3" d="M206.47,487.35a5.2,5.2,0,0,0,3.7,1.31c2.23-.13,8.87-2.5,11.66-1.17s3.64,14.13,9,17.55,21.61,14.09,20.24,22.35-23.83,4.79-29.29-2.41-10.71-4.11-15.11-9.17S206.92,492.16,206.47,487.35Z"/><path class="cls-2" d="M115.64,93.76s-2.2-2.65-3,0,1.86,10.57,2.16,11.72c0,0,1.33,4.44,1.87,3.87S115.64,93.76,115.64,93.76Z"/><path class="cls-2" d="M154.09,94.09s2.2-2.65,3,0-1.86,10.57-2.16,11.72c0,0-1.33,4.44-1.87,3.87S154.09,94.09,154.09,94.09Z"/><path class="cls-2" d="M138.32,68.45s20.2,3.11,17.25,34.94-20.79,29.3-22,29.27-17.88.67-19.33-38.17C114.25,94.49,113.58,65.77,138.32,68.45Z"/><path class="cls-1" d="M118.13,92.59s22.42,6.67,33.16,4.53c0,0,.68,4,2.22,4.21s2.33-7.57,2.33-7.57.53-25.88-22.88-26.13-18.66,28-18.66,28l.32,4.83S118,101.82,118.13,92.59Z"/><path class="cls-5" d="M125.64,129.63s7.07,6.7,18,.55c0,0-3.22,5.37-9.32,5.23S125.64,129.63,125.64,129.63Z"/><path class="cls-2" d="M146.62,140.89s6.68,3.16,9.48,3.63,21.37,15.59,22,17.15S173.73,176,171.85,182s-9.92,41.63-9.17,44.13,7.73,27.55,8.06,29.57C122.19,265.21,96.9,257,96.9,257s8.21-24.24,7.9-28.91-4.84-31.19-8.11-38.68S88,163.08,88,163.08s21.21-16.53,21.84-17.63S121,142.33,124,140.89Z"/><path class="cls-2" d="M111.15,144.73S101,137.4,97.1,133.55,76.26,102.41,72.83,97.11,65.5,81.36,63.16,76.84s-25.42-39.3-25.42-39.3l-8.89,3.74s15.91,40.23,20,46.94,8.11,20.27,11.23,26.2S80,144.21,83,149.66s5.79,16.11,5.79,16.11S115.16,159.44,111.15,144.73Z"/><path class="cls-3" d="M156.1,144.52s10.24,31.53,13.78,45c0,0-5.39,24.11-6,27.72,0,0-30.21-5.82-60.46,1,0,0-6.53-28.35-7.16-29.94a155,155,0,0,0,14.92-43.61s3.9-2.3,6.81-2c0,0-2.87,31.53,17.87,31.22s14.37-31.5,14.37-31.5A37.8,37.8,0,0,1,156.1,144.52Z"/><path class="cls-2" d="M42.88,45.3s-2.2-3.32-2.33-5.42c-.11-1.73.1-4.21.06-5.78s-1-8.27-1.6-9.82c-.26-.63-3.39-3.83-3.78-5.18s-.83-4.16-2-3.77-1.45,3-1.45,3a1.72,1.72,0,0,0-1.54-1.16c-2.17.06-2.77,1.29-2.77,1.29s-1.24-.92-2.14-.66a3.81,3.81,0,0,0-2.53,1.77,3.47,3.47,0,0,0-2.37.38,3.19,3.19,0,0,0-1.6,2.64s-2.23.62-2.37,1.9.45,2.28.61,3.29S20.92,37,26.16,41.46c4.25,3.67,7.42,11,7.42,11Z"/><rect class="cls-6" x="10.75" y="23.31" width="33.38" height="6.13" transform="translate(-8.61 14.17) rotate(-25.16)"/><path class="cls-7" d="M32.43,19s3.5,7.1,2.38,9.58-2.54,0-2.54,0,1.44,2.44-.41,3.81-3.33-1.62-3.33-1.62a2.29,2.29,0,0,1-1.71,2.82c-2.29.68-3-2.11-3-2.11S23,35,20.6,33.27c-4.06-2.89-4.13-8.73-4.13-8.73s.12-1.41,2.37-1.9c0,0,.05-3.48,4-3,0,0,2.26-3.33,4.67-1.11C27.48,18.51,30.1,15.11,32.43,19Z"/><path class="cls-4" d="M32.51,1.43,34.73.36A3.53,3.53,0,0,1,39.45,2L54.21,32.4a3.54,3.54,0,0,1-1.63,4.73L50.36,38.2a3.53,3.53,0,0,1-4.72-1.63L30.88,6.16A3.54,3.54,0,0,1,32.51,1.43Z"/><rect class="cls-4" x="7.56" y="13.04" width="9.53" height="40.87" rx="2.63" transform="translate(38.04 58.21) rotate(154.12)"/><path class="cls-2" d="M223.22,45.3s2.2-3.32,2.33-5.42c.11-1.73-.11-4.21-.06-5.78s1-8.27,1.6-9.82c.25-.63,3.39-3.83,3.77-5.18s.84-4.16,2-3.77,1.45,3,1.45,3a1.74,1.74,0,0,1,1.55-1.16c2.17.06,2.76,1.29,2.76,1.29s1.24-.92,2.14-.66a3.85,3.85,0,0,1,2.54,1.77,3.47,3.47,0,0,1,2.37.38,3.19,3.19,0,0,1,1.6,2.64s2.23.62,2.37,1.9-.45,2.28-.62,3.29-3.84,9.13-9.07,13.63c-4.25,3.67-7.43,11-7.43,11Z"/><rect class="cls-6" x="235.59" y="9.68" width="6.13" height="33.38" transform="translate(113.3 231.17) rotate(-64.84)"/><path class="cls-7" d="M233.67,19s-3.51,7.1-2.38,9.58,2.53,0,2.53,0-1.43,2.44.41,3.81,3.34-1.62,3.34-1.62a2.28,2.28,0,0,0,1.7,2.82c2.3.68,3-2.11,3-2.11s.87,3.52,3.27,1.81c4.06-2.89,4.13-8.73,4.13-8.73s-.12-1.41-2.37-1.9c0,0,0-3.48-4-3,0,0-2.27-3.33-4.68-1.11C238.61,18.51,236,15.11,233.67,19Z"/><path class="cls-4" d="M233.58,1.43,231.37.36A3.54,3.54,0,0,0,226.64,2L211.88,32.4a3.54,3.54,0,0,0,1.64,4.73l2.21,1.07a3.55,3.55,0,0,0,4.73-1.63L235.22,6.16A3.54,3.54,0,0,0,233.58,1.43Z"/><path class="cls-4" d="M264.61,16l-3.85-1.87a2.64,2.64,0,0,0-3.51,1.22l-15.55,32a2.62,2.62,0,0,0,1.22,3.51l3.85,1.87a2.63,2.63,0,0,0,3.51-1.21l15.55-32A2.63,2.63,0,0,0,264.61,16Z"/></g></g></svg>