<svg xmlns="http://www.w3.org/2000/svg" viewBox="0 0 266.37 459.88"><defs><style>.cls-1{fill:#1c4154;}.cls-2{fill:#eea886;}.cls-3{fill:#334a52;}.cls-4{fill:#a77860;}.cls-5{fill:#eb4747;}.cls-6{fill:#d1c0ba;}.cls-7{fill:#948884;}.cls-8{fill:#eddad3;}.cls-9{fill:#ccbbb5;}.cls-10{fill:#405e66;}.cls-11{fill:#db9c7c;}</style></defs><title>imgPersona3_1</title><g id="Capa_2" data-name="Capa 2"><g id="Layer_1" data-name="Layer 1"><path class="cls-1" d="M115.27,37.92s-5.21-20.83,7.66-31.35,27.14-6.79,34.27,0,15.92,20.54,7.73,40.07-10,14.9-6.33,29.29,8.07,24.33.82,30.88-18.48,4.79-19.53-3.39-2-37.31-2.76-41.58S115.27,37.92,115.27,37.92Z"/><path class="cls-2" d="M143.59,72.79s14.91,5.78,20.35,6.49,3.43,16.83,3.43,16.83,3.9,11.15,3.62,18.43c-.37,9.8-5,12.43-5.3,13.13s-4.39,23.85-4.74,27.88,1.13,9.2,2.05,12.53c1,3.75,4.36,17.52,4.36,17.52s-27.43,8.29-68.81.75c0,0,2.7-10.69,3.68-16,.53-2.86,2.09-8.34,1.39-13.6S97.13,129.42,97,127.32s-11.58-13.68-1.41-27.53c0,0,2.63-14.38,3.33-18.23,0,0,17.71-8.07,22.45-8.77S143.59,72.79,143.59,72.79Z"/><path class="cls-2" d="M163.94,79.28s7.18.21,12.58,4.16,9.07,20,10,22.62,10.91,19.2,12.62,24.46,2.63,8.55,3.42,8.28,11.3-16.72,12.89-20.71c1.81-4.52,8.94-24.26,8.94-24.26L232,108l.5,1.17s-7.32,19.8-9.55,26.9-7.5,23.8-10,26-12.1,5.39-17.23,1.31-17.09-23.14-20.12-29.58S166.65,117,166.65,117,157.14,86,163.94,79.28Z"/><path class="cls-2" d="M98.88,81.56s-7.58-.09-11.13,3.06S77.49,95.41,75.91,102.11s-2.5,18.81-4.6,25.38-8,23.54-11.05,29.72-5.78,32-7.62,38.14-8.59,26.78-8.59,26.78l10.69,5.44s21.7-47.61,23.8-54.84,2.5-16,4.48-21.43,10.65-25.21,12-29S111.07,83.22,98.88,81.56Z"/><path class="cls-3" d="M97.42,189.46s-3.72,7.69-6.16,13S79.58,230,75.9,245.39s-11.8,42.5-12.85,50.24-4.73,19.4-8.3,25.6S43,345.69,41.48,357.55s-10.71,64.11-10.71,64.11,5.27,4.95,15.05-1c0,0,18.25-48.92,22.51-56S79.21,338.91,80.14,332s7.8-14.31,14.1-30.07,31.83-60.87,35.41-70.14c0,0,1.23-3.76,4.78-2.57l-1.36-39.84Z"/><path class="cls-3" d="M168.36,188.88s4,8.27,6.45,13.54,12.75,28.39,16.43,43.8S202,287.89,203,295.63s4.73,19.4,8.3,25.6,11.8,24.46,13.27,36.32,10.7,64.11,10.7,64.11-5.26,4.95-15-1c0,0-18.25-48.92-22.51-56S186.86,338.91,185.93,332s-7.8-14.31-14.1-30.07S140,241.09,136.41,231.82a3.54,3.54,0,0,0-5.06-2.49L97.19,189.94Z"/><path class="cls-2" d="M120,14.58s-8.42,13.33-3.15,31.93,12.8,19.78,19,17.9c7.55-2.29,14.77-18,16-25s5.9-23.88-12.21-26C131.34,12.36,122.93,12.65,120,14.58Z"/><path class="cls-2" d="M142.1,59s-.13,20.23,2.63,25.87-25,2.15-25,2.15,3.4-22.86,2.18-28.34S142.1,59,142.1,59Z"/><path class="cls-1" d="M115.12,34.29S122,18.15,128.78,18.73c0,0,13.24,17.26,24.87,24,0,0,14.31-23.48-19.38-33.66C134.27,9,113.85,1,115.12,34.29Z"/><path class="cls-4" d="M123.28,60.54s4.42,5.33,9.27,4.49a16.43,16.43,0,0,0,7.58-3.23A9.11,9.11,0,0,1,132,67.1C127,67.1,123.28,60.54,123.28,60.54Z"/><path class="cls-5" d="M156.61,77.4s8.64,14.07,10.76,18.71c0,0,11.38,21.52-1.68,31.56A202.29,202.29,0,0,1,162,148.26s-28.79-5.9-59.93.94c0,0-5.11-19.29-5.11-21.88,0,0-12.28-15-1.41-27.53,0,0,9.67-19.56,10.47-21.38C106,78.41,128,64.38,156.61,77.4Z"/><path class="cls-6" d="M266.37,88.1c0,11.63-8.16,21-18.23,21s-18.24-9.41-18.24-21,8.17-21,18.24-21S266.37,76.48,266.37,88.1Z"/><path class="cls-7" d="M256.55,89.45c0,5.83-4.1,10.56-9.16,10.56s-9.16-4.73-9.16-10.56,4.1-10.57,9.16-10.57S256.55,83.61,256.55,89.45Z"/><path class="cls-2" d="M232.49,109.14s6-7.33,9.65-9.61,7.27-5.61,6.83-9.12-4.12-11.75-6.39-12-10.79,2.54-10.79,2.54l-7.41,12.89Z"/><path class="cls-8" d="M240.91,86.11c0,11.62-8.17,21-18.24,21s-18.23-9.42-18.23-21,8.16-21,18.23-21S240.91,74.49,240.91,86.11Z"/><path class="cls-9" d="M231.36,86.11c0,6.26-4.4,11.33-9.82,11.33s-9.82-5.07-9.82-11.33,4.4-11.33,9.82-11.33S231.36,79.86,231.36,86.11Z"/><path class="cls-2" d="M116.71,74s-15,33.13,13.65,34.05S147.93,77,147.14,74C147.14,74,135.27,66.55,116.71,74Z"/><path class="cls-9" d="M47.42,416.42a5.32,5.32,0,0,1-3.86,1.17c-2.23-.26-8.81-3-11.7-1.84S27.39,429.82,21.73,433-.88,446,0,454.41s23.8,6.19,29.72-.78,11-3.55,15.78-8.42S46.7,421.26,47.42,416.42Z"/><path class="cls-9" d="M218.61,416.32a5.48,5.48,0,0,0,3.95,1.27c2.24-.26,8.81-3,11.7-1.84s4.48,14.07,10.13,17.23,22.62,13,21.7,21.43-23.8,6.19-29.72-.78-11.05-3.55-15.78-8.42S219.33,421.16,218.61,416.32Z"/><path class="cls-10" d="M98.55,186.35s31.37.68,68.81-.75l1.64,4.59s-27.67,5.26-72.21.58Z"/><path class="cls-2" d="M46.73,217.88a15.22,15.22,0,0,0-3,4.44c-.59,1.68-2.65,3.94-3.63,5.23s-4.55,7.27-5,8.92c-.19.67.25,5.27-.3,6.59s-2,3.89-.83,4.32,3.13-1.52,3.13-1.52a1.81,1.81,0,0,0,.49,1.94c1.79,1.34,3.06.73,3.06.73s.4,1.54,1.29,1.92a4,4,0,0,0,3.18.21,3.59,3.59,0,0,0,2.14,1.22,3.3,3.3,0,0,0,3-1.09s2.2.94,3.13,0,1.11-2.12,1.63-3,2.91-9.83,1.49-16.8S59,218.13,59,218.13Z"/><rect class="cls-6" x="42.54" y="225.05" width="6.31" height="34.38" transform="translate(-200.51 229.89) rotate(-76.44)"/><path class="cls-11" d="M36.93,245s1.76-8,4.26-9.24,2,1.65,2,1.65.42-2.89,2.79-2.81S47.64,238,47.64,238a2.36,2.36,0,0,1,3.19-1.17c2.28.93,1,3.6,1,3.6s3-2.27,3.79.65c1.4,4.94-2.31,9.67-2.31,9.67s-1,1.06-3.13,0c0,0-2.28,2.76-5.13-.13,0,0-4,1.21-4.47-2.13C40.6,248.53,36.31,249.58,36.93,245Z"/><path class="cls-8" d="M26.2,259.17l-3.77-.86a3,3,0,0,1-2.24-3.56l8-35.25a3,3,0,0,1,3.56-2.24l3.78.86a3,3,0,0,1,2.24,3.56l-8,35.25A3,3,0,0,1,26.2,259.17Z"/><rect class="cls-8" x="57.5" y="225.22" width="9.82" height="42.1" rx="2.97" transform="matrix(0.97, 0.22, -0.22, 0.97, 56.3, -7.71)"/></g></g></svg>